<?xml version="1.0" encoding="UTF-8"?>
<svg version="1.1" xmlns="http://www.w3.org/2000/svg" width="434" height="238">
<path d="M0 0 C6.9783273 5.2902601 14.1335281 10.31380239 21.3046875 15.33764648 C25.58896857 18.34738492 29.84727375 21.39335509 34.09960938 24.44799805 C36.21291051 25.96078435 38.33503463 27.46133944 40.46679688 28.94799805 C45.51142527 32.50415799 49.81985658 35.65472126 53.33007812 40.76049805 C53.70777344 41.30706055 54.08546875 41.85362305 54.47460938 42.41674805 C58.87179459 49.75056933 59.17758361 59.28739879 57.76757812 67.57299805 C55.15134673 76.85029228 48.94156228 82.39786148 41.33007812 87.76049805 C40.00058324 88.72606257 38.67258885 89.69369487 37.34570312 90.6628418 C29.20159848 96.59727775 20.98834157 102.43227099 12.74414062 108.2265625 C6.67264062 112.5001706 0.65434934 116.8454637 -5.34375 121.22143555 C-17.50490786 130.05771707 -26.04424306 135.13667266 -41.66992188 133.76049805 C-50.34141958 131.77402326 -56.49612863 126.70629506 -61.98242188 119.88549805 C-66.84433958 110.88194674 -68.13408276 102.4574503 -65.41992188 92.51049805 C-60.904679 79.2534151 -48.95720277 72.01095338 -37.66992188 64.76049805 C-35.25854411 63.15833474 -32.96306363 61.53247122 -30.66992188 59.76049805 C-30.66992188 59.10049805 -30.66992188 58.44049805 -30.66992188 57.76049805 C-32.13448513 56.45769858 -32.13448513 56.45769858 -34.07226562 55.1862793 C-34.79373779 54.68700928 -35.51520996 54.18773926 -36.25854492 53.67333984 C-37.03367432 53.14522705 -37.80880371 52.61711426 -38.60742188 52.07299805 C-40.17606605 50.98319802 -41.74378321 49.89206238 -43.31054688 48.79956055 C-44.06658203 48.27394531 -44.82261719 47.74833008 -45.6015625 47.20678711 C-56.014692 39.92546285 -63.54808183 33.53005844 -66.66992188 20.76049805 C-67.78482974 12.49264198 -65.85333576 4.88472428 -61.98242188 -2.42700195 C-42.30941357 -26.35363368 -20.87048427 -15.83974075 0 0 Z " fill="#34A552" transform="translate(309.669921875,65.239501953125)"/>
<path d="M0 0 C0 0.66 0 1.32 0 2 C0.639375 2.268125 1.27875 2.53625 1.9375 2.8125 C4 4 4 4 5 7 C5.66 7 6.32 7 7 7 C7.82011312 8.55851755 8.63076213 10.12201716 9.4375 11.6875 C9.88996094 12.55761719 10.34242188 13.42773438 10.80859375 14.32421875 C14.22486088 21.9968187 13.8235642 30.1367131 10.8984375 37.87890625 C5.30914257 51.07450253 -6.82994387 57.87774663 -18.22119141 65.75634766 C-20.18179469 67.12710158 -22.10363927 68.54164385 -24 70 C-23.3915625 70.43828125 -22.783125 70.8765625 -22.15625 71.328125 C-19.70228347 73.10364196 -17.25493247 74.88790061 -14.81103516 76.67724609 C-13.54454135 77.60227487 -12.27579728 78.52422703 -11.00537109 79.44384766 C-8.8931603 80.9750152 -6.78986317 82.51784706 -4.6875 84.0625 C-4.01847656 84.54428711 -3.34945312 85.02607422 -2.66015625 85.52246094 C5.02541518 91.20626251 10.00767842 97.11743453 12.6875 106.375 C13.88712992 116.45189137 11.802615 124.08085785 7 133 C6.34 133 5.68 133 5 133 C4.63648438 133.89332031 4.63648438 133.89332031 4.265625 134.8046875 C2.75689849 137.42167607 1.27261321 138.48615944 -1.25 140.125 C-1.99765625 140.62257812 -2.7453125 141.12015625 -3.515625 141.6328125 C-11.72861366 146.15253897 -21.84226393 146.4959124 -30.8125 143.9375 C-35.05901793 142.28475839 -38.39877121 139.64103765 -41.859375 136.71875 C-43.9445496 134.96415861 -43.9445496 134.96415861 -46.2265625 133.66796875 C-50.19509654 131.28125884 -53.88393408 128.53805584 -57.625 125.8125 C-58.42969727 125.22879639 -59.23439453 124.64509277 -60.06347656 124.04370117 C-62.37725195 122.36465568 -64.68907596 120.68296698 -67 119 C-68.03382813 118.2471875 -69.06765625 117.494375 -70.1328125 116.71875 C-71.85423511 115.46493771 -73.57559116 114.21103404 -75.296875 112.95703125 C-77.91903158 111.0586202 -80.55018313 109.17360365 -83.18579102 107.29394531 C-84.3848503 106.43874221 -85.58326744 105.58263797 -86.78100586 104.72558594 C-89.61148468 102.70028559 -92.44742809 100.68437425 -95.30078125 98.69140625 C-96.29464844 97.98886719 -97.28851563 97.28632813 -98.3125 96.5625 C-99.19550781 95.94503906 -100.07851562 95.32757813 -100.98828125 94.69140625 C-103 93 -103 93 -104 90 C-104.66 90 -105.32 90 -106 90 C-106.82011312 88.44148245 -107.63076213 86.87798284 -108.4375 85.3125 C-108.88996094 84.44238281 -109.34242187 83.57226562 -109.80859375 82.67578125 C-112.90591619 75.7194997 -113.03083153 67.61904308 -110.8125 60.375 C-106.19168606 48.34822398 -97.5488541 41.97564325 -87 35 C-84.40435344 33.20490661 -81.82679279 31.38452326 -79.25 29.5625 C-78.14398438 28.78132813 -78.14398438 28.78132813 -77.015625 27.984375 C-71.65317697 24.18899371 -66.32114269 20.35300132 -61 16.5 C-58.75614474 14.87860998 -56.51181444 13.25788157 -54.26708984 11.63769531 C-52.73249767 10.52914004 -51.19899936 9.41906921 -49.66650391 8.30761719 C-47.38658906 6.6566937 -45.10033819 5.0149192 -42.8125 3.375 C-41.78866211 2.62959961 -41.78866211 2.62959961 -40.74414062 1.86914062 C-27.72383081 -7.41636222 -13.91268733 -8.5109216 0 0 Z " fill="#4284F2" transform="translate(209,54)"/>
<path d="M0 0 C0 0.66 0 1.32 0 2 C0.639375 2.268125 1.27875 2.53625 1.9375 2.8125 C4 4 4 4 5 7 C5.66 7 6.32 7 7 7 C7.82011312 8.55851755 8.63076213 10.12201716 9.4375 11.6875 C9.88996094 12.55761719 10.34242188 13.42773438 10.80859375 14.32421875 C14.22486088 21.9968187 13.8235642 30.1367131 10.8984375 37.87890625 C5.30914257 51.07450253 -6.82994387 57.87774663 -18.22119141 65.75634766 C-20.18179469 67.12710158 -22.10363927 68.54164385 -24 70 C-23.4225 70.39832031 -22.845 70.79664062 -22.25 71.20703125 C-21.13625 72.00173828 -21.13625 72.00173828 -20 72.8125 C-19.2575 73.33457031 -18.515 73.85664062 -17.75 74.39453125 C-17.1725 74.92433594 -16.595 75.45414062 -16 76 C-16 76.99 -16 77.98 -16 79 C-15.34 79.33 -14.68 79.66 -14 80 C-13.375 82.5625 -13.375 82.5625 -13 85 C-16.55805911 84.37162717 -18.83706906 82.91370655 -21.75 80.8125 C-22.61882812 80.18601562 -23.48765625 79.55953125 -24.3828125 78.9140625 C-25.24648437 78.28242188 -26.11015625 77.65078125 -27 77 C-27.80179687 76.43023437 -28.60359375 75.86046875 -29.4296875 75.2734375 C-30.51636719 74.48839844 -30.51636719 74.48839844 -31.625 73.6875 C-32.60339844 72.98173828 -32.60339844 72.98173828 -33.6015625 72.26171875 C-34.29378906 71.63716797 -34.29378906 71.63716797 -35 71 C-35 70.34 -35 69.68 -35 69 C-35.70382813 68.74863281 -36.40765625 68.49726562 -37.1328125 68.23828125 C-42.5166188 65.9131224 -47.18245448 62.3112681 -52 59 C-52.77085937 58.48308594 -53.54171875 57.96617188 -54.3359375 57.43359375 C-55.9296293 56.34402895 -57.47238849 55.18042708 -59 54 C-59 53.34 -59 52.68 -59 52 C-59.9075 51.731875 -60.815 51.46375 -61.75 51.1875 C-64.75835378 50.08829381 -66.50358617 48.91391727 -69 47 C-77.03951229 44.25841516 -87.06137707 45.45964066 -95 48 C-95 48.66 -95 49.32 -95 50 C-95.928125 50.721875 -96.85625 51.44375 -97.8125 52.1875 C-102.45922671 56.02132417 -103.75020824 59.5603671 -104.3515625 65.43359375 C-104.66576056 73.64408517 -104.22791257 80.41283017 -99 87 C-95.85520039 89.96436029 -92.50985118 92.48826275 -89 95 C-88.175 95.67289062 -87.35 96.34578125 -86.5 97.0390625 C-84.08481914 98.93346999 -81.63004036 100.42432754 -79 102 C-76.65568527 103.66567817 -74.36244154 105.39877059 -72.0625 107.125 C-65.87252982 111.73846095 -59.5247157 115.92618171 -52.92578125 119.9296875 C-49.98073099 122.01363494 -48.09038995 124.08057463 -46 127 C-47.155 127.0825 -48.31 127.165 -49.5 127.25 C-50.1496875 127.29640625 -50.799375 127.3428125 -51.46875 127.390625 C-58.44457246 126.31410919 -64.19762714 121.60348439 -69.625 117.375 C-71.02632316 116.30335162 -72.42868665 115.23306239 -73.83203125 114.1640625 C-74.87738037 113.36597168 -74.87738037 113.36597168 -75.94384766 112.55175781 C-79.02556859 110.22601354 -82.16308546 107.98279061 -85.3125 105.75 C-85.88009033 105.34563721 -86.44768066 104.94127441 -87.0324707 104.5246582 C-89.77367766 102.57323 -92.52286307 100.63408943 -95.28125 98.70703125 C-96.2815625 97.99933594 -97.281875 97.29164063 -98.3125 96.5625 C-99.19550781 95.94503906 -100.07851562 95.32757813 -100.98828125 94.69140625 C-103 93 -103 93 -104 90 C-104.66 90 -105.32 90 -106 90 C-106.82011312 88.44148245 -107.63076213 86.87798284 -108.4375 85.3125 C-108.88996094 84.44238281 -109.34242187 83.57226562 -109.80859375 82.67578125 C-112.90591619 75.7194997 -113.03083153 67.61904308 -110.8125 60.375 C-106.19168606 48.34822398 -97.5488541 41.97564325 -87 35 C-84.40435344 33.20490661 -81.82679279 31.38452326 -79.25 29.5625 C-78.14398438 28.78132813 -78.14398438 28.78132813 -77.015625 27.984375 C-71.65317697 24.18899371 -66.32114269 20.35300132 -61 16.5 C-58.75614474 14.87860998 -56.51181444 13.25788157 -54.26708984 11.63769531 C-52.73249767 10.52914004 -51.19899936 9.41906921 -49.66650391 8.30761719 C-47.38658906 6.6566937 -45.10033819 5.0149192 -42.8125 3.375 C-41.78866211 2.62959961 -41.78866211 2.62959961 -40.74414062 1.86914062 C-27.72383081 -7.41636222 -13.91268733 -8.5109216 0 0 Z " fill="#E74437" transform="translate(209,54)"/>
<path d="M0 0 C2.4726498 1.11668056 4.70707301 2.32609237 6.9375 3.875 C6.9375 4.535 6.9375 5.195 6.9375 5.875 C8.01257813 6.25398437 8.01257813 6.25398437 9.109375 6.640625 C12.17522677 7.9787592 14.51935949 9.61219224 17.1875 11.625 C21.39635165 14.75044105 25.63487324 17.77280938 30.03125 20.62890625 C31.48921226 21.58195945 32.9102313 22.59174938 34.3125 23.625 C38.61079857 25.67180884 43.25560174 26.17804492 47.9375 26.875 C44.43335566 29.7089528 40.87841952 32.45194879 37.25 35.125 C36.29738281 35.83140625 35.34476562 36.5378125 34.36328125 37.265625 C31.9375 38.875 31.9375 38.875 29.9375 38.875 C29.6075 39.865 29.2775 40.855 28.9375 41.875 C26.9375 42.54166667 24.9375 43.20833333 22.9375 43.875 C22.6075 44.865 22.2775 45.855 21.9375 46.875 C19.96543898 48.30474424 18.00287664 49.59274534 15.9375 50.875 C9.57880681 54.96740098 9.57880681 54.96740098 3.6875 59.6875 C0.93470914 61.87722 -0.60893776 62.57027392 -4.0625 62.875 C-4.0625 63.535 -4.0625 64.195 -4.0625 64.875 C-9.3425 64.875 -14.6225 64.875 -20.0625 64.875 C-20.0625 64.215 -20.0625 63.555 -20.0625 62.875 C-20.908125 62.83375 -21.75375 62.7925 -22.625 62.75 C-28.1481415 61.34410944 -31.26038565 58.30196807 -34.6171875 53.78125 C-38.88014274 46.55590213 -39.29645632 39.07199556 -38.0625 30.875 C-35.50445492 23.93945523 -31.39743945 19.52977276 -25.0625 15.875 C-24.4025 15.875 -23.7425 15.875 -23.0625 15.875 C-23.0625 15.215 -23.0625 14.555 -23.0625 13.875 C-21.67998642 12.89712454 -20.28858829 11.92942612 -18.85546875 11.02734375 C-16.94625325 9.80028803 -15.13653748 8.47486422 -13.3125 7.125 C-10.0625 4.875 -10.0625 4.875 -8.0625 4.875 C-8.0625 4.215 -8.0625 3.555 -8.0625 2.875 C-2.71310241 -0.16443045 -2.71310241 -0.16443045 0 0 Z " fill="#F6AA02" transform="translate(288.0625,128.125)"/>
<path d="M0 0 C0 0.66 0 1.32 0 2 C3.12290635 1.51421457 5.99580359 1.0013988 9 0 C13.13523019 0.36921698 15.5143254 0.67621693 19 3 C18.67 3.99 18.34 4.98 18 6 C16.96875 5.835 15.9375 5.67 14.875 5.5 C1.4431577 3.85139965 1.4431577 3.85139965 -11 8 C-14.13319151 10.71543265 -16.42824823 13.14206383 -18 17 C-18.66 17 -19.32 17 -20 17 C-21.12967713 21.09515067 -21.25771338 25.08662554 -21.3125 29.3125 C-21.34150391 30.04662109 -21.37050781 30.78074219 -21.40039062 31.53710938 C-21.47803053 38.26789226 -19.51577452 42.31498247 -14.8515625 47.29296875 C-10.70688627 50.81957922 -6.60778234 54.0848724 -2 57 C4.54375826 61.42900712 10.89671587 66.1170034 17.25 70.8125 C33.98917081 83.91342586 33.98917081 83.91342586 52 95 C52 95.66 52 96.32 52 97 C60.8172432 98.90643096 68.71244075 99.1214904 76.703125 94.6171875 C81.62920072 91.14882807 85.03929706 87.21379374 87.4375 81.6875 C88.63541467 73.83450381 89.06631083 66.0957934 85 59 C81.09745788 54.48126702 76.37500076 50.92488946 71.484375 47.52734375 C70.87335938 47.10259766 70.26234375 46.67785156 69.6328125 46.24023438 C68.36520137 45.36316319 67.0942888 44.49084652 65.8203125 43.62304688 C61.11036466 40.33109397 61.11036466 40.33109397 60 37 C62.25 36.3125 62.25 36.3125 65 36 C67.3125 37.3125 67.3125 37.3125 69 39 C69 39.66 69 40.32 69 41 C70.485 41.495 70.485 41.495 72 42 C73 43 74 44 75 45 C77.09989652 46.17574711 77.09989652 46.17574711 79 47 C79 47.99 79 48.98 79 50 C79.99 50 80.98 50 82 50 C82.4021875 50.9590625 82.4021875 50.9590625 82.8125 51.9375 C83.88667752 54.33131686 83.88667752 54.33131686 87 55 C89.29075874 56.72487059 89.92578275 57.64024462 90.51171875 60.48046875 C90.56972656 61.37378906 90.62773437 62.26710937 90.6875 63.1875 C90.75324219 64.08855469 90.81898438 64.98960938 90.88671875 65.91796875 C90.94279297 66.94857422 90.94279297 66.94857422 91 68 C91.99 68 92.98 68 94 68 C94.44850562 79.04652719 93.03280218 85.60486833 86.40234375 94.49609375 C85.93957031 94.99238281 85.47679687 95.48867187 85 96 C84.34 96 83.68 96 83 96 C82.93619141 96.85271484 82.93619141 96.85271484 82.87109375 97.72265625 C81.57989216 101.09830883 78.96324633 102.50380128 76.0625 104.4375 C74.78708667 105.31673179 73.51238256 106.19699302 72.23828125 107.078125 C71.55459473 107.54669922 70.8709082 108.01527344 70.16650391 108.49804688 C66.31706223 111.16671548 62.53883396 113.93381901 58.75 116.6875 C53.45129302 120.52297951 48.13779293 124.32978433 42.7578125 128.05078125 C40.37874623 129.73230259 38.02682739 131.44242523 35.6796875 133.16796875 C34.89078125 133.74546875 34.101875 134.32296875 33.2890625 134.91796875 C31.72027342 136.06790638 30.15495627 137.22260099 28.59375 138.3828125 C17.84922736 146.24327906 9.46912427 149.0203882 -4 148 C-12.66840117 146.03421503 -18.83401214 140.93609301 -24.3125 134.125 C-29.1744177 125.1214487 -30.46416088 116.69695225 -27.75 106.75 C-23.23475713 93.49291705 -11.2872809 86.25045533 0 79 C2.41137777 77.39783669 4.70685825 75.77197317 7 74 C7 73.34 7 72.68 7 72 C5.53543675 70.69720054 5.53543675 70.69720054 3.59765625 69.42578125 C2.87594238 68.92618896 2.15422852 68.42659668 1.41064453 67.91186523 C0.63575684 67.38407471 -0.13913086 66.85628418 -0.9375 66.3125 C-2.50237754 65.22811284 -4.06618912 64.14218572 -5.62890625 63.0546875 C-6.38445801 62.5297168 -7.14000977 62.00474609 -7.91845703 61.46386719 C-18.04473298 54.34245614 -23.6149727 49.27072397 -27 37 C-28.44337234 26.7584242 -27.02901853 18.48906204 -21 10 C-15.18319224 3.53688027 -8.87249274 0 0 0 Z M8 80 C8 80.66 8 81.32 8 82 C7.01 82.309375 7.01 82.309375 6 82.625 C2.51340051 84.22302477 -0.22051539 86.30629215 -3.23046875 88.66015625 C-5 90 -5 90 -7 91 C-7 91.66 -7 92.32 -7 93 C-7.721875 93.226875 -8.44375 93.45375 -9.1875 93.6875 C-12.66357703 95.30966928 -14.47915908 97.10103294 -17 100 C-17.47050781 100.52078125 -17.94101563 101.0415625 -18.42578125 101.578125 C-22.65172387 107.05399431 -22.72904466 112.54892206 -22.48046875 119.30078125 C-21.45994638 127.15797377 -18.03093767 133.08378207 -11.78125 137.94921875 C-9.25454174 139.43975498 -6.90461202 139.85831161 -4 140 C-4 140.66 -4 141.32 -4 142 C1.28 142 6.56 142 12 142 C12 141.34 12 140.68 12 140 C12.804375 139.814375 13.60875 139.62875 14.4375 139.4375 C18.5525831 137.77702787 21.40517895 135.51075975 24.83203125 132.73828125 C28.48214158 129.81161621 32.42035724 127.36496026 36.375 124.875 C37.674375 123.946875 37.674375 123.946875 39 123 C39 122.34 39 121.68 39 121 C39.969375 120.731875 40.93875 120.46375 41.9375 120.1875 C42.948125 119.795625 43.95875 119.40375 45 119 C45.33 118.01 45.66 117.02 46 116 C47.65217611 115.29819068 49.32224598 114.63825048 51 114 C52.93094574 112.71804432 54.8263161 111.38128791 56.6875 110 C57.64011719 109.29875 58.59273438 108.5975 59.57421875 107.875 C62.01165021 106.07303509 62.01165021 106.07303509 64 104 C63.32195312 103.92523438 62.64390625 103.85046875 61.9453125 103.7734375 C49.95141736 102.0790091 41.83873593 95.32820216 32.5324707 88.05126953 C31.874646 87.54321777 31.21682129 87.03516602 30.5390625 86.51171875 C29.95334473 86.05240967 29.36762695 85.59310059 28.76416016 85.11987305 C27.0294584 83.8766867 27.0294584 83.8766867 24.84130859 83.53051758 C24.23367676 83.35544678 23.62604492 83.18037598 23 83 C22.505 81.515 22.505 81.515 22 80 C16.42203317 76.03670778 13.85113594 76.87939417 8 80 Z " fill="#2C1E09" transform="translate(272,51)"/>
<path d="M0 0 C-0.30697806 2.86512856 -0.83246438 3.8546099 -3.0390625 5.76953125 C-6.7201821 8.54251184 -10.44392299 11.24964811 -14.1875 13.9375 C-14.96472412 14.49800049 -15.74194824 15.05850098 -16.54272461 15.63598633 C-20.7365053 18.65942918 -24.93850928 21.67096002 -29.1484375 24.671875 C-29.97190674 25.26105713 -30.79537598 25.85023926 -31.64379883 26.45727539 C-33.23484696 27.5954361 -34.8283732 28.73014194 -36.42456055 29.86108398 C-37.14168213 30.37485596 -37.85880371 30.88862793 -38.59765625 31.41796875 C-39.23195557 31.86938232 -39.86625488 32.3207959 -40.51977539 32.78588867 C-42.14545374 33.95095575 -42.14545374 33.95095575 -43 36 C-41.081875 35.8453125 -41.081875 35.8453125 -39.125 35.6875 C-28.87508325 35.73554648 -20.8019661 43.10783367 -13 49 C-11.04403889 50.41994015 -9.0857504 51.83668059 -7.125 53.25 C-4.46990736 55.16800722 -1.93924721 57.05412865 0.5078125 59.234375 C2.8514074 61.16175773 2.8514074 61.16175773 5.5546875 61.44921875 C8.60539055 60.88878608 9.81709106 59.87769527 12.125 57.8125 C17.96383086 52.85349297 24.26177248 48.68099138 30.66259766 44.48168945 C31.46616699 43.94503662 32.26973633 43.40838379 33.09765625 42.85546875 C33.82476807 42.37746826 34.55187988 41.89946777 35.30102539 41.40698242 C37.28966121 40.01262751 37.28966121 40.01262751 38 37 C38.66 37 39.32 37 40 37 C42.97933804 29.17923766 43.51787526 19.47778271 40.8125 11.5 C38.87793576 7.76428975 36.76645539 5.14030071 34 2 C34 1.34 34 0.68 34 0 C36.80976738 -0.2408372 38.82847639 -0.06003326 41.5 0.875 C47.08144563 5.61922879 49.52544744 12.99894607 50.203125 20.140625 C50.40362721 29.16322427 47.55760752 38.08850766 41.33984375 44.7890625 C34.46023627 51.23123829 26.51170221 56.40799723 18.77880859 61.75634766 C16.81820531 63.12710158 14.89636073 64.54164385 13 66 C13.5775 66.39832031 14.155 66.79664062 14.75 67.20703125 C15.86375 68.00173828 15.86375 68.00173828 17 68.8125 C17.7425 69.33457031 18.485 69.85664062 19.25 70.39453125 C19.8275 70.92433594 20.405 71.45414062 21 72 C21 72.99 21 73.98 21 75 C21.66 75.33 22.32 75.66 23 76 C23.625 78.5625 23.625 78.5625 24 81 C20.44194089 80.37162717 18.16293094 78.91370655 15.25 76.8125 C14.38117188 76.18601562 13.51234375 75.55953125 12.6171875 74.9140625 C11.75351563 74.28242188 10.88984375 73.65078125 10 73 C9.19820313 72.43023437 8.39640625 71.86046875 7.5703125 71.2734375 C6.48363281 70.48839844 6.48363281 70.48839844 5.375 69.6875 C4.39660156 68.98173828 4.39660156 68.98173828 3.3984375 68.26171875 C2.70621094 67.63716797 2.70621094 67.63716797 2 67 C2 66.34 2 65.68 2 65 C1.29617187 64.74863281 0.59234375 64.49726562 -0.1328125 64.23828125 C-5.5166188 61.9131224 -10.18245448 58.3112681 -15 55 C-15.77085937 54.48308594 -16.54171875 53.96617188 -17.3359375 53.43359375 C-18.9296293 52.34402895 -20.47238849 51.18042708 -22 50 C-22 49.34 -22 48.68 -22 48 C-22.9075 47.731875 -23.815 47.46375 -24.75 47.1875 C-27.75835378 46.08829381 -29.50358617 44.91391727 -32 43 C-40.03951229 40.25841516 -50.06137707 41.45964066 -58 44 C-58 44.66 -58 45.32 -58 46 C-58.928125 46.721875 -59.85625 47.44375 -60.8125 48.1875 C-65.45922671 52.02132417 -66.75020824 55.5603671 -67.3515625 61.43359375 C-67.66576056 69.64408517 -67.22791257 76.41283017 -62 83 C-58.85520039 85.96436029 -55.50985118 88.48826275 -52 91 C-51.175 91.67289062 -50.35 92.34578125 -49.5 93.0390625 C-47.08481914 94.93346999 -44.63004036 96.42432754 -42 98 C-39.65568527 99.66567817 -37.36244154 101.39877059 -35.0625 103.125 C-28.87252982 107.73846095 -22.5247157 111.92618171 -15.92578125 115.9296875 C-12.98073099 118.01363494 -11.09038995 120.08057463 -9 123 C-10.155 123.0825 -11.31 123.165 -12.5 123.25 C-13.1496875 123.29640625 -13.799375 123.3428125 -14.46875 123.390625 C-21.44457246 122.31410919 -27.19762714 117.60348439 -32.625 113.375 C-34.02632316 112.30335162 -35.42868665 111.23306239 -36.83203125 110.1640625 C-37.87738037 109.36597168 -37.87738037 109.36597168 -38.94384766 108.55175781 C-42.02556859 106.22601354 -45.16308546 103.98279061 -48.3125 101.75 C-48.88009033 101.34563721 -49.44768066 100.94127441 -50.0324707 100.5246582 C-52.77367766 98.57323 -55.52286307 96.63408943 -58.28125 94.70703125 C-59.2815625 93.99933594 -60.281875 93.29164063 -61.3125 92.5625 C-62.19550781 91.94503906 -63.07851562 91.32757813 -63.98828125 90.69140625 C-66 89 -66 89 -67 86 C-67.66 86 -68.32 86 -69 86 C-69.82011312 84.44148245 -70.63076213 82.87798284 -71.4375 81.3125 C-71.88996094 80.44238281 -72.34242187 79.57226562 -72.80859375 78.67578125 C-75.90591619 71.7194997 -76.03083153 63.61904308 -73.8125 56.375 C-69.19168606 44.34822398 -60.5488541 37.97564325 -50 31 C-47.40435376 29.20490683 -44.8267653 27.38456165 -42.25 25.5625 C-41.52208252 25.04824463 -40.79416504 24.53398926 -40.04418945 24.00415039 C-26.36910756 14.4179317 -26.36910756 14.4179317 -12.9855957 4.43579102 C-8.86874524 1.45888243 -5.06066564 0 0 0 Z " fill="#270D0C" transform="translate(172,58)"/>
<path d="M0 0 C2.9375 0.1875 2.9375 0.1875 6 1 C7.1875 3 7.1875 3 8 5 C8.99 5.33 9.98 5.66 11 6 C12 7 13 8 14 9 C16.09989652 10.17574711 16.09989652 10.17574711 18 11 C18 11.99 18 12.98 18 14 C18.99 14 19.98 14 21 14 C21.4021875 14.9590625 21.4021875 14.9590625 21.8125 15.9375 C22.88667752 18.33131686 22.88667752 18.33131686 26 19 C28.29075874 20.72487059 28.92578275 21.64024462 29.51171875 24.48046875 C29.56972656 25.37378906 29.62773437 26.26710938 29.6875 27.1875 C29.75324219 28.08855469 29.81898438 28.98960938 29.88671875 29.91796875 C29.94279297 30.94857422 29.94279297 30.94857422 30 32 C30.99 32 31.98 32 33 32 C33.44850562 43.04652719 32.03280218 49.60486833 25.40234375 58.49609375 C24.93957031 58.99238281 24.47679687 59.48867187 24 60 C23.34 60 22.68 60 22 60 C21.89727783 60.60900146 21.79455566 61.21800293 21.6887207 61.84545898 C20.53281093 65.46151845 17.21463735 67.03325316 14.1875 69.0625 C12.93082768 69.92815043 11.67431319 70.79403002 10.41796875 71.66015625 C9.82250244 72.06427734 9.22703613 72.46839844 8.61352539 72.88476562 C7.30075076 73.79212749 6.02328146 74.75040571 4.7578125 75.72265625 C2.61586309 77.27913949 0.31410062 78.12489761 -2.1328125 79.1015625 C-4.82653748 80.39770632 -7.03219288 82.20573538 -9.32421875 84.109375 C-11 85 -11 85 -13.20703125 84.640625 C-13.79871094 84.42921875 -14.39039063 84.2178125 -15 84 C-15 82.68 -15 81.36 -15 80 C-12.515625 77.96484375 -12.515625 77.96484375 -9.25 75.9375 C-4.00636165 72.63979225 -4.00636165 72.63979225 1 69 C-0.27875 68.79375 -1.5575 68.5875 -2.875 68.375 C-12.78024631 66.10216829 -20.57285454 59.21756398 -28.46704102 53.13916016 C-29.12502686 52.63433105 -29.7830127 52.12950195 -30.4609375 51.609375 C-31.04665527 51.15530273 -31.63237305 50.70123047 -32.23583984 50.23339844 C-34.08285104 48.94207536 -35.984171 47.99978404 -38 47 C-39.02019573 46.0206121 -40.02149805 45.02104551 -41 44 C-41.99 43.34 -42.98 42.68 -44 42 C-44 41.34 -44 40.68 -44 40 C-47.3 40.66 -50.6 41.32 -54 42 C-53.34 40.02 -52.68 38.04 -52 36 C-53.32 34.68 -54.64 33.36 -56 32 C-54.68 31.01 -53.36 30.02 -52 29 C-51.52804199 29.34144043 -51.05608398 29.68288086 -50.56982422 30.03466797 C-30.49441933 45.65030521 -30.49441933 45.65030521 -9 59 C-9 59.66 -9 60.32 -9 61 C-0.1827568 62.90643096 7.71244075 63.1214904 15.703125 58.6171875 C20.62920072 55.14882807 24.03929706 51.21379374 26.4375 45.6875 C27.63541467 37.83450381 28.06631083 30.0957934 24 23 C20.09745788 18.48126702 15.37500076 14.92488946 10.484375 11.52734375 C9.87335938 11.10259766 9.26234375 10.67785156 8.6328125 10.24023438 C7.36520137 9.36316319 6.0942888 8.49084652 4.8203125 7.62304688 C0.11036466 4.33109397 0.11036466 4.33109397 -1 1 C-0.67 0.67 -0.34 0.34 0 0 Z " fill="#142214" transform="translate(333,87)"/>
<path d="M0 0 C0.66 0.33 1.32 0.66 2 1 C0.9171875 1.804375 0.9171875 1.804375 -0.1875 2.625 C-2.35135433 4.45225477 -3.9358822 6.02404349 -5.6875 8.1875 C-8 11 -8 11 -10 12 C-7.03 12.495 -7.03 12.495 -4 13 C-6.63904371 14.41377341 -9.07120629 15.37240135 -12 16 C-12 16.66 -12 17.32 -12 18 C-13.3921875 19.0828125 -13.3921875 19.0828125 -14.8125 20.1875 C-19.45922671 24.02132417 -20.75020824 27.5603671 -21.3515625 33.43359375 C-21.66576056 41.64408517 -21.22791257 48.41283017 -16 55 C-12.85520039 57.96436029 -9.50985118 60.48826275 -6 63 C-4.7625 64.00933594 -4.7625 64.00933594 -3.5 65.0390625 C-1.08481914 66.93346999 1.36995964 68.42432754 4 70 C6.34431473 71.66567817 8.63755846 73.39877059 10.9375 75.125 C17.12747018 79.73846095 23.4752843 83.92618171 30.07421875 87.9296875 C33.01926901 90.01363494 34.90961005 92.08057463 37 95 C35.845 95.0825 34.69 95.165 33.5 95.25 C32.8503125 95.29640625 32.200625 95.3428125 31.53125 95.390625 C24.55542754 94.31410919 18.80237286 89.60348439 13.375 85.375 C11.97367684 84.30335162 10.57131335 83.23306239 9.16796875 82.1640625 C8.12261963 81.36597168 8.12261963 81.36597168 7.05615234 80.55175781 C3.97443141 78.22601354 0.83691454 75.98279061 -2.3125 73.75 C-2.88009033 73.34563721 -3.44768066 72.94127441 -4.0324707 72.5246582 C-6.77367766 70.57323 -9.52286307 68.63408943 -12.28125 66.70703125 C-13.2815625 65.99933594 -14.281875 65.29164063 -15.3125 64.5625 C-16.19550781 63.94503906 -17.07851562 63.32757813 -17.98828125 62.69140625 C-20 61 -20 61 -21 58 C-21.66 58 -22.32 58 -23 58 C-23.82011312 56.44148245 -24.63076213 54.87798284 -25.4375 53.3125 C-25.88996094 52.44238281 -26.34242187 51.57226562 -26.80859375 50.67578125 C-29.90591619 43.7194997 -30.03083153 35.61904308 -27.8125 28.375 C-23.2515877 16.50413237 -14.55472396 9.69323959 -4 3 C-2.65824027 2.01133494 -1.32103998 1.0161846 0 0 Z M-14 12 C-14.66 13.65 -15.32 15.3 -16 17 C-15.34 17 -14.68 17 -14 17 C-12.3553326 14.53673288 -12.3553326 14.53673288 -11 12 C-11.99 12 -12.98 12 -14 12 Z " fill="#161D28" transform="translate(126,86)"/>
<path d="M0 0 C6.9783273 5.2902601 14.1335281 10.31380239 21.3046875 15.33764648 C25.58896857 18.34738492 29.84727375 21.39335509 34.09960938 24.44799805 C36.21291051 25.96078435 38.33503463 27.46133944 40.46679688 28.94799805 C45.51142527 32.50415799 49.81985658 35.65472126 53.33007812 40.76049805 C53.70777344 41.30706055 54.08546875 41.85362305 54.47460938 42.41674805 C58.87179459 49.75056933 59.17758361 59.28739879 57.76757812 67.57299805 C56.10019068 73.6829452 52.11316205 79.61602751 47.33007812 83.76049805 C46.67007813 83.76049805 46.01007813 83.76049805 45.33007812 83.76049805 C45.33007812 83.10049805 45.33007812 82.44049805 45.33007812 81.76049805 C46.99674479 80.09383138 48.66341146 78.42716471 50.33007812 76.76049805 C54.57201676 70.98674824 55.39819705 67.07308478 55.89257812 60.01049805 C56.01826172 58.25479492 56.01826172 58.25479492 56.14648438 56.46362305 C56.20707031 55.5715918 56.26765625 54.67956055 56.33007812 53.76049805 C55.34007812 53.76049805 54.35007812 53.76049805 53.33007812 53.76049805 C53.20890625 53.1572168 53.08773437 52.55393555 52.96289062 51.93237305 C52.7953125 51.1331543 52.62773437 50.33393555 52.45507812 49.51049805 C52.29265625 48.7215918 52.13023437 47.93268555 51.96289062 47.11987305 C51.33102787 44.76403905 50.59481609 42.84497359 49.33007812 40.76049805 C48.00704096 40.38839384 46.67269878 40.05419631 45.33007812 39.76049805 C44.67007813 38.77049805 44.01007813 37.78049805 43.33007812 36.76049805 C41.84507812 36.26549805 41.84507812 36.26549805 40.33007812 35.76049805 C40.33007812 34.77049805 40.33007812 33.78049805 40.33007812 32.76049805 C39.27820313 32.48206055 39.27820313 32.48206055 38.20507812 32.19799805 C35.26484857 30.72788327 34.354118 29.72367473 32.39257812 27.19799805 C30.14094451 24.37906973 29.60089335 23.8357245 25.95507812 22.82299805 C25.08882813 22.80237305 24.22257812 22.78174805 23.33007812 22.76049805 C23.33007812 23.42049805 23.33007812 24.08049805 23.33007812 24.76049805 C19.7850162 23.13989831 16.73986556 21.03420752 13.58007812 18.76049805 C12.59523438 18.05924805 11.61039062 17.35799805 10.59570312 16.63549805 C9.84804688 16.01674805 9.10039062 15.39799805 8.33007812 14.76049805 C8.33007812 14.10049805 8.33007812 13.44049805 8.33007812 12.76049805 C7.7603125 12.65608398 7.19054687 12.55166992 6.60351562 12.4440918 C3.93366306 11.64130108 2.21206288 10.45988972 -0.04492188 8.82299805 C-0.91246094 8.20038086 -1.78 7.57776367 -2.67382812 6.9362793 C-3.66253906 6.21827148 -4.65125 5.50026367 -5.66992188 4.76049805 C-7.48734826 3.45132208 -9.30667439 2.14485804 -11.12744141 0.84033203 C-12.33980568 -0.02881092 -13.55049451 -0.90029699 -14.75927734 -1.77441406 C-17.31910335 -3.61522475 -19.87642817 -5.36224465 -22.58789062 -6.97387695 C-23.27496094 -7.3915332 -23.96203125 -7.80918945 -24.66992188 -8.23950195 C-24.66992188 -8.56950195 -24.66992188 -8.89950195 -24.66992188 -9.23950195 C-23.01992188 -9.23950195 -21.36992187 -9.23950195 -19.66992188 -9.23950195 C-19.33992188 -9.89950195 -19.00992188 -10.55950195 -18.66992188 -11.23950195 C-22.29992187 -11.89950195 -25.92992187 -12.55950195 -29.66992188 -13.23950195 C-29.66992188 -12.90950195 -29.66992188 -12.57950195 -29.66992188 -12.23950195 C-32.30992187 -12.23950195 -34.94992187 -12.23950195 -37.66992188 -12.23950195 C-37.66992188 -12.89950195 -37.66992188 -13.55950195 -37.66992188 -14.23950195 C-47.38702249 -11.85466476 -54.55146751 -9.36671225 -60.26367188 -0.8684082 C-64.31352012 6.7025581 -64.72991454 14.32704761 -63.66992188 22.76049805 C-62.80091063 25.4142142 -61.81934582 27.69838502 -60.44726562 30.1237793 C-60.06248047 30.93395508 -60.06248047 30.93395508 -59.66992188 31.76049805 C-59.99992188 32.42049805 -60.32992187 33.08049805 -60.66992188 33.76049805 C-66.05237821 25.55865982 -68.11064069 17.83881224 -66.13085938 8.11206055 C-63.4905151 -1.54985861 -58.09092822 -8.31358279 -49.54882812 -13.53637695 C-30.50495161 -23.47231253 -14.973983 -11.36456661 0 0 Z " fill="#707771" transform="translate(309.669921875,65.239501953125)"/>
<path d="M0 0 C3.0483248 0.32660623 4.00507689 1.00522194 6.1875 3.25 C9.5424253 8.34023149 9.55169617 14.04748866 9 20 C7.72745129 25.3271522 5.59422091 30.18216116 3 35 C2.34 35 1.68 35 1 35 C0.75765625 35.59554687 0.5153125 36.19109375 0.265625 36.8046875 C-1.24310151 39.42167607 -2.72738679 40.48615944 -5.25 42.125 C-5.99765625 42.62257812 -6.7453125 43.12015625 -7.515625 43.6328125 C-15.35015622 47.94426836 -24.04963421 48.08806689 -32.734375 46.5 C-37.68199185 45.03895878 -40.60324825 42.97905205 -44 39 C-44.763125 38.278125 -45.52625 37.55625 -46.3125 36.8125 C-48 35 -48 35 -48 33 C-48.99 32.67 -49.98 32.34 -51 32 C-47.09090118 30.69696706 -45.77097 31.40458962 -42 33 C-40.20878663 34.22972927 -38.49835765 35.51331768 -36.80859375 36.87890625 C-31.01085617 40.47275222 -22.50218921 39.58917217 -16 39 C-9.71296082 37.41124821 -5.73123466 34.28973743 -1.875 29.125 C3.23208606 20.26552442 1.58893077 9.73220099 0 0 Z " fill="#3C4456" transform="translate(213,152)"/>
<path d="M0 0 C-0.30697806 2.86512856 -0.83246438 3.8546099 -3.0390625 5.76953125 C-6.7201821 8.54251184 -10.44392299 11.24964811 -14.1875 13.9375 C-14.96472412 14.49800049 -15.74194824 15.05850098 -16.54272461 15.63598633 C-20.7365053 18.65942918 -24.93850928 21.67096002 -29.1484375 24.671875 C-30.38364136 25.55564819 -30.38364136 25.55564819 -31.64379883 26.45727539 C-33.23484696 27.5954361 -34.8283732 28.73014194 -36.42456055 29.86108398 C-37.14168213 30.37485596 -37.85880371 30.88862793 -38.59765625 31.41796875 C-39.23195557 31.86938232 -39.86625488 32.3207959 -40.51977539 32.78588867 C-42.14545374 33.95095575 -42.14545374 33.95095575 -43 36 C-41.02 36.33 -39.04 36.66 -37 37 C-37 37.33 -37 37.66 -37 38 C-35.02 38.33 -33.04 38.66 -31 39 C-31 39.66 -31 40.32 -31 41 C-29.88625 41.226875 -28.7725 41.45375 -27.625 41.6875 C-24 43 -24 43 -22.5625 45.625 C-22.376875 46.40875 -22.19125 47.1925 -22 48 C-25.9690459 46.82732735 -28.73926951 45.49989338 -32 43 C-34.92801627 42.08253919 -37.70905359 41.8207476 -40.765625 41.68359375 C-41.65507812 41.64169922 -42.54453125 41.59980469 -43.4609375 41.55664062 C-44.84152344 41.49766602 -44.84152344 41.49766602 -46.25 41.4375 C-47.18585938 41.39431641 -48.12171875 41.35113281 -49.0859375 41.30664062 C-51.39048641 41.2008195 -53.69513839 41.09873443 -56 41 C-56.33 40.34 -56.66 39.68 -57 39 C-55.88625 38.4121875 -55.88625 38.4121875 -54.75 37.8125 C-51.75617807 35.83929919 -50.16328053 33.83930569 -48 31 C-44.47105552 27.05588558 -40.5686912 24.20090533 -36.23046875 21.234375 C-31.98564145 18.29841222 -27.80632474 15.27544678 -23.625 12.25 C-22.83971924 11.6828125 -22.05443848 11.115625 -21.24536133 10.53125 C-17.07304555 7.52460556 -17.07304555 7.52460556 -12.97021484 4.42480469 C-8.85933486 1.45193039 -5.05232869 0 0 0 Z M-60 40 C-59.01 40.33 -58.02 40.66 -57 41 C-58.375 43 -58.375 43 -60 45 C-60.66 45 -61.32 45 -62 45 C-61.34 43.35 -60.68 41.7 -60 40 Z " fill="#2A1B18" transform="translate(172,58)"/>
<path d="M0 0 C0 0.66 0 1.32 0 2 C3.12290635 1.51421457 5.99580359 1.0013988 9 0 C13.13523019 0.36921698 15.5143254 0.67621693 19 3 C18.67 3.99 18.34 4.98 18 6 C16.96875 5.835 15.9375 5.67 14.875 5.5 C1.4431577 3.85139965 1.4431577 3.85139965 -11 8 C-14.13319151 10.71543265 -16.42824823 13.14206383 -18 17 C-18.66 17 -19.32 17 -20 17 C-21.37350414 21.60861718 -21.36898582 26.3276038 -21.62109375 31.1015625 C-22 34 -22 34 -24 36 C-24.66 36.99 -25.32 37.98 -26 39 C-28.85317029 33.29365943 -27.7906172 24.5498134 -25.94140625 18.5859375 C-22.41422358 11.0345166 -17.79531276 5.51183049 -10.375 1.625 C-6.94334906 0.72193396 -3.55871306 0 0 0 Z " fill="#0A1A0D" transform="translate(272,51)"/>
<path d="M0 0 C5.66730488 2.96245482 10.59533931 6.62867601 15.6796875 10.49609375 C23.68242571 16.56639338 31.89334443 22.38968136 40.328125 27.84375 C42 29 42 29 44 31 C37.17444738 30.75709777 32.46604669 30.4193569 27 26 C25.31778462 24.82572628 23.62978594 23.6597136 21.9375 22.5 C18.52559374 20.10756723 15.22628404 17.63968694 12 15 C11.01 14.34 10.02 13.68 9 13 C9 12.34 9 11.68 9 11 C5.7 11.66 2.4 12.32 -1 13 C-0.34 11.02 0.32 9.04 1 7 C-0.32 5.68 -1.64 4.36 -3 3 C-2.01 2.01 -1.02 1.02 0 0 Z " fill="#202A0D" transform="translate(280,116)"/>
<path d="M0 0 C2.1875 -0.375 2.1875 -0.375 5 0 C9.93582264 4.71645274 9.93582264 4.71645274 10.125 8.5 C10.08375 9.325 10.0425 10.15 10 11 C10.495 11.825 10.99 12.65 11.5 13.5 C14.04182969 19.43093594 14.04503102 26.86490694 12 33 C11.01 33.495 11.01 33.495 10 34 C9.9071875 35.546875 9.9071875 35.546875 9.8125 37.125 C8.46987591 43.52828414 4.33812357 46.39626692 -0.91015625 49.99609375 C-3.58216967 51.7096301 -6.2721729 53.37711552 -9 55 C-9.66 54.34 -10.32 53.68 -11 53 C-10.67 52.34 -10.34 51.68 -10 51 C-9.01 51 -8.02 51 -7 51 C-6.9278125 50.23945312 -6.855625 49.47890625 -6.78125 48.6953125 C-5.77915726 45.23809256 -4.56474013 44.64983368 -1.5 42.875 C2.26617458 40.82093378 2.26617458 40.82093378 4 37 C4.66 37 5.32 37 6 37 C8.97933804 29.17923766 9.51787526 19.47778271 6.8125 11.5 C4.87793576 7.76428975 2.76645539 5.14030071 0 2 C0 1.34 0 0.68 0 0 Z " fill="#1C1210" transform="translate(206,58)"/>
<path d="M0 0 C0.33 0.66 0.66 1.32 1 2 C0.28972656 2.48210937 -0.42054688 2.96421875 -1.15234375 3.4609375 C-2.07144531 4.09257813 -2.99054688 4.72421875 -3.9375 5.375 C-4.85402344 6.00148438 -5.77054688 6.62796875 -6.71484375 7.2734375 C-9.08387164 8.79771071 -9.08387164 8.79771071 -10 11 C-7.03 11.495 -7.03 11.495 -4 12 C-4 12.33 -4 12.66 -4 13 C-1.03 13.495 -1.03 13.495 2 14 C2 14.66 2 15.32 2 16 C3.11375 16.226875 4.2275 16.45375 5.375 16.6875 C9 18 9 18 10.4375 20.625 C10.7159375 21.800625 10.7159375 21.800625 11 23 C7.0309541 21.82732735 4.26073049 20.49989338 1 18 C-1.92801627 17.08253919 -4.70905359 16.8207476 -7.765625 16.68359375 C-9.09980469 16.62075195 -9.09980469 16.62075195 -10.4609375 16.55664062 C-11.38132812 16.51732422 -12.30171875 16.47800781 -13.25 16.4375 C-14.65378906 16.37272461 -14.65378906 16.37272461 -16.0859375 16.30664062 C-18.39048641 16.2008195 -20.69513839 16.09873443 -23 16 C-23.33 15.34 -23.66 14.68 -24 14 C-23.2575 13.608125 -22.515 13.21625 -21.75 12.8125 C-18.92768071 11.17173276 -18.92768071 11.17173276 -17.25 8.6875 C-12.82837853 3.4061188 -7.19111312 -1.1063251 0 0 Z M-27 15 C-26.01 15.33 -25.02 15.66 -24 16 C-25.375 18 -25.375 18 -27 20 C-27.66 20 -28.32 20 -29 20 C-28.34 18.35 -27.68 16.7 -27 15 Z " fill="#161416" transform="translate(139,83)"/>
<path d="M0 0 C2.67267796 1.28290011 5.12965511 2.67996636 7.57421875 4.35546875 C8.23776367 4.80970215 8.90130859 5.26393555 9.58496094 5.73193359 C10.27879883 6.21227051 10.97263672 6.69260742 11.6875 7.1875 C12.40067383 7.68072754 13.11384766 8.17395508 13.84863281 8.68212891 C29.35801432 19.4695773 29.35801432 19.4695773 33 25 C33.35835938 25.5259375 33.71671875 26.051875 34.0859375 26.59375 C38.50189725 33.98500178 38.85936254 43.4572253 37.4375 51.8125 C35.77011255 57.92244715 31.78308393 63.85552946 27 68 C26.34 68 25.68 68 25 68 C25 67.34 25 66.68 25 66 C26.66666667 64.33333333 28.33333333 62.66666667 30 61 C34.24193863 55.22625019 35.06811893 51.31258674 35.5625 44.25 C35.64628906 43.07953125 35.73007812 41.9090625 35.81640625 40.703125 C35.90728516 39.36507812 35.90728516 39.36507812 36 38 C35.01 38 34.02 38 33 38 C32.81824219 37.09507813 32.81824219 37.09507813 32.6328125 36.171875 C32.38144531 34.97304687 32.38144531 34.97304687 32.125 33.75 C31.96257812 32.96109375 31.80015625 32.1721875 31.6328125 31.359375 C31.00094974 29.00354101 30.26473797 27.08447554 29 25 C27.67696283 24.6278958 26.34262065 24.29369827 25 24 C24.34 23.01 23.68 22.02 23 21 C22.01 20.67 21.02 20.34 20 20 C20 19.01 20 18.02 20 17 C19.29875 16.814375 18.5975 16.62875 17.875 16.4375 C15.02273879 15.0113694 14.15867147 14.16516251 12.25 11.75 C9.25753846 7.99767258 5.8451624 5.72357141 1.7578125 3.26171875 C1.17773438 2.84535156 0.59765625 2.42898437 0 2 C0 1.34 0 0.68 0 0 Z " fill="#7E7D7D" transform="translate(330,81)"/>
<path d="M0 0 C2 2 2 2 3.1875 5.625 C6.77851474 15.45584727 15.43333985 20.86935894 23.9375 26.21875 C27.91412602 28.74237805 27.91412602 28.74237805 29 32 C20.69510049 31.96946728 16.12482284 30.53733984 10 25 C9.28585937 24.45988281 8.57171875 23.91976562 7.8359375 23.36328125 C2.67883562 19.34074178 -0.1060373 15.57389643 -1 9 C-0.93374621 5.88133924 -0.53936606 3.08909655 0 0 Z " fill="#0F1D15" transform="translate(248,83)"/>
<path d="M0 0 C0.66 0 1.32 0 2 0 C2.82011312 1.55851755 3.63076213 3.12201716 4.4375 4.6875 C4.88996094 5.55761719 5.34242188 6.42773438 5.80859375 7.32421875 C9.22486088 14.9968187 8.8235642 23.1367131 5.8984375 30.87890625 C0.32921864 44.02710557 -11.75201216 50.85927587 -23.12817383 58.68481445 C-25.1156148 60.08123346 -27.05682196 61.54261647 -29 63 C-26.36 64.98 -23.72 66.96 -21 69 C-24.44360632 69 -25.74795392 68.20408468 -28.6875 66.5 C-29.49574219 66.0359375 -30.30398437 65.571875 -31.13671875 65.09375 C-31.75160156 64.7328125 -32.36648437 64.371875 -33 64 C-33 60 -33 60 -30.875 57.8125 C-28 56 -28 56 -25.25 55.67578125 C-21.15785541 54.82489061 -18.3966426 52.84077494 -15.125 50.375 C-14.51438721 49.92278076 -13.90377441 49.47056152 -13.2746582 49.00463867 C-11.5059593 47.68298129 -9.75238547 46.34316746 -8 45 C-7.12472656 44.34902344 -6.24945313 43.69804688 -5.34765625 43.02734375 C-1.94029229 40.32240202 0.31875176 38.48618988 1 34.0625 C1 33.051875 1 32.04125 1 31 C1.99 30.67 2.98 30.34 4 30 C4 24.72 4 19.44 4 14 C3.34 14.33 2.68 14.66 2 15 C2.020625 14.05125 2.04125 13.1025 2.0625 12.125 C2.22551826 9.09333717 2.22551826 9.09333717 1 7 C0.63858045 4.67085177 0.30300475 2.33746522 0 0 Z " fill="#BABABA" transform="translate(214,61)"/>
<path d="M0 0 C-0.875 3.875 -0.875 3.875 -2 5 C-0.68 5.99 0.64 6.98 2 8 C1.34 9.65 0.68 11.3 0 13 C4.455 12.505 4.455 12.505 9 12 C6.01353231 13.99097846 3.40312738 14.94124926 0 16 C0 16.66 0 17.32 0 18 C-2.01171875 19.65625 -2.01171875 19.65625 -4.6875 21.5 C-5.55761719 22.1084375 -6.42773438 22.716875 -7.32421875 23.34375 C-9.8340892 24.89730485 -12.22958361 26.00165175 -15 27 C-15 27.66 -15 28.32 -15 29 C-15.66 29 -16.32 29 -17 29 C-17 27.35 -17 25.7 -17 24 C-18.65 24.66 -20.3 25.32 -22 26 C-16.65219558 20.11741514 -10.04681504 15.93464117 -3.375 11.6875 C-2.59125 11.130625 -1.8075 10.57375 -1 10 C-1 9.34 -1 8.68 -1 8 C-2.782129 6.55925285 -4.62660276 5.19489351 -6.5 3.875 C-7.5209375 3.15054688 -8.541875 2.42609375 -9.59375 1.6796875 C-10.3878125 1.12539062 -11.181875 0.57109375 -12 0 C-11.38125 -0.15082031 -10.7625 -0.30164063 -10.125 -0.45703125 C-8.00418549 -0.96842838 -8.00418549 -0.96842838 -6 -1.6875 C-3.41083122 -2.09205762 -2.19739621 -1.33413341 0 0 Z " fill="#1F1706" transform="translate(280,115)"/>
<path d="M0 0 C0.66 0.33 1.32 0.66 2 1 C0.9171875 1.804375 0.9171875 1.804375 -0.1875 2.625 C-2.35135433 4.45225477 -3.9358822 6.02404349 -5.6875 8.1875 C-8 11 -8 11 -10 12 C-7.03 12.495 -7.03 12.495 -4 13 C-6.63904371 14.41377341 -9.07120629 15.37240135 -12 16 C-12 16.66 -12 17.32 -12 18 C-17.35714286 23 -17.35714286 23 -21 23 C-21.144375 23.94875 -21.28875 24.8975 -21.4375 25.875 C-22 29 -22 29 -23 31 C-23.66 31 -24.32 31 -25 31 C-25 31.66 -25 32.32 -25 33 C-25.66 33 -26.32 33 -27 33 C-26.67 38.61 -26.34 44.22 -26 50 C-29.32989881 46.67010119 -29.09541498 42.77512517 -29.25 38.25 C-29.14036864 30.03982954 -26.28940935 22.31355467 -21 16 C-15.72496971 11.13569726 -10.05495113 6.83972511 -4 3 C-2.65824027 2.01133494 -1.32103998 1.0161846 0 0 Z M-14 12 C-14.66 13.65 -15.32 15.3 -16 17 C-15.34 17 -14.68 17 -14 17 C-12.3553326 14.53673288 -12.3553326 14.53673288 -11 12 C-11.99 12 -12.98 12 -14 12 Z " fill="#474C58" transform="translate(126,86)"/>
<path d="M0 0 C0.99 0.495 0.99 0.495 2 1 C-0.53962217 2.91938739 -3.08206466 4.83500491 -5.625 6.75 C-6.33785156 7.28882813 -7.05070312 7.82765625 -7.78515625 8.3828125 C-11.78096796 11.38883599 -15.83521988 14.2306359 -20 17 C-21.41869837 18.02486304 -22.83234147 19.05674301 -24.2421875 20.09375 C-24.99886719 20.64933594 -25.75554687 21.20492187 -26.53515625 21.77734375 C-28.08999018 22.92205454 -29.64210049 24.07047439 -31.19140625 25.22265625 C-42.00381237 33.13462066 -50.41979775 36.09400126 -64 35 C-67.55467102 34.05655901 -70.83540884 32.88910235 -74 31 C-74.33 30.34 -74.66 29.68 -75 29 C-73.02 29 -71.04 29 -69 29 C-68.67 29.99 -68.34 30.98 -68 32 C-64.62516587 32.08767555 -61.25062785 32.14061628 -57.875 32.1875 C-56.92367188 32.21263672 -55.97234375 32.23777344 -54.9921875 32.26367188 C-49.48317899 32.32105738 -45.81643012 31.96975504 -41 29 C-40.071875 28.731875 -39.14375 28.46375 -38.1875 28.1875 C-37.465625 27.795625 -36.74375 27.40375 -36 27 C-35.938125 26.071875 -35.87625 25.14375 -35.8125 24.1875 C-35 21 -35 21 -32.90234375 19.56640625 C-29.44979669 17.8528446 -25.95601686 16.36769879 -22.359375 14.984375 C-19.79993 14.0049618 -19.79993 14.0049618 -17 12 C-17.495 10.02 -17.495 10.02 -18 8 C-18 8.66 -18 9.32 -18 10 C-18.99 10 -19.98 10 -21 10 C-21 9.34 -21 8.68 -21 8 C-15.25 5 -15.25 5 -13 5 C-13 5.66 -13 6.32 -13 7 C-7.55791766 6.65986985 -4.06331802 3.29703472 0 0 Z " fill="#6A6C6A" transform="translate(332,164)"/>
<path d="M0 0 C1 2 1 2 0.875 4.375 C-0.27913892 7.83741675 -1.99541235 9.02136911 -5 11 C-5.66 11 -6.32 11 -7 11 C-7.268125 11.721875 -7.53625 12.44375 -7.8125 13.1875 C-9 16 -9 16 -10.55859375 18.078125 C-12.61912501 22.25502847 -12.36184421 25.97339227 -12.25 30.5625 C-12.24484375 31.41263672 -12.2396875 32.26277344 -12.234375 33.13867188 C-12.18668703 36.93880664 -12.03699397 40.32532148 -11 44 C-12.65 43.67 -14.3 43.34 -16 43 C-17.87420499 33.00927826 -18.58504976 21.35695107 -14 12 C-10.01423301 6.93907429 -5.59871987 3.16535399 0 0 Z " fill="#191512" transform="translate(263,138)"/>
<path d="M0 0 C2.8125 -0.3125 2.8125 -0.3125 6 0 C7.03789581 1.64333504 8.03567924 3.31243867 9 5 C12.07561246 6.35980881 12.07561246 6.35980881 15 7 C15 7.66 15 8.32 15 9 C17.475 9.495 17.475 9.495 20 10 C20 10.66 20 11.32 20 12 C20.66 12 21.32 12 22 12 C22 12.66 22 13.32 22 14 C24.97 14 27.94 14 31 14 C31 15.32 31 16.64 31 18 C31.57234375 18.11472656 32.1446875 18.22945312 32.734375 18.34765625 C35.21471656 19.06182356 37.06368697 20.07307872 39.25 21.4375 C40.30960938 22.08525391 40.30960938 22.08525391 41.390625 22.74609375 C41.92171875 23.15988281 42.4528125 23.57367188 43 24 C43 24.66 43 25.32 43 26 C43.66 26.33 44.32 26.66 45 27 C45.625 29.5625 45.625 29.5625 46 32 C42.44194089 31.37162717 40.16293094 29.91370655 37.25 27.8125 C36.38117188 27.18601563 35.51234375 26.55953125 34.6171875 25.9140625 C33.75351563 25.28242188 32.88984375 24.65078125 32 24 C31.19820312 23.43023437 30.39640625 22.86046875 29.5703125 22.2734375 C28.84585938 21.75007813 28.12140625 21.22671875 27.375 20.6875 C26.72273438 20.21699219 26.07046875 19.74648437 25.3984375 19.26171875 C24.93695313 18.84535156 24.47546875 18.42898437 24 18 C24 17.34 24 16.68 24 16 C23.29617187 15.74863281 22.59234375 15.49726562 21.8671875 15.23828125 C18.67038035 13.85764383 16.00478342 12.14350874 13.125 10.1875 C12.08085937 9.47851562 11.03671875 8.76953125 9.9609375 8.0390625 C8.98382813 7.36617188 8.00671875 6.69328125 7 6 C6.22914063 5.47148438 5.45828125 4.94296875 4.6640625 4.3984375 C3.08665996 3.29747491 1.53889672 2.15417254 0 1 C0 0.67 0 0.34 0 0 Z " fill="#0E1827" transform="translate(150,107)"/>
<path d="M0 0 C5.84360574 0.24866407 9.17261284 2.11945546 13.88671875 5.52734375 C18.62653019 8.83031771 22.18381233 9.28715366 27.9375 9.1875 C28.64068359 9.18685547 29.34386719 9.18621094 30.06835938 9.18554688 C33.82990266 9.15381877 37.34328359 8.8945001 41 8 C41 8.99 41 9.98 41 11 C40.34 11 39.68 11 39 11 C39 11.66 39 12.32 39 13 C34.99514647 14.33495118 31.31797418 14.18416695 27.125 14.1875 C26.32191406 14.19974609 25.51882812 14.21199219 24.69140625 14.22460938 C20.39010811 14.23523861 16.85514287 14.15434454 13 12 C12.67 11.34 12.34 10.68 12 10 C10.8553125 9.566875 10.8553125 9.566875 9.6875 9.125 C6.68159695 7.866715 5.0896245 6.476592 3 4 C3 3.34 3 2.68 3 2 C2.01 1.67 1.02 1.34 0 1 C0 0.67 0 0.34 0 0 Z " fill="#18191B" transform="translate(162,183)"/>
<path d="M0 0 C0.66 0.33 1.32 0.66 2 1 C-14.04039818 13.4780765 -14.04039818 13.4780765 -21.88671875 16.97265625 C-24.11954055 18.05811306 -25.91767531 19.35446777 -27.875 20.875 C-31 23 -31 23 -33.1953125 22.6328125 C-34.08863281 22.31957031 -34.08863281 22.31957031 -35 22 C-35 20.68 -35 19.36 -35 18 C-29.34057088 13.07471686 -23.23212923 9.76785381 -16 8 C-15.67 7.01 -15.34 6.02 -15 5 C-14.01 5.33 -13.02 5.66 -12 6 C-12.66 6 -13.32 6 -14 6 C-14 7.32 -14 8.64 -14 10 C-10.01010669 7.48536631 -10.01010669 7.48536631 -6.4375 4.4375 C-4.49490015 2.49490015 -2.43718889 1.24984046 0 0 Z " fill="#676663" transform="translate(353,149)"/>
<path d="M0 0 C1.9375 1.6875 1.9375 1.6875 3 3 C2.67 3.33 2.34 3.66 2 4 C0.80375 3.855625 -0.3925 3.71125 -1.625 3.5625 C-11.33580631 2.39720324 -21.04462108 1.61369196 -30 6 C-30.33 5.01 -30.66 4.02 -31 3 C-24.96009019 -6.05986472 -8.48608428 -5.09165057 0 0 Z " fill="#1E1D1E" transform="translate(204,53)"/>
<path d="M0 0 C0.7734375 0.433125 0.7734375 0.433125 1.5625 0.875 C5.61485762 2.7453189 9.89315784 3.76586031 14.25 4.6875 C21.82106805 7.33737382 28.23599658 11.51783141 33 18 C31.845 18.0825 30.69 18.165 29.5 18.25 C28.8503125 18.29640625 28.200625 18.3428125 27.53125 18.390625 C20.27887388 17.27143115 14.23576641 12.22115563 8.5625 7.875 C7.84384766 7.33746094 7.12519531 6.79992187 6.38476562 6.24609375 C1.1352821 2.27056421 1.1352821 2.27056421 0 0 Z " fill="#66696E" transform="translate(130,163)"/>
<path d="M0 0 C1.8125 0.0625 1.8125 0.0625 4 1 C8.13774098 7.35438794 7.4956756 14.65065608 7 22 C6.67 22.66 6.34 23.32 6 24 C5.34 24 4.68 24 4 24 C3.7525 24.61875 3.505 25.2375 3.25 25.875 C1.79371361 28.35068687 0.62187494 28.95125002 -2 30 C-0.125 25.25 -0.125 25.25 1 23 C1.32011899 15.29831378 1.2435765 7.61690607 0 0 Z " fill="#121117" transform="translate(213,152)"/>
<path d="M0 0 C0.33 0.99 0.66 1.98 1 3 C1.66 3.66 2.32 4.32 3 5 C2.34 6.32 1.68 7.64 1 9 C0.34 9 -0.32 9 -1 9 C-2.37350414 13.60861718 -2.36898582 18.3276038 -2.62109375 23.1015625 C-3 26 -3 26 -5 28 C-5.66 28.99 -6.32 29.98 -7 31 C-9.40010858 26.19978284 -8.76911306 19.27557449 -8 14 C-6.1681668 8.82013935 -3.91664085 3.91664085 0 0 Z " fill="#162119" transform="translate(253,59)"/>
<path d="M0 0 C7.84571027 4.10116673 15.93916789 9.50328612 22 16 C19.6875 16.6875 19.6875 16.6875 17 17 C15.5 15.6875 15.5 15.6875 14 14 C9.19010826 11.0849141 4.30901867 12.23715072 -1 13 C-0.34 11.02 0.32 9.04 1 7 C-0.32 5.68 -1.64 4.36 -3 3 C-2.01 2.01 -1.02 1.02 0 0 Z " fill="#0A1B0C" transform="translate(280,116)"/>
<path d="M0 0 C0.66 0 1.32 0 2 0 C1.51273437 1.50046875 1.51273437 1.50046875 1.015625 3.03125 C-0.08311251 6.89041993 -0.26662094 10.47773311 -0.25 14.5 C-0.25515625 15.7478125 -0.2603125 16.995625 -0.265625 18.28125 C0.01407445 22.19704225 0.79365824 25.2852333 2 29 C0.68 29.99 -0.64 30.98 -2 32 C-2.33 30.35 -2.66 28.7 -3 27 C-3.66 27 -4.32 27 -5 27 C-6.13480527 23.39006828 -6.10015767 20.0157673 -6.0625 16.25 C-6.05347656 15.07953125 -6.04445313 13.9090625 -6.03515625 12.703125 C-6.02355469 11.81109375 -6.01195313 10.9190625 -6 10 C-5.34 10 -4.68 10 -4 10 C-4 9.34 -4 8.68 -4 8 C-3.34 8 -2.68 8 -2 8 C-1.34 5.36 -0.68 2.72 0 0 Z " fill="#0F0D11" transform="translate(105,109)"/>
<path d="M0 0 C0.66 0.33 1.32 0.66 2 1 C1.63926776 3.61530876 1.20250273 4.79749727 -0.6875 6.6875 C-3.43827539 8.24875089 -5.89761479 8.51740675 -9 9 C-9.33 9.66 -9.66 10.32 -10 11 C-12.3140622 11.73075648 -14.64828869 12.40138258 -17 13 C-16.979375 13.886875 -16.95875 14.77375 -16.9375 15.6875 C-18.20383987 19.63550078 -19.04361474 19.95009254 -22.5625 21.875 C-24.03166455 22.6038523 -25.50811697 23.31885745 -27 24 C-27.66 23.34 -28.32 22.68 -29 22 C-28.34 21.67 -27.68 21.34 -27 21 C-26.34 21.33 -25.68 21.66 -25 22 C-24.67 21.01 -24.34 20.02 -24 19 C-23.34 19 -22.68 19 -22 19 C-21.9175 18.443125 -21.835 17.88625 -21.75 17.3125 C-19.67784592 10.92335824 -14.46832105 8.17621043 -9 5 C-8.0925 4.401875 -7.185 3.80375 -6.25 3.1875 C-4 2 -4 2 0 2 C0 1.34 0 0.68 0 0 Z " fill="#191914" transform="translate(314,172)"/>
<path d="M0 0 C-0.30118453 2.81105557 -0.81272252 3.83650378 -2.96875 5.71875 C-7.04357597 8.78537161 -11.17044021 11.77503993 -15.3125 14.75 C-16.14845703 15.35199219 -16.98441406 15.95398438 -17.84570312 16.57421875 C-19.89629892 18.05064773 -21.94775032 19.52587125 -24 21 C-24.66 20.67 -25.32 20.34 -26 20 C-25.505 18.515 -25.505 18.515 -25 17 C-24.34 17 -23.68 17 -23 17 C-22.67 16.01 -22.34 15.02 -22 14 C-21.13375 13.608125 -20.2675 13.21625 -19.375 12.8125 C-15.45581979 10.70775507 -13.47585655 8.24419816 -10.6640625 4.875 C-7.31349629 1.09971413 -5.01502892 0 0 0 Z " fill="#22120F" transform="translate(172,58)"/>
<path d="M0 0 C0.66 0 1.32 0 2 0 C2.82011312 1.55851755 3.63076213 3.12201716 4.4375 4.6875 C5.11619141 5.99267578 5.11619141 5.99267578 5.80859375 7.32421875 C9.32713623 15.22651907 8.58280325 23.22383771 5.94921875 31.25 C5 33 5 33 2 34 C1.67 32.68 1.34 31.36 1 30 C1.99 30 2.98 30 4 30 C4 24.72 4 19.44 4 14 C3.01 14.495 3.01 14.495 2 15 C2.020625 14.05125 2.04125 13.1025 2.0625 12.125 C2.22551826 9.09333717 2.22551826 9.09333717 1 7 C0.63858045 4.67085177 0.30300475 2.33746522 0 0 Z " fill="#717273" transform="translate(214,61)"/>
<path d="M0 0 C0.66 0.33 1.32 0.66 2 1 C1.45730469 1.44988281 0.91460937 1.89976562 0.35546875 2.36328125 C-6.63216252 8.64585423 -8.61956096 14.29965115 -9.23828125 23.5703125 C-9.36324488 29.7658777 -9.15094421 35.17979802 -7 41 C-6.65864073 42.33130115 -6.32074044 43.66358148 -6 45 C-11.00451982 41.03089807 -12.5644466 35.70220391 -13.2890625 29.54296875 C-13.58957252 20.86915677 -11.44452793 12.8445494 -6 6 C-4.05605102 3.92709126 -2.05746041 1.96393948 0 0 Z " fill="#9D9E9E" transform="translate(256,141)"/>
<path d="M0 0 C0.99 0 1.98 0 3 0 C2.67 1.65 2.34 3.3 2 5 C1.34 5 0.68 5 0 5 C-0.144375 5.94875 -0.28875 6.8975 -0.4375 7.875 C-1 11 -1 11 -2 13 C-2.66 13 -3.32 13 -4 13 C-4 13.66 -4 14.32 -4 15 C-4.66 15 -5.32 15 -6 15 C-5.67 20.61 -5.34 26.22 -5 32 C-8.37357468 28.62642532 -8.0831605 24.70202587 -8.1875 20.125 C-8.1545042 15.71676142 -7.44400311 12.15150895 -6 8 C-5.01 8 -4.02 8 -3 8 C-2.814375 6.8553125 -2.814375 6.8553125 -2.625 5.6875 C-2 3 -2 3 0 0 Z " fill="#70706B" transform="translate(105,104)"/>
<path d="M0 0 C3.75348932 1.34005569 6.65896767 3.00567159 9.8125 5.4375 C10.60269531 6.03433594 11.39289063 6.63117188 12.20703125 7.24609375 C12.79871094 7.82488281 13.39039063 8.40367188 14 9 C14 9.99 14 10.98 14 12 C15.2065625 12.433125 15.2065625 12.433125 16.4375 12.875 C19 14 19 14 20 16 C17 18 17 18 14 18 C12.17578125 16.90625 12.17578125 16.90625 10.3125 15.5 C9.68988281 15.0359375 9.06726563 14.571875 8.42578125 14.09375 C7.95527344 13.7328125 7.48476563 13.371875 7 13 C7.66 12.34 8.32 11.68 9 11 C9 10.01 9 9.02 9 8 C8.43410156 7.84144531 7.86820312 7.68289062 7.28515625 7.51953125 C5.06779058 6.81418295 3.04806871 6.10846848 1 5 C0 2.3125 0 2.3125 0 0 Z " fill="#19251C" transform="translate(316,71)"/>
<path d="M0 0 C0.66 0 1.32 0 2 0 C2.66 1.32 3.32 2.64 4 4 C5.32 3.34 6.64 2.68 8 2 C11.19167673 6.85689937 13.85954274 11.59252902 16 17 C11.39860359 15.51131293 8.49772906 13.25370145 5 10 C5 9.34 5 8.68 5 8 C4.34 8 3.68 8 3 8 C0 2.25 0 2.25 0 0 Z " fill="#4C4D4D" transform="translate(100,136)"/>
<path d="M0 0 C5.75 1.875 5.75 1.875 8 3 C8 3.66 8 4.32 8 5 C9.32 5.66 10.64 6.32 12 7 C12 7.99 12 8.98 12 10 C11.34 9.34 10.68 8.68 10 8 C7.42938689 7.35232207 7.42938689 7.35232207 5 7 C5.33 7.99 5.66 8.98 6 10 C5.236875 9.690625 4.47375 9.38125 3.6875 9.0625 C-0.14839092 7.54598499 -3.00020123 6.87861388 -7.10546875 6.90234375 C-8.57983398 6.90717773 -8.57983398 6.90717773 -10.08398438 6.91210938 C-11.62022461 6.92467773 -11.62022461 6.92467773 -13.1875 6.9375 C-14.22326172 6.94201172 -15.25902344 6.94652344 -16.32617188 6.95117188 C-18.88417266 6.9629599 -21.44205733 6.97941485 -24 7 C-21.30040985 4.30040985 -19.52540951 4.02141957 -15.7421875 3.8671875 C-8.75761168 3.88129775 -1.92948435 4.02744079 5 5 C3.35 3.35 1.7 1.7 0 0 Z " fill="#A93C34" transform="translate(201,51)"/>
<path d="M0 0 C0.33 0.66 0.66 1.32 1 2 C1.99 2 2.98 2 4 2 C4.55353075 15.6332574 4.55353075 15.6332574 1 22 C0.01 21.67 -0.98 21.34 -2 21 C-1.01 10.605 -1.01 10.605 0 0 Z " fill="#0B120B" transform="translate(362,117)"/>
<path d="M0 0 C2.67267796 1.28290011 5.12965511 2.67996636 7.57421875 4.35546875 C8.23776367 4.80970215 8.90130859 5.26393555 9.58496094 5.73193359 C10.27879883 6.21227051 10.97263672 6.69260742 11.6875 7.1875 C12.40067383 7.68072754 13.11384766 8.17395508 13.84863281 8.68212891 C28.94547533 19.18263851 28.94547533 19.18263851 33 25 C32.67 25.66 32.34 26.32 32 27 C31.41605469 26.20335937 31.41605469 26.20335937 30.8203125 25.390625 C26.75116754 20.25262629 23.48860913 18.15150869 17.34375 16.05078125 C14.12770535 14.60892123 12.65268323 12.58338675 10.58203125 9.80859375 C8.09056704 6.96032726 4.97713691 5.20075078 1.7578125 3.26171875 C1.17773438 2.84535156 0.59765625 2.42898437 0 2 C0 1.34 0 0.68 0 0 Z " fill="#9A9B9C" transform="translate(330,81)"/>
<path d="M0 0 C0.66 0.33 1.32 0.66 2 1 C-8.19999369 8.67564918 -16.11663719 11.19712663 -29 10 C-32.55169603 9.04929349 -35.83604986 7.88871969 -39 6 C-39.33 5.34 -39.66 4.68 -40 4 C-38.02 4 -36.04 4 -34 4 C-33.67 4.99 -33.34 5.98 -33 7 C-29.62516587 7.08767555 -26.25062785 7.14061628 -22.875 7.1875 C-21.92367188 7.21263672 -20.97234375 7.23777344 -19.9921875 7.26367188 C-14.51600803 7.32071541 -10.74475986 7.04601867 -6 4 C-5.37351562 3.61457031 -4.74703125 3.22914063 -4.1015625 2.83203125 C-3.61429687 2.49558594 -3.12703125 2.15914062 -2.625 1.8125 C-1.325625 0.9153125 -1.325625 0.9153125 0 0 Z " fill="#979898" transform="translate(297,189)"/>
<path d="M0 0 C4.1281203 1.45698364 7.41040752 3.50926236 11 6 C12.093125 6.680625 13.18625 7.36125 14.3125 8.0625 C17 10 17 10 18 13 C14.92561638 12.92910226 11.99085301 12.74241032 9 12 C6.93095946 9.55477027 6 8.20908881 6 5 C3.69 4.67 1.38 4.34 -1 4 C-0.67 2.68 -0.34 1.36 0 0 Z " fill="#102215" transform="translate(259,102)"/>
<path d="M0 0 C3.48670834 1.1094072 6.77484237 2.26337666 10 4 C10 4.66 10 5.32 10 6 C10.61875 6.226875 11.2375 6.45375 11.875 6.6875 C14.61410209 8.37929835 15.05024472 9.99244161 16 13 C10.02285179 11.39828054 6.11659081 9.86506186 2 5 C1.34 4.34 0.68 3.68 0 3 C0 2.01 0 1.02 0 0 Z " fill="#151E29" transform="translate(197,137)"/>
<path d="M0 0 C0.33 0 0.66 0 1 0 C0.96519531 1.05058594 0.93039063 2.10117188 0.89453125 3.18359375 C0.7126505 11.1389821 0.90995888 17.53240062 4 25 C4 25.66 4 26.32 4 27 C2.35 26.67 0.7 26.34 -1 26 C-1.83378517 21.62429541 -2.16308604 17.45310587 -2.1875 13 C-2.20167969 11.824375 -2.21585938 10.64875 -2.23046875 9.4375 C-1.9975771 5.96386185 -1.24783002 3.23548021 0 0 Z " fill="#14130E" transform="translate(248,155)"/>
<path d="M0 0 C0 0.99 0 1.98 0 3 C-0.66 3 -1.32 3 -2 3 C-2 3.66 -2 4.32 -2 5 C-4.76565382 5.92188461 -6.38283702 6.11785222 -9.23046875 6.09765625 C-10.03291016 6.09443359 -10.83535156 6.09121094 -11.66210938 6.08789062 C-12.49548828 6.07951172 -13.32886719 6.07113281 -14.1875 6.0625 C-15.03248047 6.05798828 -15.87746094 6.05347656 -16.74804688 6.04882812 C-18.83206155 6.03705403 -20.91603977 6.0191189 -23 6 C-22.34 5.01 -21.68 4.02 -21 3 C-18.30651449 2.47830204 -15.78119652 2.11889362 -13.0625 1.875 C-8.72611146 1.43791044 -4.23592798 0 0 0 Z " fill="#0E1318" transform="translate(203,191)"/>
<path d="M0 0 C6.27 0 12.54 0 19 0 C19 0.66 19 1.32 19 2 C20.11375 2.226875 21.2275 2.45375 22.375 2.6875 C26 4 26 4 27.4375 6.625 C27.623125 7.40875 27.80875 8.1925 28 9 C24.0309541 7.82732735 21.26073049 6.49989338 18 4 C14.33912692 2.77970897 10.57893265 2.68567156 6.75 2.4375 C5.48671875 2.35371094 4.2234375 2.26992187 2.921875 2.18359375 C1.95765625 2.12300781 0.9934375 2.06242187 0 2 C0 1.34 0 0.68 0 0 Z " fill="#122541" transform="translate(122,97)"/>
<path d="M0 0 C0.96486328 0.27263672 0.96486328 0.27263672 1.94921875 0.55078125 C9.25399988 2.58278171 16.60205107 4.34163625 24 6 C23.01 6.495 23.01 6.495 22 7 C22 7.66 22 8.32 22 9 C13.62972324 8.96817385 7.66599876 7.17094965 1 2 C0.67 1.34 0.34 0.68 0 0 Z " fill="#181108" transform="translate(314,146)"/>
<path d="M0 0 C0.66 0 1.32 0 2 0 C2.02726927 2.35424675 2.04696719 4.70816962 2.0625 7.0625 C2.07410156 8.37347656 2.08570313 9.68445313 2.09765625 11.03515625 C2.00543984 14.77914246 1.5636444 18.30302534 1 22 C1 23.32 1 24.64 1 26 C-0.5 27.75 -0.5 27.75 -2 29 C-2.99 28.34 -3.98 27.68 -5 27 C-6.98 27.99 -6.98 27.99 -9 29 C-8.59007812 28.45730469 -8.18015625 27.91460937 -7.7578125 27.35546875 C-7.21898437 26.64003906 -6.68015625 25.92460937 -6.125 25.1875 C-5.59132813 24.47980469 -5.05765625 23.77210938 -4.5078125 23.04296875 C-0.28962287 17.32764964 0.1334614 13.21267899 0.0625 6.1875 C0.05347656 5.02605469 0.04445313 3.86460938 0.03515625 2.66796875 C0.02355469 1.78753906 0.01195312 0.90710938 0 0 Z " fill="#14341D" transform="translate(360,116)"/>
<path d="M0 0 C7.2941378 1.85929003 11.52303788 3.86490376 16 10 C9.56600627 10.68935647 6.61937798 9.61027022 1.56640625 5.60546875 C0 4 0 4 -1 1 C-0.67 0.67 -0.34 0.34 0 0 Z " fill="#141B26" transform="translate(147,171)"/>
<path d="M0 0 C4.9028549 4.38676491 6.72047449 7.83809453 7.30078125 14.40234375 C7.32269814 21.01393751 7.31714523 26.19499584 4 32 C3.34 32 2.68 32 2 32 C2 31.01 2 30.02 2 29 C2.66 29 3.32 29 4 29 C4.08706892 25.72933434 4.14041241 22.45896635 4.1875 19.1875 C4.21263672 18.25873047 4.23777344 17.32996094 4.26367188 16.37304688 C4.27333984 15.48037109 4.28300781 14.58769531 4.29296875 13.66796875 C4.3086792 12.84578857 4.32438965 12.0236084 4.34057617 11.17651367 C3.91939301 8.48486647 2.95883419 7.80827528 1 6 C0.3125 2.8125 0.3125 2.8125 0 0 Z " fill="#BB4138" transform="translate(208,63)"/>
<path d="M0 0 C0.99 0 1.98 0 3 0 C-0.35442703 7.55151206 -8.27403556 11.69904315 -15 16 C-15.66 15.34 -16.32 14.68 -17 14 C-16.67 13.34 -16.34 12.68 -16 12 C-15.01 12 -14.02 12 -13 12 C-13 11.01 -13 10.02 -13 9 C-11.96875 8.608125 -10.9375 8.21625 -9.875 7.8125 C-5.92751759 6.13220708 -3.13948606 3.90976757 0 1 C0 0.67 0 0.34 0 0 Z " fill="#171613" transform="translate(212,97)"/>
<path d="M0 0 C3.24570558 0.9649395 4.67456783 1.42309751 6.375 4.4375 C8.67059991 8.05748447 11.01689179 8.57209328 15 10 C14.67 11.32 14.34 12.64 14 14 C11.03824877 13.38722388 9.61941217 12.74627478 7 11 C7 10.34 7 9.68 7 9 C5.68 8.67 4.36 8.34 3 8 C3 7.01 3 6.02 3 5 C2.01 4.67 1.02 4.34 0 4 C0 2.68 0 1.36 0 0 Z " fill="#141E17" transform="translate(311,69)"/>
<path d="M0 0 C0.66 0.33 1.32 0.66 2 1 C-3.30140641 7.93033017 -7.76512946 11.2970578 -16 14 C-17.34501579 14.64277115 -18.68274729 15.30209776 -20 16 C-16.07795039 11.83425022 -11.83123826 8.51588273 -7.1875 5.1875 C-6.49462891 4.68541016 -5.80175781 4.18332031 -5.08789062 3.66601562 C-3.39482309 2.4400012 -1.69781244 1.2194351 0 0 Z " fill="#888885" transform="translate(161,61)"/>
<path d="M0 0 C2.475 0.495 2.475 0.495 5 1 C5 1.66 5 2.32 5 3 C9.63927836 4.17379332 14.12478976 4.14840005 18.875 4.125 C19.65230469 4.12886719 20.42960937 4.13273438 21.23046875 4.13671875 C25.92358006 4.12883117 30.37126895 3.77762682 35 3 C28.53695627 8.30892878 21.04486569 7.49452522 13 7 C7.58949951 5.96508008 3.51428059 4.43104944 0 0 Z " fill="#999497" transform="translate(170,192)"/>
<path d="M0 0 C4.29 0.66 8.58 1.32 13 2 C13 2.99 13 3.98 13 5 C12.34 5 11.68 5 11 5 C11.78375 5.763125 12.5675 6.52625 13.375 7.3125 C16 10 16 10 18 13 C11.498356 9.99924123 5.51348745 5.54792747 0 1 C0 0.67 0 0.34 0 0 Z " fill="#686A6B" transform="translate(152,179)"/>
<path d="M0 0 C0 0.66 0 1.32 0 2 C-0.556875 2.061875 -1.11375 2.12375 -1.6875 2.1875 C-5.02848796 3.36136063 -6.6191831 5.39243863 -9 8 C-9.53367187 8.57621094 -10.06734375 9.15242188 -10.6171875 9.74609375 C-14.3008159 13.83774602 -14.3008159 13.83774602 -16 19 C-16.66 19 -17.32 19 -18 19 C-17.44200785 13.14108245 -15.18420197 9.52023304 -11.375 5.125 C-10 4 -10 4 -8 4 C-8 3.34 -8 2.68 -8 2 C-4.91190305 0.23537317 -3.76687864 0 0 0 Z " fill="#3E6BB9" transform="translate(122,100)"/>
<path d="M0 0 C-0.875 3.875 -0.875 3.875 -2 5 C-0.68 5.99 0.64 6.98 2 8 C1.67 8.99 1.34 9.98 1 11 C0.34 10.67 -0.32 10.34 -1 10 C-1 9.34 -1 8.68 -1 8 C-2.782129 6.55925285 -4.62660276 5.19489351 -6.5 3.875 C-7.5209375 3.15054688 -8.541875 2.42609375 -9.59375 1.6796875 C-10.3878125 1.12539062 -11.181875 0.57109375 -12 0 C-11.38125 -0.15082031 -10.7625 -0.30164063 -10.125 -0.45703125 C-8.00418549 -0.96842838 -8.00418549 -0.96842838 -6 -1.6875 C-3.41083122 -2.09205762 -2.19739621 -1.33413341 0 0 Z " fill="#616963" transform="translate(280,115)"/>
<path d="M0 0 C0.66 0.33 1.32 0.66 2 1 C1.63926776 3.61530876 1.20250273 4.79749727 -0.6875 6.6875 C-3.43827539 8.24875089 -5.89761479 8.51740675 -9 9 C-9.33 9.66 -9.66 10.32 -10 11 C-10.33 9.68 -10.66 8.36 -11 7 C-7.39042389 3.7089159 -4.87362847 2.45336079 0 2 C0 1.34 0 0.68 0 0 Z " fill="#191113" transform="translate(314,172)"/>
<path d="M0 0 C0.33 1.32 0.66 2.64 1 4 C1.66 4 2.32 4 3 4 C3 3.01 3 2.02 3 1 C3.99 1.33 4.98 1.66 6 2 C5.65066406 2.42667969 5.30132812 2.85335937 4.94140625 3.29296875 C0.40638235 9.52380896 0.12670252 15.44392242 0 23 C-0.66 22.67 -1.32 22.34 -2 22 C-2.05807043 18.89591193 -2.09361914 15.7919636 -2.125 12.6875 C-2.14175781 11.80642578 -2.15851563 10.92535156 -2.17578125 10.01757812 C-2.18222656 9.17001953 -2.18867188 8.32246094 -2.1953125 7.44921875 C-2.20578613 6.66893311 -2.21625977 5.88864746 -2.22705078 5.0847168 C-2 3 -2 3 0 0 Z " fill="#35270B" transform="translate(250,149)"/>
<path d="M0 0 C4.74702566 2.37351283 8.02054617 5.66366115 11 10 C11.875 12.9375 11.875 12.9375 12 15 C11.566875 14.525625 11.13375 14.05125 10.6875 13.5625 C8.97690387 11.76313043 8.97690387 11.76313043 6 11 C5.67 11.99 5.34 12.98 5 14 C3.02 11.36 1.04 8.72 -1 6 C0.98 6.66 2.96 7.32 5 8 C3.13433512 4.37206002 3.13433512 4.37206002 0 2 C0 1.34 0 0.68 0 0 Z " fill="#626771" transform="translate(207,141)"/>
<path d="M0 0 C3.94099222 0.41925449 7.15904756 1.03180451 10.8125 2.5625 C18.11430601 5.1921714 26.36014449 4.22252006 34 4 C33 6 33 6 31.27636719 6.71191406 C24.96523099 8.27933159 20.40942245 7.62631529 14.25 5.75 C13.42628906 5.51925781 12.60257812 5.28851563 11.75390625 5.05078125 C7.74040266 3.90683578 3.83812952 2.65382817 0 1 C0 0.67 0 0.34 0 0 Z " fill="#08160B" transform="translate(314,145)"/>
<path d="M0 0 C2.4726498 1.11668056 4.70707301 2.32609237 6.9375 3.875 C6.9375 4.535 6.9375 5.195 6.9375 5.875 C8.5875 6.535 10.2375 7.195 11.9375 7.875 C9.9375 8.875 9.9375 8.875 7.375 8.125 C4.9375 6.875 4.9375 6.875 3.9375 3.875 C2.6175 3.875 1.2975 3.875 -0.0625 3.875 C-0.3925 4.865 -0.7225 5.855 -1.0625 6.875 C-2.0525 5.555 -3.0425 4.235 -4.0625 2.875 C-4.0625 3.535 -4.0625 4.195 -4.0625 4.875 C-5.3825 4.875 -6.7025 4.875 -8.0625 4.875 C-8.0625 4.215 -8.0625 3.555 -8.0625 2.875 C-2.71310241 -0.16443045 -2.71310241 -0.16443045 0 0 Z " fill="#DB9B12" transform="translate(288.0625,128.125)"/>
<path d="M0 0 C3.91211733 1.15585285 6.8745041 2.35534962 10 5 C10.33 4.34 10.66 3.68 11 3 C11.66 3.33 12.32 3.66 13 4 C13 4.66 13 5.32 13 6 C13.66 6 14.32 6 15 6 C15.33 6.99 15.66 7.98 16 9 C16.99 9.66 17.98 10.32 19 11 C18.67 11.99 18.34 12.98 18 14 C4.30938914 4.5361991 4.30938914 4.5361991 0 0 Z " fill="#352403" transform="translate(289,128)"/>
<path d="M0 0 C0.8353125 0.37125 0.8353125 0.37125 1.6875 0.75 C0.31766497 3.91115776 -0.3015638 4.7427092 -3.3125 6.75 C-0.6725 8.73 1.9675 10.71 4.6875 12.75 C1.24389368 12.75 -0.06045392 11.95408468 -3 10.25 C-3.80824219 9.7859375 -4.61648437 9.321875 -5.44921875 8.84375 C-6.37154297 8.30234375 -6.37154297 8.30234375 -7.3125 7.75 C-7.3125 3.75 -7.3125 3.75 -5.0625 1.4375 C-2.3125 -0.25 -2.3125 -0.25 0 0 Z " fill="#6E6E70" transform="translate(188.3125,117.25)"/>
<path d="M0 0 C0.66 0.33 1.32 0.66 2 1 C0.13513962 2.49369885 -1.74020747 3.96932237 -3.625 5.4375 C-4.14707031 5.85837891 -4.66914063 6.27925781 -5.20703125 6.71289062 C-8.76747315 9.46014517 -11.52282112 10.63026301 -16 11 C-16.66 10.01 -17.32 9.02 -18 8 C-18 8.66 -18 9.32 -18 10 C-18.99 10 -19.98 10 -21 10 C-21 9.34 -21 8.68 -21 8 C-15.25 5 -15.25 5 -13 5 C-13 5.66 -13 6.32 -13 7 C-7.55791766 6.65986985 -4.06331802 3.29703472 0 0 Z " fill="#736D5F" transform="translate(332,164)"/>
<path d="M0 0 C2.86453858 3.41016497 4.34703566 6.90694544 6 11 C5.01 11.495 5.01 11.495 4 12 C4.61277612 14.96175123 5.25372522 16.38058783 7 19 C4.12160009 17.7096828 1.90945214 16.54593619 0 14 C-0.6875 10.8125 -0.6875 10.8125 -1 8 C-0.01 8 0.98 8 2 8 C1.67 7.4225 1.34 6.845 1 6.25 C0 4 0 4 0 0 Z " fill="#62533F" transform="translate(250,174)"/>
<path d="M0 0 C0.66 0.33 1.32 0.66 2 1 C0.35 2.98 -1.3 4.96 -3 7 C-0.69 7.33 1.62 7.66 4 8 C4.33 8.99 4.66 9.98 5 11 C0.38 10.34 -4.24 9.68 -9 9 C-7.12803847 5.25607694 -6.59931881 4.39954587 -3.375 2.25 C-2.74335938 1.82203125 -2.11171875 1.3940625 -1.4609375 0.953125 C-0.97882813 0.63859375 -0.49671875 0.3240625 0 0 Z " fill="#AB3B33" transform="translate(138,85)"/>
<path d="M0 0 C7.99045513 3.73865332 15.01309557 9.67199746 22 15 C18.42042166 15 17.53689395 14.18207543 14.6875 12.125 C11.21585522 9.71980819 8.13430012 8.06007695 4 7 C4 6.34 4 5.68 4 5 C3.34 5 2.68 5 2 5 C1.34 3.35 0.68 1.7 0 0 Z " fill="#77787A" transform="translate(294,55)"/>
<path d="M0 0 C17.09990803 0.06799168 17.09990803 0.06799168 21.8046875 3.890625 C22.1346875 4.344375 22.4646875 4.798125 22.8046875 5.265625 C21.5671875 4.8015625 21.5671875 4.8015625 20.3046875 4.328125 C16.41342595 3.14684917 12.84301797 2.68338332 8.8046875 2.265625 C8.8046875 2.595625 8.8046875 2.925625 8.8046875 3.265625 C6.1646875 3.265625 3.5246875 3.265625 0.8046875 3.265625 C0.8046875 2.605625 0.8046875 1.945625 0.8046875 1.265625 C-1.1753125 1.595625 -3.1553125 1.925625 -5.1953125 2.265625 C-3.1953125 0.265625 -3.1953125 0.265625 0 0 Z " fill="#484A4A" transform="translate(271.1953125,49.734375)"/>
<path d="M0 0 C0.66 0 1.32 0 2 0 C1.67386719 0.99773437 1.34773438 1.99546875 1.01171875 3.0234375 C-0.10200115 6.92981251 -0.23309093 10.55497335 -0.1875 14.625 C-0.18105469 15.89601563 -0.17460938 17.16703125 -0.16796875 18.4765625 C-0.02619702 21.45047187 0.30875609 24.11336541 1 27 C0.01 26.67 -0.98 26.34 -2 26 C-5.48068859 19.03862281 -2.82590408 8.99054981 -0.65625 1.94921875 C-0.33140625 0.98435547 -0.33140625 0.98435547 0 0 Z " fill="#0F213E" transform="translate(105,109)"/>
<path d="M0 0 C0.66 0.33 1.32 0.66 2 1 C0.8803014 2.00593243 -0.2459412 3.0045849 -1.375 4 C-2.31472656 4.8353125 -2.31472656 4.8353125 -3.2734375 5.6875 C-5 7 -5 7 -7 7 C-7.33 8.65 -7.66 10.3 -8 12 C-9.3303125 12.185625 -9.3303125 12.185625 -10.6875 12.375 C-13.70387502 12.94412736 -16.20326054 13.76614436 -19 15 C-15.23006967 10.85307663 -11.02908926 7.79947219 -6.40234375 4.6484375 C-4.22222757 3.15248786 -2.10256893 1.60241974 0 0 Z " fill="#949293" transform="translate(277,126)"/>
<path d="M0 0 C5.22861968 2.35287886 9.51750177 5.48453819 14 9 C13.01 9.495 13.01 9.495 12 10 C9.64018187 9.06421005 7.30368736 8.06652192 5 7 C5.66 8.65 6.32 10.3 7 12 C5.1875 11.5 5.1875 11.5 3 10 C1.40752976 6.85503785 0 3.55448697 0 0 Z " fill="#686F7A" transform="translate(193,131)"/>
<path d="M0 0 C0.4125 0.40992187 0.825 0.81984375 1.25 1.2421875 C4.48821162 4.26355459 6.81076843 6.22229047 11.25 6.9375 C15 8 15 8 16.171875 9.66796875 C17 11.625 17 11.625 18 15 C13.9501445 13.61147811 11.2378143 11.78602626 8 9 C7.3090625 8.42378906 6.618125 7.84757812 5.90625 7.25390625 C5.1740625 6.63386719 4.441875 6.01382813 3.6875 5.375 C2.99011719 4.78460938 2.29273438 4.19421875 1.57421875 3.5859375 C0 2 0 2 0 0 Z " fill="#8B8A8A" transform="translate(250,99)"/>
<path d="M0 0 C4.96911296 0.07467246 9.7300481 0.1848987 14.609375 1.23046875 C15.558125 1.41609375 16.506875 1.60171875 17.484375 1.79296875 C18.185625 1.93734375 18.886875 2.08171875 19.609375 2.23046875 C19.279375 2.89046875 18.949375 3.55046875 18.609375 4.23046875 C17.413125 4.08609375 16.216875 3.94171875 14.984375 3.79296875 C8.54199915 3.07142265 2.07641616 2.66283139 -4.390625 2.23046875 C-2.390625 0.23046875 -2.390625 0.23046875 0 0 Z " fill="#2C0F0A" transform="translate(187.390625,52.76953125)"/>
<path d="M0 0 C2.2109885 0.42793326 3.98119242 0.99059621 6 2 C6 2.66 6 3.32 6 4 C6.66 4.33 7.32 4.66 8 5 C8.625 7.5625 8.625 7.5625 9 10 C5.75728494 9.4409112 4.06942576 8.5867822 2 6 C2 5.34 2 4.68 2 4 C1.34 4 0.68 4 0 4 C-0.33 3.01 -0.66 2.02 -1 1 C-0.67 0.67 -0.34 0.34 0 0 Z " fill="#161D25" transform="translate(187,129)"/>
<path d="M0 0 C0.66 0.33 1.32 0.66 2 1 C1.04663979 2.31611677 0.08714226 3.62778961 -0.875 4.9375 C-1.40867188 5.66839844 -1.94234375 6.39929688 -2.4921875 7.15234375 C-4 9 -4 9 -6 10 C-7.99960012 10.039992 -10.00047242 10.04346799 -12 10 C-8.29909479 6.0747975 -4.45040344 3.05419844 0 0 Z " fill="#BF3E35" transform="translate(152,75)"/>
<path d="M0 0 C0.66 0 1.32 0 2 0 C2.10823773 2.24893954 2.18569645 4.49937575 2.25 6.75 C2.29640625 8.00296875 2.3428125 9.2559375 2.390625 10.546875 C2 14 2 14 0.109375 16.453125 C-2 18 -2 18 -4 18 C-2.125 13.25 -2.125 13.25 -1 11 C-0.7724985 9.12943209 -0.59037189 7.25314042 -0.4375 5.375 C-0.31181641 3.87066406 -0.31181641 3.87066406 -0.18359375 2.3359375 C-0.12300781 1.56507813 -0.06242188 0.79421875 0 0 Z " fill="#0F2240" transform="translate(215,164)"/>
<path d="M0 0 C0.99 0.66 1.98 1.32 3 2 C2.67 2.99 2.34 3.98 2 5 C1.34 5 0.68 5 0 5 C0 5.66 0 6.32 0 7 C-3 9 -3 9 -6 9 C-6.33 7.68 -6.66 6.36 -7 5 C-6.34 5 -5.68 5 -5 5 C-5 4.34 -5 3.68 -5 3 C-2.5 1.375 -2.5 1.375 0 0 Z " fill="#0B130C" transform="translate(355,142)"/>
<path d="M0 0 C0.66 0.33 1.32 0.66 2 1 C0.9171875 1.804375 0.9171875 1.804375 -0.1875 2.625 C-3.13008803 4.92485648 -3.13008803 4.92485648 -5.3125 8.125 C-8.80701863 11.86332226 -11.04159254 12.15959196 -16 13 C-11.3126338 7.82773385 -5.68271819 4.01074507 0 0 Z " fill="#8F8F8E" transform="translate(126,86)"/>
<path d="M0 0 C1.36125 0.12375 1.36125 0.12375 2.75 0.25 C3.08 0.91 3.41 1.57 3.75 2.25 C-0.705 5.22 -0.705 5.22 -5.25 8.25 C-5.91 6.93 -6.57 5.61 -7.25 4.25 C-4.83923194 1.28290085 -3.90322061 0.30024774 0 0 Z " fill="#231412" transform="translate(136.25,82.75)"/>
<path d="M0 0 C0.7425 0.309375 1.485 0.61875 2.25 0.9375 C7.44702225 2.40998964 12.62487263 2.66949055 18 3 C18 3.33 18 3.66 18 4 C17.19175781 4.06058594 16.38351563 4.12117187 15.55078125 4.18359375 C13.94783203 4.30927734 13.94783203 4.30927734 12.3125 4.4375 C11.25675781 4.51871094 10.20101562 4.59992188 9.11328125 4.68359375 C6.0400235 4.93772866 6.0400235 4.93772866 3.23046875 5.59765625 C1 6 1 6 -1 5 C-0.67 3.35 -0.34 1.7 0 0 Z " fill="#142130" transform="translate(176,190)"/>
<path d="M0 0 C9.59453303 3.85421412 9.59453303 3.85421412 13 8 C8.16819341 8.34512904 5.0488862 7.73064418 1 5 C0.125 2.3125 0.125 2.3125 0 0 Z " fill="#15191B" transform="translate(132,160)"/>
<path d="M0 0 C2 1 2 1 3.125 3.875 C5.0154966 11.16691544 4.74207963 18.99246317 2 26 C1.34 26.33 0.68 26.66 0 27 C0.48578543 23.87709365 0.9986012 21.00419641 2 18 C2.38650638 11.8158979 1.22507029 6.04878458 0 0 Z " fill="#3C9155" transform="translate(357,110)"/>
<path d="M0 0 C3.20842889 3.20842889 3.08232111 6.88272697 3.25 11.25 C3.21665948 16.20940167 1.81666319 20.4259016 0 25 C-0.33 25 -0.66 25 -1 25 C-0.83628906 24.03964844 -0.67257813 23.07929688 -0.50390625 22.08984375 C0.14094818 17.57586275 0.11017662 13.11378358 0.0625 8.5625 C0.05798828 7.73556641 0.05347656 6.90863281 0.04882812 6.05664062 C0.03715811 4.03772854 0.01922718 2.01885426 0 0 Z " fill="#BABEBB" transform="translate(219,156)"/>
<path d="M0 0 C0 0.99 0 1.98 0 3 C-0.99 3 -1.98 3 -3 3 C-3 4.32 -3 5.64 -3 7 C-8.445 8.485 -8.445 8.485 -14 10 C-4.57142857 0 -4.57142857 0 0 0 Z " fill="#3B130D" transform="translate(199,106)"/>
<path d="M0 0 C1.98 0 3.96 0 6 0 C6 0.99 6 1.98 6 3 C7.32 2.67 8.64 2.34 10 2 C10.103125 2.763125 10.20625 3.52625 10.3125 4.3125 C11.04364039 7.17059424 11.76951913 8.15742885 14 10 C10.19136032 8.65378455 7.34590149 6.94641263 4.1875 4.4375 C3.39730469 3.81746094 2.60710937 3.19742188 1.79296875 2.55859375 C0.90544922 1.78708984 0.90544922 1.78708984 0 1 C0 0.67 0 0.34 0 0 Z " fill="#706F73" transform="translate(116,153)"/>
<path d="M0 0 C1.27310312 0.93441535 2.543388 1.87267111 3.8125 2.8125 C4.52019531 3.33457031 5.22789063 3.85664063 5.95703125 4.39453125 C7.78531393 5.83128877 9.39896688 7.31815763 11 9 C9.68 9 8.36 9 7 9 C7 9.66 7 10.32 7 11 C4.32423308 9.99382318 3.2214892 9.45785454 1.953125 6.8359375 C1.72109375 6.02382812 1.4890625 5.21171875 1.25 4.375 C1.00765625 3.55773437 0.7653125 2.74046875 0.515625 1.8984375 C0.34546875 1.27195313 0.1753125 0.64546875 0 0 Z " fill="#121C2E" transform="translate(111,142)"/>
<path d="M0 0 C0.66 0.33 1.32 0.66 2 1 C3.32 1 4.64 1 6 1 C7.34164079 1.2981424 8.67851173 1.62243192 10 2 C1.16245487 6.31287605 1.16245487 6.31287605 -4 6 C-4.66 6.66 -5.32 7.32 -6 8 C-6.99 7.67 -7.98 7.34 -9 7 C-6.03 4.69 -3.06 2.38 0 0 Z " fill="#2F271A" transform="translate(279,126)"/>
<path d="M0 0 C0.33 0.66 0.66 1.32 1 2 C2.32 2 3.64 2 5 2 C8 5.21428571 8 5.21428571 8 8 C9.32 8.33 10.64 8.66 12 9 C10.359375 9.74609375 10.359375 9.74609375 8 10 C5.203125 8.34765625 5.203125 8.34765625 2.25 6.0625 C0.77273437 4.93521484 0.77273437 4.93521484 -0.734375 3.78515625 C-1.48203125 3.19605469 -2.2296875 2.60695312 -3 2 C-2.01 1.34 -1.02 0.68 0 0 Z " fill="#3F72C4" transform="translate(144,163)"/>
<path d="M0 0 C7.26 0 14.52 0 22 0 C18.83817227 3.16182773 15.96552323 3.15791478 11.6875 3.1875 C7.41673705 3.15917929 3.96843158 2.71607852 0 1 C0 0.67 0 0.34 0 0 Z " fill="#2D7843" transform="translate(324,147)"/>
<path d="M0 0 C0.33 0.66 0.66 1.32 1 2 C-1.51428571 8.51428571 -1.51428571 8.51428571 -3 10 C-3.07313567 12.53049402 -3.09247527 15.03304837 -3.0625 17.5625 C-3.05798828 18.27341797 -3.05347656 18.98433594 -3.04882812 19.71679688 C-3.03700864 21.47790013 -3.01907263 23.23896036 -3 25 C-6.18344218 21.81655782 -5.42439015 18.16294175 -5.44921875 13.82983398 C-5.30988913 7.79874838 -3.74970917 4.59339374 0 0 Z " fill="#CD9216" transform="translate(255,151)"/>
<path d="M0 0 C7.95393759 4.35215453 7.95393759 4.35215453 10 7 C10 7.66 10 8.32 10 9 C10.66 9.33 11.32 9.66 12 10 C10 11 10 11 7.9375 10.75 C7.298125 10.5025 6.65875 10.255 6 10 C5.67 9.01 5.34 8.02 5 7 C4.01 6.34 3.02 5.68 2 5 C2 4.01 2 3.02 2 2 C1.34 2 0.68 2 0 2 C0 1.34 0 0.68 0 0 Z " fill="#0D190F" transform="translate(302,132)"/>
<path d="M0 0 C5.75 1.875 5.75 1.875 8 3 C8 3.66 8 4.32 8 5 C9.32 5.66 10.64 6.32 12 7 C12 7.99 12 8.98 12 10 C11.34 9.34 10.68 8.68 10 8 C7.42938689 7.35232207 7.42938689 7.35232207 5 7 C5.33 7.99 5.66 8.98 6 10 C5.01 9.67 4.02 9.34 3 9 C2.67 8.01 2.34 7.02 2 6 C2.99 5.34 3.98 4.68 5 4 C4.175 3.525625 3.35 3.05125 2.5 2.5625 C1.675 2.046875 0.85 1.53125 0 1 C0 0.67 0 0.34 0 0 Z " fill="#807575" transform="translate(201,51)"/>
<path d="M0 0 C0.928125 0.165 1.85625 0.33 2.8125 0.5 C7.85733621 1.23700282 12.91435711 1.08276815 18 1 C18 1.66 18 2.32 18 3 C15.37493198 3.02690844 12.75013827 3.04679404 10.125 3.0625 C9.37863281 3.07087891 8.63226563 3.07925781 7.86328125 3.08789062 C2.2265625 3.11328125 2.2265625 3.11328125 0 2 C0 1.34 0 0.68 0 0 Z " fill="#111111" transform="translate(264,194)"/>
<path d="M0 0 C0 2 0 2 -1.57421875 3.69140625 C-2.27160156 4.30886719 -2.96898437 4.92632812 -3.6875 5.5625 C-4.37199219 6.18253906 -5.05648438 6.80257812 -5.76171875 7.44140625 C-8.21752262 9.15146863 -10.05716611 9.6237708 -13 10 C-13 9.34 -13 8.68 -13 8 C-11.5390625 6.7109375 -11.5390625 6.7109375 -9.625 5.375 C-8.68527344 4.70597656 -8.68527344 4.70597656 -7.7265625 4.0234375 C-6 3 -6 3 -4 3 C-4 2.34 -4 1.68 -4 1 C-2 0 -2 0 0 0 Z " fill="#D09610" transform="translate(269,141)"/>
<path d="M0 0 C1.45880109 0.14107747 2.91703551 0.28802415 4.375 0.4375 C5.59316406 0.55931641 5.59316406 0.55931641 6.8359375 0.68359375 C9 1 9 1 11 2 C11 1.34 11 0.68 11 0 C12.32 0.33 13.64 0.66 15 1 C12.55473547 3.23567043 10.76889606 4.82699839 7.5 5.5625 C3.92665621 4.75849765 2.36199886 2.69942727 0 0 Z " fill="#B73D34" transform="translate(170,115)"/>
<path d="M0 0 C1.32 0.33 2.64 0.66 4 1 C5.19287411 4.87684087 6 7.91621923 6 12 C5.01 12 4.02 12 3 12 C2.86722656 11.38511719 2.73445313 10.77023438 2.59765625 10.13671875 C2.42105469 9.32847656 2.24445313 8.52023438 2.0625 7.6875 C1.88847656 6.88699219 1.71445312 6.08648437 1.53515625 5.26171875 C1.00113841 2.854599 1.00113841 2.854599 0 0 Z " fill="#2D292A" transform="translate(360,107)"/>
<path d="M0 0 C2.5 1.3125 2.5 1.3125 5 3 C5 3.99 5 4.98 5 6 C2.875 6.75 2.875 6.75 0 7 C-3.3125 5.125 -3.3125 5.125 -6 3 C-6 2.67 -6 2.34 -6 2 C-4.35 2 -2.7 2 -1 2 C-0.67 1.34 -0.34 0.68 0 0 Z " fill="#1B2C1E" transform="translate(291,54)"/>
<path d="M0 0 C3 3.75 3 3.75 3 6 C4.32 6.33 5.64 6.66 7 7 C5.25 10.875 5.25 10.875 3 12 C2.67 10.35 2.34 8.7 2 7 C1.34 7 0.68 7 0 7 C-0.38133299 5.0085944 -0.71325582 3.00720923 -1 1 C-0.67 0.67 -0.34 0.34 0 0 Z " fill="#181A1B" transform="translate(100,129)"/>
<path d="M0 0 C0.99 0.495 0.99 0.495 2 1 C3.18681726 4.56045177 3.09689832 7.43808337 3.0625 11.1875 C3.05347656 12.45980469 3.04445312 13.73210937 3.03515625 15.04296875 C3.02355469 16.01878906 3.01195312 16.99460937 3 18 C2.01 18 1.02 18 0 18 C0 12.06 0 6.12 0 0 Z " fill="#3F100B" transform="translate(214,72)"/>
<path d="M0 0 C2.12109375 0.5546875 2.12109375 0.5546875 5.12109375 2.5546875 C4.79109375 3.2146875 4.46109375 3.8746875 4.12109375 4.5546875 C3.50234375 4.2040625 2.88359375 3.8534375 2.24609375 3.4921875 C-2.24902074 2.14365315 -6.28845612 2.89508884 -10.87890625 3.5546875 C-7.68569073 -1.02688259 -5.08144781 -0.70266226 0 0 Z " fill="#130F08" transform="translate(289.87890625,125.4453125)"/>
<path d="M0 0 C3.83663072 1.34929464 6.65172569 3.07751025 9.8125 5.625 C10.99779297 6.57246094 10.99779297 6.57246094 12.20703125 7.5390625 C12.79871094 8.02117187 13.39039063 8.50328125 14 9 C10.82350027 9 8.83918194 8.40570412 5.875 7.3125 C4.54082031 6.84263672 4.54082031 6.84263672 3.1796875 6.36328125 C1 5 1 5 0.1953125 2.35546875 C0.13085938 1.57816406 0.06640625 0.80085938 0 0 Z " fill="#929092" transform="translate(316,71)"/>
<path d="M0 0 C0 0.99 0 1.98 0 3 C0.66 3.33 1.32 3.66 2 4 C1.34 4.66 0.68 5.32 0 6 C-0.99 6 -1.98 6 -3 6 C-3 5.01 -3 4.02 -3 3 C-7.455 4.485 -7.455 4.485 -12 6 C-4.43243243 -2.21621622 -4.43243243 -2.21621622 0 0 Z " fill="#6B5454" transform="translate(175,55)"/>
<path d="M0 0 C0.66 0.33 1.32 0.66 2 1 C0.030258 3.11043785 -1.57398993 4.79308082 -4.1875 6.0625 C-6.36058256 6.9194894 -6.36058256 6.9194894 -7 10 C-8.98 10.33 -10.96 10.66 -13 11 C-13 10.34 -13 9.68 -13 9 C-11.0700569 7.5765578 -9.0796509 6.23440799 -7.0625 4.9375 C-3.34860293 2.70667733 -3.34860293 2.70667733 0 0 Z " fill="#543804" transform="translate(331,158)"/>
<path d="M0 0 C3.40320742 1.01176437 4.75725331 1.64843582 6.8125 4.625 C7.204375 5.40875 7.59625 6.1925 8 7 C4.00095031 7 2.19799578 5.27413033 -1 3 C-0.67 2.01 -0.34 1.02 0 0 Z " fill="#121315" transform="translate(205,142)"/>
<path d="M0 0 C-3.71534082 2.67850152 -6.48783632 4.2875531 -11 5 C-13.23408113 5.99083967 -13.23408113 5.99083967 -15 7 C-13.82158297 4.09323799 -12.75422173 2.37219508 -9.90234375 0.96484375 C-3.65625 -1.21875 -3.65625 -1.21875 0 0 Z " fill="#1F1518" transform="translate(196,114)"/>
<path d="M0 0 C0.99 0 1.98 0 3 0 C1.61811547 3.21043882 0.07578097 5.04936365 -2.625 7.25 C-3.57246094 8.03117187 -3.57246094 8.03117187 -4.5390625 8.828125 C-5.02117187 9.21484375 -5.50328125 9.6015625 -6 10 C-6.66 9.34 -7.32 8.68 -8 8 C-7.236875 7.4225 -6.47375 6.845 -5.6875 6.25 C-2.98734291 4.17663042 -2.98734291 4.17663042 -1.375 1.75 C-0.694375 0.88375 -0.694375 0.88375 0 0 Z " fill="#232422" transform="translate(212,97)"/>
<path d="M0 0 C0.66 0.33 1.32 0.66 2 1 C1.01 1.66 0.02 2.32 -1 3 C-0.34 3.33 0.32 3.66 1 4 C0.67 4.99 0.34 5.98 0 7 C-0.886875 6.95875 -1.77375 6.9175 -2.6875 6.875 C-5.97277013 6.99897246 -8.05449295 7.61387904 -11 9 C-7.56638098 5.36440339 -4.2026393 2.63886654 0 0 Z " fill="#8A8888" transform="translate(139,77)"/>
<path d="M0 0 C0.66 0.99 1.32 1.98 2 3 C0.92892883 3.86949317 -0.15745944 4.72014205 -1.25 5.5625 C-1.85328125 6.03816406 -2.4565625 6.51382813 -3.078125 7.00390625 C-5 8 -5 8 -7.234375 7.65234375 C-7.81703125 7.43707031 -8.3996875 7.22179687 -9 7 C-8.34 6.01 -7.68 5.02 -7 4 C-4.375 3.8125 -4.375 3.8125 -2 4 C-1.34 2.68 -0.68 1.36 0 0 Z " fill="#1A1D1B" transform="translate(327,164)"/>
<path d="M0 0 C-0.66 0 -1.32 0 -2 0 C-2 0.66 -2 1.32 -2 2 C-3.81325551 1.88648483 -5.62563357 1.75887039 -7.4375 1.625 C-8.95150391 1.52058594 -8.95150391 1.52058594 -10.49609375 1.4140625 C-11.32238281 1.27742187 -12.14867187 1.14078125 -13 1 C-13.33 0.34 -13.66 -0.32 -14 -1 C-12.41870971 -1.22331199 -10.83478911 -1.42804644 -9.25 -1.625 C-8.36828125 -1.74101562 -7.4865625 -1.85703125 -6.578125 -1.9765625 C-3.77140122 -2.00207817 -2.36615134 -1.44843844 0 0 Z " fill="#3C2A04" transform="translate(338,153)"/>
<path d="M0 0 C0.33 0 0.66 0 1 0 C1.25 7.625 1.25 7.625 -1 11 C-1.66 11 -2.32 11 -3 11 C-3.36785986 4.62376238 -3.36785986 4.62376238 -1.5625 1.5625 C-1.046875 1.046875 -0.53125 0.53125 0 0 Z " fill="#5A5A5A" transform="translate(217,176)"/>
<path d="M0 0 C0.66 0.33 1.32 0.66 2 1 C0.4375 3.9375 0.4375 3.9375 -2 7 C-5.75 7.875 -5.75 7.875 -9 8 C-6.14723863 5.06799526 -3.34920216 2.35684596 0 0 Z " fill="#CD9410" transform="translate(278,133)"/>
<path d="M0 0 C0 0.66 0 1.32 0 2 C-0.5775 2.0825 -1.155 2.165 -1.75 2.25 C-4.19048654 2.86595392 -4.19048654 2.86595392 -6 5.125 C-6.66 5.74375 -7.32 6.3625 -8 7 C-10.25 6.75 -10.25 6.75 -12 6 C-10.68 5.34 -9.36 4.68 -8 4 C-8 3.34 -8 2.68 -8 2 C-4.91190305 0.23537317 -3.76687864 0 0 0 Z " fill="#3F71C4" transform="translate(122,100)"/>
<path d="M0 0 C2.9375 0.1875 2.9375 0.1875 6 1 C7.375 3.0625 7.375 3.0625 8 5 C5.36 4.67 2.72 4.34 0 4 C-0.33 3.01 -0.66 2.02 -1 1 C-0.67 0.67 -0.34 0.34 0 0 Z " fill="#111814" transform="translate(333,87)"/>
<path d="M0 0 C5.625 -0.25 5.625 -0.25 9 2 C8.67 2.99 8.34 3.98 8 5 C5.36 4.67 2.72 4.34 0 4 C0 2.68 0 1.36 0 0 Z " fill="#141814" transform="translate(282,52)"/>
<path d="M0 0 C1.65 1.32 3.3 2.64 5 4 C4.67 5.32 4.34 6.64 4 8 C4.66 8 5.32 8 6 8 C5.67 8.66 5.34 9.32 5 10 C3.02 8.68 1.04 7.36 -1 6 C-0.67 4.02 -0.34 2.04 0 0 Z " fill="#1A2439" transform="translate(183,125)"/>
<path d="M0 0 C3 0 3 0 4.6875 1.0625 C6.65926927 3.97320702 6.19356822 6.58029471 6 10 C5.34 10 4.68 10 4 10 C3.32845067 8.71086513 2.66291141 7.41859796 2 6.125 C1.62875 5.40570313 1.2575 4.68640625 0.875 3.9453125 C0 2 0 2 0 0 Z " fill="#081C0C" transform="translate(356,106)"/>
<path d="M0 0 C0.66 0.33 1.32 0.66 2 1 C-1.64751781 6.08441876 -3.85169289 7.79444959 -10 9 C-6.83047153 5.73991357 -3.60062011 2.77762123 0 0 Z " fill="#AE3C33" transform="translate(164,66)"/>
<path d="M0 0 C2 1 2 1 3 2 C3.66 2.33 4.32 2.66 5 3 C2.03 4.32 -0.94 5.64 -4 7 C-4.33 6.01 -4.66 5.02 -5 4 C-3 1 -3 1 0 0 Z " fill="#1C1211" transform="translate(178,52)"/>
<path d="M0 0 C0.66 0.33 1.32 0.66 2 1 C2 1.99 2 2.98 2 4 C1.39671875 4.12117187 0.7934375 4.24234375 0.171875 4.3671875 C-0.62734375 4.53476563 -1.4265625 4.70234375 -2.25 4.875 C-3.43335938 5.11863281 -3.43335938 5.11863281 -4.640625 5.3671875 C-6.96831144 5.99150075 -8.89031952 6.84838542 -11 8 C-7.50912907 3.9957657 -5.35048061 2.37328935 0 2 C0 1.34 0 0.68 0 0 Z " fill="#2C1C04" transform="translate(314,172)"/>
<path d="M0 0 C0.66 0 1.32 0 2 0 C2.66 1.32 3.32 2.64 4 4 C5.32 3.34 6.64 2.68 8 2 C8.66 3.32 9.32 4.64 10 6 C9.34 6 8.68 6 8 6 C8 5.34 8 4.68 8 4 C7.34 4.66 6.68 5.32 6 6 C6 6.66 6 7.32 6 8 C5.01 8 4.02 8 3 8 C0 2.25 0 2.25 0 0 Z " fill="#5A6269" transform="translate(100,136)"/>
<path d="M0 0 C1.32 0.66 2.64 1.32 4 2 C3.67 4.64 3.34 7.28 3 10 C1 9 1 9 0 6 C-1.49985609 4.33289654 -1.49985609 4.33289654 -3 3 C-2.01 2.01 -1.02 1.02 0 0 Z " fill="#202922" transform="translate(280,116)"/>
<path d="M0 0 C1.32 0.66 2.64 1.32 4 2 C-0.455 4.97 -0.455 4.97 -5 8 C-5.33 7.34 -5.66 6.68 -6 6 C-6.66 6 -7.32 6 -8 6 C-7.67 5.34 -7.34 4.68 -7 4 C-4.67843403 3.59270772 -2.3431213 3.25561323 0 3 C0 2.01 0 1.02 0 0 Z " fill="#DB9F10" transform="translate(304,174)"/>
<path d="M0 0 C3.53372712 1.96318174 6.24479785 4.04070881 9 7 C8.01 7.495 8.01 7.495 7 8 C7 7.34 7 6.68 7 6 C4.36 6 1.72 6 -1 6 C-0.67 4.02 -0.34 2.04 0 0 Z " fill="#4277D1" transform="translate(187,134)"/>
<path d="M0 0 C3.00617269 3.00617269 2.59585316 5.82381598 3 10 C1.68 9.67 0.36 9.34 -1 9 C-0.67 6.03 -0.34 3.06 0 0 Z " fill="#0D1409" transform="translate(248,83)"/>
<path d="M0 0 C-0.60328125 0.25394531 -1.2065625 0.50789063 -1.828125 0.76953125 C-7.75675636 3.29568376 -7.75675636 3.29568376 -13 7 C-13.66 6.67 -14.32 6.34 -15 6 C-6.17589577 -1.7980456 -6.17589577 -1.7980456 0 0 Z " fill="#73706F" transform="translate(156,70)"/>
<path d="M0 0 C2.0343459 1.41519715 2.90410393 2.54982123 3.421875 4.98046875 C3.66273952 6.98176954 3.83532741 8.9909944 4 11 C1.4375 8.875 1.4375 8.875 -1 6 C-0.8125 2.6875 -0.8125 2.6875 0 0 Z " fill="#242023" transform="translate(216,153)"/>
<path d="M0 0 C4.92432253 1.68833915 8.3435645 4.3435645 12 8 C9.03 7.505 9.03 7.505 6 7 C6 6.34 6 5.68 6 5 C5.01 5 4.02 5 3 5 C3 4.34 3 3.68 3 3 C2.01 2.67 1.02 2.34 0 2 C0 1.34 0 0.68 0 0 Z " fill="#340F09" transform="translate(153,104)"/>
<path d="M0 0 C0.99 0.33 1.98 0.66 3 1 C3 2.32 3 3.64 3 5 C3.66 5 4.32 5 5 5 C5.66 6.32 6.32 7.64 7 9 C6.34 9.66 5.68 10.32 5 11 C3.02 7.7 1.04 4.4 -1 1 C-0.67 0.67 -0.34 0.34 0 0 Z " fill="#250D08" transform="translate(210,62)"/>
<path d="M0 0 C-1.63369858 3.26739717 -4.70894675 3.71704704 -8 5 C-9.32276056 5.37308631 -10.65232077 5.73046415 -12 6 C-4.43243243 -2.21621622 -4.43243243 -2.21621622 0 0 Z " fill="#222020" transform="translate(266,53)"/>
<path d="M0 0 C1.24546405 2.49092811 0.7767578 3.41080733 0 6 C-2.66666667 6 -5.33333333 6 -8 6 C-5.36 4.02 -2.72 2.04 0 0 Z " fill="#282724" transform="translate(263,138)"/>
<path d="M0 0 C0.66 0.33 1.32 0.66 2 1 C1.71872579 2.48117801 1.42466268 3.95993249 1.125 5.4375 C0.96257812 6.26121094 0.80015625 7.08492187 0.6328125 7.93359375 C0.42398437 8.61550781 0.21515625 9.29742187 0 10 C-0.99 10.495 -0.99 10.495 -2 11 C-3.13643966 7.59068103 -2.86747764 6.99664544 -1.5625 3.8125 C-1.13130859 2.73935547 -1.13130859 2.73935547 -0.69140625 1.64453125 C-0.46324219 1.10183594 -0.23507812 0.55914062 0 0 Z " fill="#212020" transform="translate(364,128)"/>
<path d="M0 0 C-0.33 0.99 -0.66 1.98 -1 3 C-1.66 3 -2.32 3 -3 3 C-3.33 4.32 -3.66 5.64 -4 7 C-5.32 6.34 -6.64 5.68 -8 5 C-3.375 0 -3.375 0 0 0 Z " fill="#1B1715" transform="translate(150,73)"/>
<path d="M0 0 C3.83663072 1.34929464 6.65172569 3.07751025 9.8125 5.625 C10.99779297 6.57246094 10.99779297 6.57246094 12.20703125 7.5390625 C12.79871094 8.02117187 13.39039063 8.50328125 14 9 C10.20246301 9 8.93581015 7.81129297 5.875 5.625 C4.98554688 4.99851562 4.09609375 4.37203125 3.1796875 3.7265625 C1 2 1 2 0 0 Z " fill="#BABABB" transform="translate(302,61)"/>
<path d="M0 0 C5.96209223 0.41117877 9.31588007 1.25270405 14 5 C14 5.33 14 5.66 14 6 C12.35 6 10.7 6 9 6 C9 5.01 9 4.02 9 3 C4.545 2.01 4.545 2.01 0 1 C0 0.67 0 0.34 0 0 Z " fill="#D5433A" transform="translate(194,57)"/>
<path d="M0 0 C-0.33 1.32 -0.66 2.64 -1 4 C-3.64 4.66 -6.28 5.32 -9 6 C-3.15384615 0 -3.15384615 0 0 0 Z " fill="#443004" transform="translate(303,180)"/>
<path d="M0 0 C2.31 0.33 4.62 0.66 7 1 C2.25 4.875 2.25 4.875 0 6 C0 5.34 0 4.68 0 4 C-0.66 3.67 -1.32 3.34 -2 3 C-1.34 2.01 -0.68 1.02 0 0 Z " fill="#D99B19" transform="translate(329,154)"/>
<path d="M0 0 C4.27878027 2.03751441 8.11282869 4.31600076 12 7 C10.3125 7.6875 10.3125 7.6875 8 8 C4.85855736 6.46758895 2.23494412 4.70545867 0 2 C0 1.34 0 0.68 0 0 Z " fill="#DE9F18" transform="translate(308,143)"/>
<path d="M0 0 C1.98 0 3.96 0 6 0 C7.32 2.31 8.64 4.62 10 7 C6.42032008 5.34784004 3.22017048 3.26875648 0 1 C0 0.67 0 0.34 0 0 Z " fill="#132848" transform="translate(150,107)"/>
<path d="M0 0 C3.465 1.485 3.465 1.485 7 3 C7 3.66 7 4.32 7 5 C4.03 5 1.06 5 -2 5 C-2 4.34 -2 3.68 -2 3 C-1.34 3 -0.68 3 0 3 C0 2.01 0 1.02 0 0 Z " fill="#4378D2" transform="translate(143,103)"/>
<path d="M0 0 C2.4375 0.8125 2.4375 0.8125 5 2 C5.33 2.99 5.66 3.98 6 5 C3.69 4.67 1.38 4.34 -1 4 C-0.67 2.68 -0.34 1.36 0 0 Z " fill="#0C140E" transform="translate(259,102)"/>
<path d="M0 0 C5.78461538 3.44615385 5.78461538 3.44615385 6.875 6.25 C6.936875 7.11625 6.936875 7.11625 7 8 C5.68 8 4.36 8 3 8 C0 2.25 0 2.25 0 0 Z " fill="#200E11" transform="translate(147,99)"/>
<path d="M0 0 C1.65 0 3.3 0 5 0 C1.98112756 3.48331435 -0.56909529 4.79157144 -5 6 C-4.67 5.01 -4.34 4.02 -4 3 C-2.68 3 -1.36 3 0 3 C0 2.01 0 1.02 0 0 Z " fill="#467BD4" transform="translate(203,185)"/>
<path d="M0 0 C1.32 0 2.64 0 4 0 C3.67 1.65 3.34 3.3 3 5 C2.34 5 1.68 5 1 5 C1 5.66 1 6.32 1 7 C0.34 7 -0.32 7 -1 7 C-0.67 4.69 -0.34 2.38 0 0 Z " fill="#1D1D1F" transform="translate(100,112)"/>
<path d="M0 0 C0.99 0 1.98 0 3 0 C3 3.96 3 7.92 3 12 C0.8008587 7.60171741 0.48144941 4.81449408 0 0 Z " fill="#0A1624" transform="translate(213,152)"/>
<path d="M0 0 C2.3125 -0.25 2.3125 -0.25 5 0 C6.8125 2 6.8125 2 8 4 C6.125 4.625 6.125 4.625 4 5 C3.34 4.34 2.68 3.68 2 3 C1.34 2.67 0.68 2.34 0 2 C0 1.34 0 0.68 0 0 Z " fill="#0D0F17" transform="translate(118,151)"/>
<path d="M0 0 C0.33 0.66 0.66 1.32 1 2 C-0.125 3.9375 -0.125 3.9375 -2 6 C-5.1875 6.75 -5.1875 6.75 -8 7 C-5.42215154 4.35247996 -3.08351902 2.05567935 0 0 Z " fill="#39130D" transform="translate(207,99)"/>
<path d="M0 0 C1.32 0 2.64 0 4 0 C4 0.66 4 1.32 4 2 C5.32 2.66 6.64 3.32 8 4 C7.01 5.485 7.01 5.485 6 7 C4.5 5.625 4.5 5.625 3 4 C3 3.34 3 2.68 3 2 C2.01 1.67 1.02 1.34 0 1 C0 0.67 0 0.34 0 0 Z " fill="#131113" transform="translate(162,183)"/>
<path d="M0 0 C1.98 0 3.96 0 6 0 C6.66 1.98 7.32 3.96 8 6 C4.63408134 4.55746343 2.48952921 2.66735273 0 0 Z " fill="#81817E" transform="translate(116,153)"/>
<path d="M0 0 C0.763125 0.20625 1.52625 0.4125 2.3125 0.625 C0.6625 2.275 -0.9875 3.925 -2.6875 5.625 C-3.0175 4.635 -3.3475 3.645 -3.6875 2.625 C-4.3475 2.295 -5.0075 1.965 -5.6875 1.625 C-2.6875 -0.375 -2.6875 -0.375 0 0 Z " fill="#251A06" transform="translate(260.6875,143.375)"/>
<path d="M0 0 C0.99 0 1.98 0 3 0 C3.28875 0.969375 3.5775 1.93875 3.875 2.9375 C4.64214682 6.10664203 4.64214682 6.10664203 7 7 C6.67 7.66 6.34 8.32 6 9 C0.42857143 3.85714286 0.42857143 3.85714286 0 0 Z " fill="#3E71C4" transform="translate(106,134)"/>
<path d="M0 0 C2.475 0.495 2.475 0.495 5 1 C5 1.66 5 2.32 5 3 C6.98 3.66 8.96 4.32 11 5 C10.01 5.495 10.01 5.495 9 6 C7.08984375 5.29296875 7.08984375 5.29296875 4.9375 4.1875 C4.22464844 3.83042969 3.51179687 3.47335938 2.77734375 3.10546875 C1 2 1 2 0 0 Z " fill="#A6A5A6" transform="translate(170,192)"/>
<path d="M0 0 C1.29640378 0.59393382 2.58698839 1.20057989 3.875 1.8125 C4.59429687 2.14894531 5.31359375 2.48539063 6.0546875 2.83203125 C8 4 8 4 10 7 C6.25418786 6.49380917 4.48705839 5.84235245 2 3 C1.34 2.67 0.68 2.34 0 2 C0 1.34 0 0.68 0 0 Z " fill="#0C1F3F" transform="translate(166,183)"/>
<path d="M0 0 C0.6875 1.8125 0.6875 1.8125 1 4 C-0.1875 5.8125 -0.1875 5.8125 -2 7 C-4.1875 6.6875 -4.1875 6.6875 -6 6 C-4 4 -2 2 0 0 Z " fill="#122743" transform="translate(210,182)"/>
<path d="M0 0 C0.99 0.66 1.98 1.32 3 2 C2.01 2.33 1.02 2.66 0 3 C0 3.66 0 4.32 0 5 C-1.98 5.99 -1.98 5.99 -4 7 C-4 5.68 -4 4.36 -4 3 C-2.68 2.67 -1.36 2.34 0 2 C0 1.34 0 0.68 0 0 Z " fill="#232223" transform="translate(355,144)"/>
<path d="M0 0 C1.9375 0.3125 1.9375 0.3125 4 1 C4.33 1.99 4.66 2.98 5 4 C1.25 5.125 1.25 5.125 -1 4 C-0.67 2.68 -0.34 1.36 0 0 Z " fill="#4073CA" transform="translate(170,122)"/>
<path d="M0 0 C3.70488428 0.92622107 5.16604069 1.67210485 8 4 C7.01 5.485 7.01 5.485 6 7 C4.02 4.69 2.04 2.38 0 0 Z " fill="#222625" transform="translate(251,99)"/>
<path d="M0 0 C0.66 0 1.32 0 2 0 C2.33 1.98 2.66 3.96 3 6 C1.68 5.34 0.36 4.68 -1 4 C-0.67 2.68 -0.34 1.36 0 0 Z " fill="#161614" transform="translate(254,185)"/>
<path d="M0 0 C6.64615385 1.47692308 6.64615385 1.47692308 8.4375 4.125 C8.7159375 5.053125 8.7159375 5.053125 9 6 C5.06326356 4.68775452 2.77280706 3.08089673 0 0 Z " fill="#3D6BB7" transform="translate(165,181)"/>
<path d="M0 0 C-0.33 1.32 -0.66 2.64 -1 4 C-2.32 4 -3.64 4 -5 4 C-5.66 4.66 -6.32 5.32 -7 6 C-6.75 4.125 -6.75 4.125 -6 2 C-3.85331506 0.61504198 -2.56128588 0 0 0 Z " fill="#120E0B" transform="translate(331,162)"/>
<path d="M0 0 C0.66 0 1.32 0 2 0 C4.09350689 3.4019487 4.17942163 6.05272412 4 10 C1.2027092 7.93243723 0.97307727 6.85559629 0.3125 3.3125 C0.209375 2.219375 0.10625 1.12625 0 0 Z " fill="#726E71" transform="translate(214,61)"/>
<path d="M0 0 C2.97 0.495 2.97 0.495 6 1 C6 1.66 6 2.32 6 3 C4.35 3.33 2.7 3.66 1 4 C0.67 2.68 0.34 1.36 0 0 Z " fill="#3A2403" transform="translate(262,190)"/>
<path d="M0 0 C2.4375 1.1875 2.4375 1.1875 3.4375 3.1875 C0.5625 3.375 0.5625 3.375 -2.5625 3.1875 C-3.2225 2.1975 -3.8825 1.2075 -4.5625 0.1875 C-2.5625 -0.8125 -2.5625 -0.8125 0 0 Z " fill="#0B1321" transform="translate(141.5625,164.8125)"/>
<path d="M0 0 C2.31 0.33 4.62 0.66 7 1 C6.67 2.32 6.34 3.64 6 5 C2.83884224 3.63016497 2.0072908 3.0109362 0 0 Z " fill="#3E6CBC" transform="translate(128,154)"/>
<path d="M0 0 C2.64 0.66 5.28 1.32 8 2 C8 2.99 8 3.98 8 5 C2.25 3.375 2.25 3.375 0 0 Z " fill="#473004" transform="translate(314,146)"/>
<path d="M0 0 C1.32 0.66 2.64 1.32 4 2 C-1.75 6 -1.75 6 -4 6 C-4 4 -4 4 -2 1.875 C-1.34 1.25625 -0.68 0.6375 0 0 Z " fill="#2F1E03" transform="translate(276,131)"/>
<path d="M0 0 C2.475 0.495 2.475 0.495 5 1 C5 1.66 5 2.32 5 3 C5.66 3.33 6.32 3.66 7 4 C6.67 4.66 6.34 5.32 6 6 C3.96166576 4.7260411 1.96147874 3.38938077 0 2 C0 1.34 0 0.68 0 0 Z " fill="#101E35" transform="translate(160,113)"/>
<path d="M0 0 C2.97 0.495 2.97 0.495 6 1 C6.33 2.32 6.66 3.64 7 5 C3.34683329 3.75023244 2.21934164 3.32901247 0 0 Z " fill="#B23C36" transform="translate(158,106)"/>
</svg>
