<?xml version="1.0" encoding="UTF-8"?>
<svg version="1.1" xmlns="http://www.w3.org/2000/svg" width="1920" height="390">
<path d="M0 0 C633.6 0 1267.2 0 1920 0 C1920 128.7 1920 257.4 1920 390 C1286.4 390 652.8 390 0 390 C0 261.3 0 132.6 0 0 Z " fill="#FEFEFE" transform="translate(0,0)"/>
<path d="M0 0 C0.76441406 -0.01611328 1.52882813 -0.03222656 2.31640625 -0.04882812 C12.83212521 -0.05775488 20.23695773 4.61008371 28.125 11.3125 C36.7814308 20.2235317 40.36792883 31.47324777 40.30126953 43.60668945 C40.11701672 55.34642845 35.59305107 66.56693584 27.46484375 75.2109375 C23.1050301 79.12676345 18.36653764 82.54025713 13.63671875 85.9921875 C8.72151231 89.58293711 3.9208928 93.31458975 -0.875 97.0625 C-2.06863159 97.99376709 -2.06863159 97.99376709 -3.28637695 98.94384766 C-5.15022375 100.39882809 -7.01313133 101.85498968 -8.875 103.3125 C-6.51399422 105.74066787 -4.17746516 107.94812663 -1.4375 109.9375 C3.96549341 113.91918357 9.27118222 118.02453371 14.58251953 122.12695312 C15.95395617 123.18103611 17.33382259 124.22413091 18.71484375 125.265625 C28.86806652 132.97166075 37.59929017 141.67142477 39.87890625 154.80859375 C41.35847829 169.86265217 39.18409579 182.35714638 29.53125 194.28125 C21.70360968 202.69965563 12.31072592 207.16157048 0.9375 207.6875 C-10.268852 207.42327256 -18.55215563 203.47664618 -26.875 196.3125 C-28.82414269 194.84190545 -30.78310544 193.38426583 -32.75 191.9375 C-37.73966382 188.21112257 -42.56700533 184.32533748 -47.3671875 180.359375 C-50.08535798 178.14080595 -52.86304194 176.03081141 -55.68359375 173.9453125 C-58.97038893 171.49632786 -62.20937133 168.9858145 -65.45556641 166.48339844 C-69.42879489 163.42218847 -73.41026421 160.37198581 -77.39624023 157.32739258 C-91.4573191 146.58712498 -91.4573191 146.58712498 -94.765625 143.96484375 C-96.35689509 142.71834885 -97.97675007 141.50822245 -99.609375 140.31640625 C-109.17160933 133.06719887 -116.0040768 123.37327278 -117.875 111.3125 C-118.9885922 97.92155384 -117.09093019 86.59585579 -108.85546875 75.62109375 C-105.53753014 71.7534375 -101.83628271 68.50447056 -97.875 65.3125 C-97.21113281 64.77496094 -96.54726562 64.23742187 -95.86328125 63.68359375 C-91.78739366 60.46170165 -87.61492006 57.36771985 -83.45385742 54.25732422 C-82.78845947 53.75990723 -82.12306152 53.26249023 -81.4375 52.75 C-80.75469971 52.23969238 -80.07189941 51.72938477 -79.3684082 51.20361328 C-71.89583396 45.60412534 -64.53658651 39.86178615 -57.17919922 34.11230469 C-51.10378452 29.3668123 -45.01650496 24.63653996 -38.92773438 19.90820312 C-37.0071661 18.41523997 -35.08935526 16.91880042 -33.171875 15.421875 C-13.29100279 -0.05547163 -13.29100279 -0.05547163 0 0 Z " fill="#4184F2" transform="translate(227.875,101.6875)"/>
<path d="M0 0 C6.11093166 3.50112887 12.2828428 7.31295739 17.5625 12 C17.5625 12.66 17.5625 13.32 17.5625 14 C18.08199219 14.23203125 18.60148437 14.4640625 19.13671875 14.703125 C22.40745552 16.45173145 25.37072442 18.58751175 28.375 20.75 C29.00519043 21.20173584 29.63538086 21.65347168 30.28466797 22.11889648 C33.91990606 24.74706901 37.39307576 27.45791409 40.73828125 30.44921875 C44.18630261 33.38040607 47.87684268 36.0047983 51.5078125 38.703125 C55.1341048 41.42980003 58.67055804 44.25525855 62.203125 47.1015625 C67.73804278 51.55515528 73.34912958 55.86301292 79.125 60 C80.94166147 61.32765776 82.75441881 62.6606806 84.5625 64 C85.29855469 64.54140625 86.03460938 65.0828125 86.79296875 65.640625 C95.98248621 72.96379946 100.88640381 83.52173414 102.5625 95 C103.82983773 107.02386668 100.87445419 118.11824546 93.51171875 127.75 C86.74408444 135.56193861 78.12708367 141.47552609 69.92578125 147.68359375 C65.93756623 150.70528827 61.990881 153.77606396 58.0625 156.875 C57.48193848 157.33253662 56.90137695 157.79007324 56.30322266 158.26147461 C54.72279564 159.50741368 53.14263778 160.75369414 51.5625 162 C48.57261838 164.34661965 45.56961049 166.67551251 42.5625 169 C41.90217773 169.51449707 41.24185547 170.02899414 40.56152344 170.55908203 C38.25300489 172.3566498 35.93932801 174.14741999 33.625 175.9375 C32.86598389 176.53030762 32.10696777 177.12311523 31.32495117 177.73388672 C30.25337769 178.55977295 30.25337769 178.55977295 29.16015625 179.40234375 C28.51570557 179.90241943 27.87125488 180.40249512 27.20727539 180.91772461 C25.5625 182 25.5625 182 23.5625 182 C23.5625 182.66 23.5625 183.32 23.5625 184 C20.79459406 186.50151524 17.69930573 188.61451304 14.6875 190.8125 C13.45386719 191.73772461 13.45386719 191.73772461 12.1953125 192.68164062 C1.53260344 200.52039783 -7.99245273 205.23147861 -21.4375 204 C-32.73912481 201.48997286 -40.51865831 197.32877531 -47.4375 188 C-54.94046027 176.05020516 -56.85969486 164.89554323 -55.4375 151 C-51.51114927 133.89232898 -39.3456996 125.01912004 -25.60546875 115.58203125 C-23.27779631 113.96894371 -23.27779631 113.96894371 -20.9375 111.5 C-17.20967818 107.77217818 -12.92745557 104.75754794 -8.4375 102 C-7.7775 102 -7.1175 102 -6.4375 102 C-6.4375 101.01 -6.4375 100.02 -6.4375 99 C-7.02523193 98.72164307 -7.61296387 98.44328613 -8.21850586 98.15649414 C-10.29914278 97.07210894 -12.06847293 95.90229136 -13.94140625 94.49609375 C-14.59431641 94.00713623 -15.24722656 93.51817871 -15.91992188 93.0144043 C-16.60634766 92.49402588 -17.29277344 91.97364746 -18 91.4375 C-18.71091797 90.9010083 -19.42183594 90.3645166 -20.15429688 89.81176758 C-26.03827467 85.3489538 -31.78265541 80.75080744 -37.4375 76 C-38.17613281 75.40832031 -38.91476562 74.81664062 -39.67578125 74.20703125 C-47.99962828 67.35670893 -54.53797589 57.87890545 -55.64892578 46.91308594 C-56.4590579 33.44572835 -54.75751785 22.02760986 -46.4375 11 C-38.72596477 2.87343423 -38.72596477 2.87343423 -33.4375 2 C-33.4375 1.34 -33.4375 0.68 -33.4375 0 C-22.49740637 -4.61805307 -10.849025 -5.2391102 0 0 Z " fill="#33A752" transform="translate(355.4375,105)"/>
<path d="M0 0 C0.76441406 -0.01611328 1.52882813 -0.03222656 2.31640625 -0.04882812 C12.83212521 -0.05775488 20.23695773 4.61008371 28.125 11.3125 C36.7814308 20.2235317 40.36792883 31.47324777 40.30126953 43.60668945 C40.11701672 55.34642845 35.59305107 66.56693584 27.46484375 75.2109375 C23.1050301 79.12676345 18.36653764 82.54025713 13.63671875 85.9921875 C8.72151231 89.58293711 3.9208928 93.31458975 -0.875 97.0625 C-2.06863159 97.99376709 -2.06863159 97.99376709 -3.28637695 98.94384766 C-5.15022375 100.39882809 -7.01313133 101.85498968 -8.875 103.3125 C-6.51399422 105.74066787 -4.17746516 107.94812663 -1.4375 109.9375 C3.96549341 113.91918357 9.27118222 118.02453371 14.58251953 122.12695312 C15.95395617 123.18103611 17.33382259 124.22413091 18.71484375 125.265625 C28.86806652 132.97166075 37.59929017 141.67142477 39.87890625 154.80859375 C41.35847829 169.86265217 39.18409579 182.35714638 29.53125 194.28125 C21.70360968 202.69965563 12.31072592 207.16157048 0.9375 207.6875 C-10.268852 207.42327256 -18.55215563 203.47664618 -26.875 196.3125 C-28.82414269 194.84190545 -30.78310544 193.38426583 -32.75 191.9375 C-37.73966382 188.21112257 -42.56700533 184.32533748 -47.3671875 180.359375 C-50.08535798 178.14080595 -52.86304194 176.03081141 -55.68359375 173.9453125 C-58.97038893 171.49632786 -62.20937133 168.9858145 -65.45556641 166.48339844 C-69.42879489 163.42218847 -73.41026421 160.37198581 -77.39624023 157.32739258 C-91.4573191 146.58712498 -91.4573191 146.58712498 -94.765625 143.96484375 C-96.35689509 142.71834885 -97.97675007 141.50822245 -99.609375 140.31640625 C-109.17160933 133.06719887 -116.0040768 123.37327278 -117.875 111.3125 C-118.9885922 97.92155384 -117.09093019 86.59585579 -108.85546875 75.62109375 C-105.53753014 71.7534375 -101.83628271 68.50447056 -97.875 65.3125 C-97.21113281 64.77496094 -96.54726562 64.23742187 -95.86328125 63.68359375 C-91.78739366 60.46170165 -87.61492006 57.36771985 -83.45385742 54.25732422 C-82.78845947 53.75990723 -82.12306152 53.26249023 -81.4375 52.75 C-80.75469971 52.23969238 -80.07189941 51.72938477 -79.3684082 51.20361328 C-71.89583396 45.60412534 -64.53658651 39.86178615 -57.17919922 34.11230469 C-51.10378452 29.3668123 -45.01650496 24.63653996 -38.92773438 19.90820312 C-37.0071661 18.41523997 -35.08935526 16.91880042 -33.171875 15.421875 C-13.29100279 -0.05547163 -13.29100279 -0.05547163 0 0 Z M-103.875 79.3125 C-111.16457192 88.52899118 -113.18490032 98.72300096 -111.875 110.3125 C-108.44278378 123.87356762 -101.466507 131.7930062 -89.9609375 139.171875 C-86.878855 141.3098259 -84.51652935 143.66274158 -81.875 146.3125 C-79.72606381 147.8656915 -77.58785822 149.35950957 -75.375 150.8125 C-71.08672903 153.62823245 -67.50260317 156.67928135 -63.875 160.3125 C-61.64507916 162.04909374 -59.32812955 163.64851008 -57 165.25 C-52.71753492 168.24926958 -48.60455555 171.27017004 -44.703125 174.7578125 C-41.23014795 177.71132717 -37.52040601 180.36422639 -33.859375 183.078125 C-31.2821699 185.00765552 -28.76184038 186.9869648 -26.25 189 C-16.53733789 196.56602302 -7.82219883 200.97017604 4.70703125 200.75390625 C12.8686607 199.6998901 20.18595616 195.30201817 25.6640625 189.22265625 C32.81237775 179.87632963 35.17991266 169.98247134 34.125 158.3125 C30.87347303 141.14037321 17.71403367 132.61572913 4.72314453 122.55078125 C2.66515524 120.9562011 0.61448937 119.35229005 -1.4375 117.75 C-4.48887041 115.37923265 -7.55273158 113.02510291 -10.61914062 110.67382812 C-15.09425608 107.24135779 -19.54829699 103.79241143 -23.9375 100.25 C-28.52122737 96.55775931 -33.22412237 93.04120663 -37.9453125 89.52734375 C-40.5926241 87.52597618 -43.17746322 85.47098489 -45.75 83.375 C-49.79812808 80.11946658 -53.92596699 76.99440045 -58.125 73.9375 C-58.99294189 73.29373413 -58.99294189 73.29373413 -59.87841797 72.63696289 C-74.65977752 62.00211228 -92.23703313 66.70662301 -103.875 79.3125 Z " fill="#E74234" transform="translate(227.875,101.6875)"/>
<path d="M0 0 C3.37657788 1.28024327 5.50512175 3.15441172 8.2109375 5.54296875 C12.95015435 9.64774442 17.82139041 13.4050163 22.93359375 17.04296875 C25.58482153 18.97965355 28.11460145 21.01831518 30.6484375 23.10546875 C34.78302147 26.47684701 39.08107871 29.18240806 43.75 31.75390625 C44.35585938 32.15867188 44.96171875 32.5634375 45.5859375 32.98046875 C45.5859375 33.64046875 45.5859375 34.30046875 45.5859375 34.98046875 C51.9105533 36.77045435 58.035039 37.52286922 64.5859375 37.98046875 C61.74192386 40.9567621 58.78032722 43.4250324 55.4609375 45.85546875 C50.23554458 49.71903782 45.08566769 53.67193883 39.9609375 57.66796875 C39.20071289 58.26037354 38.44048828 58.85277832 37.65722656 59.46313477 C35.29947236 61.30140468 32.94256156 63.1407503 30.5859375 64.98046875 C-6.54592437 93.96776997 -6.54592437 93.96776997 -20.4140625 92.98046875 C-23.15068176 92.45942369 -25.73397723 91.76012992 -28.4140625 90.98046875 C-28.4140625 90.32046875 -28.4140625 89.66046875 -28.4140625 88.98046875 C-29.6825 88.67109375 -29.6825 88.67109375 -30.9765625 88.35546875 C-40.84421498 84.40840776 -44.35308957 76.21516707 -48.4140625 66.98046875 C-51.53596084 57.61477372 -50.14595531 46.20491688 -45.890625 37.4921875 C-41.67641108 30.32356435 -36.01587989 25.89157681 -29.4140625 20.98046875 C-27.34563276 19.41034735 -25.2817191 17.83444409 -23.21899414 16.25683594 C-21.72551078 15.11538213 -20.22990429 13.97670082 -18.73217773 12.84082031 C-15.52098133 10.39873229 -12.33394802 7.9531771 -9.26953125 5.328125 C-8.40972656 4.59464844 -7.54992187 3.86117187 -6.6640625 3.10546875 C-5.94734375 2.46867188 -5.230625 1.831875 -4.4921875 1.17578125 C-2.4140625 -0.01953125 -2.4140625 -0.01953125 0 0 Z " fill="#F6A900" transform="translate(355.4140625,210.01953125)"/>
<path d="M0 0 C6.11093166 3.50112887 12.2828428 7.31295739 17.5625 12 C17.5625 12.66 17.5625 13.32 17.5625 14 C18.08199219 14.23203125 18.60148437 14.4640625 19.13671875 14.703125 C22.40745552 16.45173145 25.37072442 18.58751175 28.375 20.75 C29.00519043 21.20173584 29.63538086 21.65347168 30.28466797 22.11889648 C33.91990606 24.74706901 37.39307576 27.45791409 40.73828125 30.44921875 C44.18630261 33.38040607 47.87684268 36.0047983 51.5078125 38.703125 C55.1341048 41.42980003 58.67055804 44.25525855 62.203125 47.1015625 C67.73804278 51.55515528 73.34912958 55.86301292 79.125 60 C80.94166147 61.32765776 82.75441881 62.6606806 84.5625 64 C85.29855469 64.54140625 86.03460938 65.0828125 86.79296875 65.640625 C95.98248621 72.96379946 100.88640381 83.52173414 102.5625 95 C103.82983773 107.02386668 100.87445419 118.11824546 93.51171875 127.75 C86.74408444 135.56193861 78.12708367 141.47552609 69.92578125 147.68359375 C65.93756623 150.70528827 61.990881 153.77606396 58.0625 156.875 C57.48193848 157.33253662 56.90137695 157.79007324 56.30322266 158.26147461 C54.72279564 159.50741368 53.14263778 160.75369414 51.5625 162 C48.57261838 164.34661965 45.56961049 166.67551251 42.5625 169 C41.90217773 169.51449707 41.24185547 170.02899414 40.56152344 170.55908203 C38.25300489 172.3566498 35.93932801 174.14741999 33.625 175.9375 C32.86598389 176.53030762 32.10696777 177.12311523 31.32495117 177.73388672 C30.25337769 178.55977295 30.25337769 178.55977295 29.16015625 179.40234375 C28.51570557 179.90241943 27.87125488 180.40249512 27.20727539 180.91772461 C25.5625 182 25.5625 182 23.5625 182 C23.5625 182.66 23.5625 183.32 23.5625 184 C20.79459406 186.50151524 17.69930573 188.61451304 14.6875 190.8125 C13.45386719 191.73772461 13.45386719 191.73772461 12.1953125 192.68164062 C1.53260344 200.52039783 -7.99245273 205.23147861 -21.4375 204 C-32.73912481 201.48997286 -40.51865831 197.32877531 -47.4375 188 C-54.94046027 176.05020516 -56.85969486 164.89554323 -55.4375 151 C-51.51114927 133.89232898 -39.3456996 125.01912004 -25.60546875 115.58203125 C-23.27779631 113.96894371 -23.27779631 113.96894371 -20.9375 111.5 C-17.20967818 107.77217818 -12.92745557 104.75754794 -8.4375 102 C-7.7775 102 -7.1175 102 -6.4375 102 C-6.4375 101.01 -6.4375 100.02 -6.4375 99 C-7.02523193 98.72164307 -7.61296387 98.44328613 -8.21850586 98.15649414 C-10.29914278 97.07210894 -12.06847293 95.90229136 -13.94140625 94.49609375 C-14.59431641 94.00713623 -15.24722656 93.51817871 -15.91992188 93.0144043 C-16.60634766 92.49402588 -17.29277344 91.97364746 -18 91.4375 C-18.71091797 90.9010083 -19.42183594 90.3645166 -20.15429688 89.81176758 C-26.03827467 85.3489538 -31.78265541 80.75080744 -37.4375 76 C-38.17613281 75.40832031 -38.91476562 74.81664062 -39.67578125 74.20703125 C-47.99962828 67.35670893 -54.53797589 57.87890545 -55.64892578 46.91308594 C-56.4590579 33.44572835 -54.75751785 22.02760986 -46.4375 11 C-38.72596477 2.87343423 -38.72596477 2.87343423 -33.4375 2 C-33.4375 1.34 -33.4375 0.68 -33.4375 0 C-22.49740637 -4.61805307 -10.849025 -5.2391102 0 0 Z M-40.90625 13.83203125 C-48.49307293 24.57357902 -50.71791118 35.1314281 -49.4375 48 C-45.86330007 63.34290704 -33.51213058 71.77417657 -21.48632812 80.49316406 C-18.26707158 82.86080603 -15.13198964 85.33118528 -12 87.8125 C-11.12335693 88.50484741 -11.12335693 88.50484741 -10.22900391 89.21118164 C-8.63127005 90.47340511 -7.03435524 91.73666516 -5.4375 93 C0.9881375 98.04556072 7.48523082 102.99633962 13.98046875 107.95166016 C18.64190813 111.51406928 23.27044037 115.11448088 27.875 118.75 C29.56061592 120.07300971 31.24700017 121.39503382 32.93359375 122.71679688 C34.02046534 123.57300147 35.10381089 124.43370089 36.18359375 125.29882812 C47.19221724 134.1138017 55.25868475 137.43200881 69.5625 136 C77.88038962 134.07784669 84.42472181 129.46261786 89.3203125 122.5 C90.8386374 120.03547263 92.2581001 117.58387496 93.5625 115 C93.94019531 114.25492187 94.31789063 113.50984375 94.70703125 112.7421875 C95.9085602 108.89071115 95.90315415 105.26279475 95.875 101.25 C95.87081055 100.44594727 95.86662109 99.64189453 95.86230469 98.81347656 C95.64382424 87.35487424 91.70541375 79.92666464 83.59082031 71.89013672 C80.18773961 68.71889806 76.52380663 65.92305317 72.8125 63.125 C71.68134766 62.25488281 71.68134766 62.25488281 70.52734375 61.3671875 C66.34619987 58.14189464 66.34619987 58.14189464 61.5625 56 C61.2325 55.01 60.9025 54.02 60.5625 53 C58.53041591 51.40527515 56.50996695 49.94388267 54.375 48.5 C49.21047506 44.9143956 44.17597958 41.21991696 39.25 37.3125 C38.65920654 36.84448975 38.06841309 36.37647949 37.4597168 35.89428711 C36.3280904 34.99614315 35.19711617 34.09717669 34.06689453 33.19726562 C26.02271143 26.79533866 17.80133468 20.62733787 9.55029297 14.49560547 C8.19897239 13.47887864 6.85973552 12.44593298 5.53173828 11.39892578 C-3.02355623 4.72237642 -10.67581323 2.94351866 -21.44238281 3.74560547 C-28.9322353 4.70062582 -35.85872769 8.22779692 -40.90625 13.83203125 Z M-7.1875 108.75 C-11.79536532 112.66883873 -16.51014998 116.343574 -21.375 119.9375 C-36.00233128 130.05649669 -36.00233128 130.05649669 -46.4375 144 C-47.3346875 145.7015625 -47.3346875 145.7015625 -48.25 147.4375 C-51.62637327 157.33242051 -50.43587742 169.17576186 -45.91796875 178.4140625 C-41.91155961 185.41206475 -37.89600305 190.5059265 -30.4375 194 C-29.7775 194 -29.1175 194 -28.4375 194 C-28.4375 194.66 -28.4375 195.32 -28.4375 196 C-19.39212009 198.63138325 -11.07132967 199.34966836 -2.4375 195 C5.49592757 189.9180891 12.83689773 184.08877902 20.07421875 178.06640625 C30.55664775 169.36121796 41.60613301 161.29698993 52.4453125 153.04296875 C53.60944007 152.15373101 54.77350639 151.26441308 55.9375 150.375 C57.46503906 149.21097656 57.46503906 149.21097656 59.0234375 148.0234375 C61.02049296 146.43193792 62.82138637 144.85955674 64.5625 143 C63.52609375 142.86722656 62.4896875 142.73445313 61.421875 142.59765625 C60.05206735 142.41939361 58.68227656 142.24100138 57.3125 142.0625 C56.63058594 141.97548828 55.94867188 141.88847656 55.24609375 141.79882812 C51.96213389 141.3684062 48.75059706 140.91205869 45.5625 140 C45.5625 139.34 45.5625 138.68 45.5625 138 C43.64718622 136.68259203 43.64718622 136.68259203 41.1875 135.375 C36.51888069 132.66418879 32.42062226 129.62472835 28.2578125 126.19921875 C24.72531654 123.31690683 21.09871552 120.56287313 17.46972656 117.80419922 C14.73685677 115.71450038 12.05046261 113.59251289 9.4296875 111.36328125 C8.46289062 110.54214844 7.49609375 109.72101563 6.5 108.875 C5.64277344 108.12992187 4.78554688 107.38484375 3.90234375 106.6171875 C-0.83785143 103.3409925 -3.38051369 105.41593125 -7.1875 108.75 Z " fill="#181915" transform="translate(355.4375,105)"/>
<path d="M0 0 C0.76441406 -0.01611328 1.52882813 -0.03222656 2.31640625 -0.04882812 C12.83212521 -0.05775488 20.23695773 4.61008371 28.125 11.3125 C36.7814308 20.2235317 40.36792883 31.47324777 40.30126953 43.60668945 C40.11701672 55.34642845 35.59305107 66.56693584 27.46484375 75.2109375 C23.1050301 79.12676345 18.36653764 82.54025713 13.63671875 85.9921875 C8.72151231 89.58293711 3.9208928 93.31458975 -0.875 97.0625 C-2.06863159 97.99376709 -2.06863159 97.99376709 -3.28637695 98.94384766 C-5.15022375 100.39882809 -7.01313133 101.85498968 -8.875 103.3125 C-6.51399422 105.74066787 -4.17746516 107.94812663 -1.4375 109.9375 C3.96549341 113.91918357 9.27118222 118.02453371 14.58251953 122.12695312 C15.95395617 123.18103611 17.33382259 124.22413091 18.71484375 125.265625 C28.86806652 132.97166075 37.59929017 141.67142477 39.87890625 154.80859375 C41.35847829 169.86265217 39.18409579 182.35714638 29.53125 194.28125 C21.70360968 202.69965563 12.31072592 207.16157048 0.9375 207.6875 C-10.268852 207.42327256 -18.55215563 203.47664618 -26.875 196.3125 C-28.82414269 194.84190545 -30.78310544 193.38426583 -32.75 191.9375 C-37.73966382 188.21112257 -42.56700533 184.32533748 -47.3671875 180.359375 C-50.08535798 178.14080595 -52.86304194 176.03081141 -55.68359375 173.9453125 C-58.97038893 171.49632786 -62.20937133 168.9858145 -65.45556641 166.48339844 C-69.42879489 163.42218847 -73.41026421 160.37198581 -77.39624023 157.32739258 C-91.4573191 146.58712498 -91.4573191 146.58712498 -94.765625 143.96484375 C-96.35689509 142.71834885 -97.97675007 141.50822245 -99.609375 140.31640625 C-109.17160933 133.06719887 -116.0040768 123.37327278 -117.875 111.3125 C-118.9885922 97.92155384 -117.09093019 86.59585579 -108.85546875 75.62109375 C-105.53753014 71.7534375 -101.83628271 68.50447056 -97.875 65.3125 C-97.21113281 64.77496094 -96.54726562 64.23742187 -95.86328125 63.68359375 C-91.78739366 60.46170165 -87.61492006 57.36771985 -83.45385742 54.25732422 C-82.78845947 53.75990723 -82.12306152 53.26249023 -81.4375 52.75 C-80.75469971 52.23969238 -80.07189941 51.72938477 -79.3684082 51.20361328 C-71.89583396 45.60412534 -64.53658651 39.86178615 -57.17919922 34.11230469 C-51.10378452 29.3668123 -45.01650496 24.63653996 -38.92773438 19.90820312 C-37.0071661 18.41523997 -35.08935526 16.91880042 -33.171875 15.421875 C-13.29100279 -0.05547163 -13.29100279 -0.05547163 0 0 Z M-23.875 16.3125 C-23.875 16.9725 -23.875 17.6325 -23.875 18.3125 C-24.56207031 18.53808594 -25.24914062 18.76367188 -25.95703125 18.99609375 C-29.61314617 20.6455057 -32.44617777 22.87982467 -35.5625 25.375 C-41.67642857 30.21321429 -41.67642857 30.21321429 -43.875 31.3125 C-43.875 31.9725 -43.875 32.6325 -43.875 33.3125 C-44.64070313 33.6528125 -44.64070313 33.6528125 -45.421875 34 C-48.85268678 35.83559357 -51.95770021 38.05933958 -55.125 40.3125 C-55.7746875 40.76367188 -56.424375 41.21484375 -57.09375 41.6796875 C-58.72575709 42.83854968 -60.3054825 44.07031503 -61.875 45.3125 C-61.875 45.9725 -61.875 46.6325 -61.875 47.3125 C-62.38546875 47.539375 -62.8959375 47.76625 -63.421875 48 C-66.85268678 49.83559357 -69.95770021 52.05933958 -73.125 54.3125 C-73.7746875 54.76367188 -74.424375 55.21484375 -75.09375 55.6796875 C-76.72575709 56.83854968 -78.3054825 58.07031503 -79.875 59.3125 C-79.875 59.9725 -79.875 60.6325 -79.875 61.3125 C-78.29912109 61.55033203 -78.29912109 61.55033203 -76.69140625 61.79296875 C-62.28216674 64.11604195 -53.66559835 69.98828752 -42.45996094 79.03466797 C-33.78250427 86.03063349 -24.80236489 92.64162243 -15.875 99.3125 C-12.33875508 97.61077042 -9.38456024 95.56116435 -6.25 93.1875 C-5.4604895 92.59026123 -5.4604895 92.59026123 -4.6550293 91.98095703 C-0.46378306 88.79598891 3.65511991 85.52615315 7.75 82.21875 C10.08307163 80.34615303 12.44250218 78.51303886 14.8125 76.6875 C16.25090959 75.56366323 17.68846018 74.43872582 19.125 73.3125 C19.76566406 72.82136719 20.40632813 72.33023438 21.06640625 71.82421875 C27.58962184 66.59719287 31.76542596 59.88675355 33.75 51.75 C35.13969387 39.0111395 33.85857617 29.00297478 26.08203125 18.57421875 C20.61474306 12.25573599 13.70889327 7.83116682 5.29296875 6.87890625 C-6.30700079 6.86752257 -14.79507433 8.81169184 -23.875 16.3125 Z M-103.875 79.3125 C-111.16457192 88.52899118 -113.18490032 98.72300096 -111.875 110.3125 C-108.44278378 123.87356762 -101.466507 131.7930062 -89.9609375 139.171875 C-86.878855 141.3098259 -84.51652935 143.66274158 -81.875 146.3125 C-79.72606381 147.8656915 -77.58785822 149.35950957 -75.375 150.8125 C-71.08672903 153.62823245 -67.50260317 156.67928135 -63.875 160.3125 C-61.64507916 162.04909374 -59.32812955 163.64851008 -57 165.25 C-52.71753492 168.24926958 -48.60455555 171.27017004 -44.703125 174.7578125 C-41.23014795 177.71132717 -37.52040601 180.36422639 -33.859375 183.078125 C-31.2821699 185.00765552 -28.76184038 186.9869648 -26.25 189 C-16.53733789 196.56602302 -7.82219883 200.97017604 4.70703125 200.75390625 C12.8686607 199.6998901 20.18595616 195.30201817 25.6640625 189.22265625 C32.81237775 179.87632963 35.17991266 169.98247134 34.125 158.3125 C30.87347303 141.14037321 17.71403367 132.61572913 4.72314453 122.55078125 C2.66515524 120.9562011 0.61448937 119.35229005 -1.4375 117.75 C-4.48887041 115.37923265 -7.55273158 113.02510291 -10.61914062 110.67382812 C-15.09425608 107.24135779 -19.54829699 103.79241143 -23.9375 100.25 C-28.52122737 96.55775931 -33.22412237 93.04120663 -37.9453125 89.52734375 C-40.5926241 87.52597618 -43.17746322 85.47098489 -45.75 83.375 C-49.79812808 80.11946658 -53.92596699 76.99440045 -58.125 73.9375 C-58.99294189 73.29373413 -58.99294189 73.29373413 -59.87841797 72.63696289 C-74.65977752 62.00211228 -92.23703313 66.70662301 -103.875 79.3125 Z " fill="#181819" transform="translate(227.875,101.6875)"/>
<path d="M0 0 C1.29550781 -0.02578125 2.59101562 -0.0515625 3.92578125 -0.078125 C7.88333975 0.2670826 10.29204069 1.24957436 13.6875 3.25 C13.6875 3.91 13.6875 4.57 13.6875 5.25 C14.30625 5.53875 14.925 5.8275 15.5625 6.125 C17.6875 7.25 17.6875 7.25 19.6875 9.25 C20.0175 6.94 20.3475 4.63 20.6875 2.25 C23.9875 2.25 27.2875 2.25 30.6875 2.25 C30.78074882 11.02189151 30.85154022 19.79360879 30.89474869 28.56589031 C30.91550111 32.64054228 30.94358837 36.71485172 30.98925781 40.78930664 C31.0331622 44.73158377 31.05672956 48.67353436 31.06700897 52.61603737 C31.07432134 54.10974064 31.08859716 55.60342885 31.11042023 57.09699059 C31.26802877 68.34521248 30.63556902 79.58439584 23.5 88.8125 C16.7506069 95.47734955 10.35665138 96.60093066 1.125 96.75 C0.3215918 96.76869141 -0.48181641 96.78738281 -1.30957031 96.80664062 C-8.193202 96.73326038 -13.32342226 94.82248154 -18.5546875 90.3203125 C-21.79834568 86.4558585 -24.17722175 83.2956811 -25.3125 78.25 C-18.6875 74.25 -18.6875 74.25 -15.3125 74.25 C-14.13671875 75.89453125 -14.13671875 75.89453125 -13 78.0625 C-10.58649533 82.07317688 -8.96398812 83.89683982 -4.3125 85.25 C2.165157 85.87370838 8.21853063 86.21500279 13.6875 82.25 C18.63032614 77.03257241 19.95614333 72.54784484 19.8125 65.4375 C19.79445313 64.27605469 19.77640625 63.11460937 19.7578125 61.91796875 C19.73460937 61.03753906 19.71140625 60.15710938 19.6875 59.25 C19.0275 59.9925 18.3675 60.735 17.6875 61.5 C12.2445685 66.79215778 7.3057273 68.51371274 -0.3125 68.75 C-7.83627052 68.51664241 -12.18491586 66.78185382 -17.9375 62.125 C-26.85505596 51.33006384 -29.24313937 40.90896501 -28.5078125 27.24414062 C-27.67574994 18.74878187 -22.58925629 10.97491677 -16.25390625 5.45703125 C-10.74908072 1.20467978 -7.05669781 0.08375902 0 0 Z " fill="#242424" transform="translate(772.3125,127.75)"/>
<path d="M0 0 C9.50075208 5.91556261 14.96907508 12.26656775 18.5625 22.6875 C21.1138112 34.49311272 19.32657626 45.07023812 13.375 55.4375 C8.22573011 61.99111622 3.56765684 66.33158002 -4.6875 68.0625 C-12.5158633 68.67920386 -19.32766621 68.24765589 -25.5625 63.0625 C-27.4144573 61.40155175 -28.57193276 60.29363449 -29.6875 58.0625 C-30.0175 69.9425 -30.3475 81.8225 -30.6875 94.0625 C-33.9875 94.0625 -37.2875 94.0625 -40.6875 94.0625 C-40.6875 63.3725 -40.6875 32.6825 -40.6875 1.0625 C-37.3875 1.0625 -34.0875 1.0625 -30.6875 1.0625 C-30.3575 3.7025 -30.0275 6.3425 -29.6875 9.0625 C-29.0275 8.155 -28.3675 7.2475 -27.6875 6.3125 C-20.47217696 -2.14546201 -10.35581633 -2.63283466 0 0 Z " fill="#262626" transform="translate(1774.6875,128.9375)"/>
<path d="M0 0 C9.50075208 5.91556261 14.96907508 12.26656775 18.5625 22.6875 C21.1138112 34.49311272 19.32657626 45.07023812 13.375 55.4375 C8.22573011 61.99111622 3.56765684 66.33158002 -4.6875 68.0625 C-12.5158633 68.67920386 -19.32766621 68.24765589 -25.5625 63.0625 C-27.4144573 61.40155175 -28.57193276 60.29363449 -29.6875 58.0625 C-30.0175 69.9425 -30.3475 81.8225 -30.6875 94.0625 C-33.9875 94.0625 -37.2875 94.0625 -40.6875 94.0625 C-40.6875 63.3725 -40.6875 32.6825 -40.6875 1.0625 C-37.3875 1.0625 -34.0875 1.0625 -30.6875 1.0625 C-30.3575 3.7025 -30.0275 6.3425 -29.6875 9.0625 C-29.0275 8.155 -28.3675 7.2475 -27.6875 6.3125 C-20.47217696 -2.14546201 -10.35581633 -2.63283466 0 0 Z " fill="#262626" transform="translate(1314.6875,128.9375)"/>
<path d="M0 0 C2.66942957 1.81735719 4.6683352 3.71591298 6.75 6.19140625 C7.25402344 6.77921875 7.75804687 7.36703125 8.27734375 7.97265625 C16.32806716 17.89335209 16.78999848 28.08856383 15.50390625 40.58203125 C13.66942904 49.88680224 7.43147175 57.92411134 -0.25 63.19140625 C-7.31754402 67.41083552 -15.90227877 67.09904701 -23.8046875 65.7578125 C-31.83101327 63.52210584 -37.20406858 58.19935759 -41.625 51.31640625 C-46.87457429 41.815818 -48.09037916 30.54398902 -45.4453125 19.9765625 C-42.1820306 11.23321755 -36.52629296 3.12643452 -28.1875 -1.43359375 C-19.65928122 -4.58109101 -8.00599015 -4.35174086 0 0 Z " fill="#252525" transform="translate(1648.25,130.80859375)"/>
<path d="M0 0 C2.66942957 1.81735719 4.6683352 3.71591298 6.75 6.19140625 C7.25402344 6.77921875 7.75804687 7.36703125 8.27734375 7.97265625 C16.32806716 17.89335209 16.78999848 28.08856383 15.50390625 40.58203125 C13.66942904 49.88680224 7.43147175 57.92411134 -0.25 63.19140625 C-7.31754402 67.41083552 -15.90227877 67.09904701 -23.8046875 65.7578125 C-31.83101327 63.52210584 -37.20406858 58.19935759 -41.625 51.31640625 C-46.87457429 41.815818 -48.09037916 30.54398902 -45.4453125 19.9765625 C-42.1820306 11.23321755 -36.52629296 3.12643452 -28.1875 -1.43359375 C-19.65928122 -4.58109101 -8.00599015 -4.35174086 0 0 Z " fill="#252525" transform="translate(1250.25,130.80859375)"/>
<path d="M0 0 C2.66942957 1.81735719 4.6683352 3.71591298 6.75 6.19140625 C7.25402344 6.77921875 7.75804687 7.36703125 8.27734375 7.97265625 C16.32806716 17.89335209 16.78999848 28.08856383 15.50390625 40.58203125 C13.66942904 49.88680224 7.43147175 57.92411134 -0.25 63.19140625 C-7.31754402 67.41083552 -15.90227877 67.09904701 -23.8046875 65.7578125 C-31.83101327 63.52210584 -37.20406858 58.19935759 -41.625 51.31640625 C-46.87457429 41.815818 -48.09037916 30.54398902 -45.4453125 19.9765625 C-42.1820306 11.23321755 -36.52629296 3.12643452 -28.1875 -1.43359375 C-19.65928122 -4.58109101 -8.00599015 -4.35174086 0 0 Z " fill="#252525" transform="translate(723.25,130.80859375)"/>
<path d="M0 0 C2.66942957 1.81735719 4.6683352 3.71591298 6.75 6.19140625 C7.25402344 6.77921875 7.75804687 7.36703125 8.27734375 7.97265625 C16.32806716 17.89335209 16.78999848 28.08856383 15.50390625 40.58203125 C13.66942904 49.88680224 7.43147175 57.92411134 -0.25 63.19140625 C-7.31754402 67.41083552 -15.90227877 67.09904701 -23.8046875 65.7578125 C-31.83101327 63.52210584 -37.20406858 58.19935759 -41.625 51.31640625 C-46.87457429 41.815818 -48.09037916 30.54398902 -45.4453125 19.9765625 C-42.1820306 11.23321755 -36.52629296 3.12643452 -28.1875 -1.43359375 C-19.65928122 -4.58109101 -8.00599015 -4.35174086 0 0 Z " fill="#252525" transform="translate(657.25,130.80859375)"/>
<path d="M0 0 C22 0 22 0 32 3 C32 3.66 32 4.32 32 5 C32.680625 5.165 33.36125 5.33 34.0625 5.5 C40.49800356 8.78621458 44.9264581 15.111543 47.34375 21.83203125 C49.64764881 32.9538285 49.62665487 46.59974325 43.48828125 56.41796875 C37.91654001 64.09319882 33.12633529 67.39247563 24 70 C16.08 70 8.16 70 0 70 C0 46.9 0 23.8 0 0 Z " fill="#FAFAFA" transform="translate(939,114)"/>
<path d="M0 0 C0.91523437 -0.00322266 1.83046875 -0.00644531 2.7734375 -0.00976562 C14.11681732 0.0803913 22.87352027 4.9445509 31.375 12.3125 C30.06275452 16.24923644 28.45589673 18.53969294 25.375 21.3125 C22.62839223 20.15047364 20.96962756 18.93608274 18.75 16.875 C12.7535965 11.79533989 4.82947175 10.72234273 -2.81640625 10.9609375 C-10.51786715 11.92495903 -16.56737153 14.439125 -21.625 20.3125 C-22.285 20.3125 -22.945 20.3125 -23.625 20.3125 C-24.04072266 21.14587891 -24.04072266 21.14587891 -24.46484375 21.99609375 C-25.26540517 23.5945211 -26.07036798 25.19074901 -26.87890625 26.78515625 C-27.31074219 27.63980469 -27.74257812 28.49445313 -28.1875 29.375 C-28.83912109 30.66083984 -28.83912109 30.66083984 -29.50390625 31.97265625 C-33.38256377 40.06783344 -33.22415014 51.93672171 -31.0625 60.55517578 C-28.28400747 68.33004719 -23.58963236 74.83148182 -16.625 79.3125 C-15.98304687 79.74175781 -15.34109375 80.17101562 -14.6796875 80.61328125 C-7.03678859 84.84157704 3.14306648 84.61384387 11.453125 82.546875 C19.05660257 79.67849724 23.620125 75.84017321 27.125 68.4375 C27.42792969 67.83808594 27.73085937 67.23867187 28.04296875 66.62109375 C29.97135972 62.67003491 30.62790038 59.7950977 31.375 55.3125 C21.145 55.3125 10.915 55.3125 0.375 55.3125 C0.375 51.6825 0.375 48.0525 0.375 44.3125 C13.905 44.3125 27.435 44.3125 41.375 44.3125 C41.375 65.49731848 41.375 65.49731848 37.375 73.3125 C36.86646484 74.364375 36.86646484 74.364375 36.34765625 75.4375 C30.98553151 85.20763475 21.99157282 91.52201252 11.58984375 94.890625 C0.19611976 97.06085814 -12.50980732 95.76347826 -22.375 89.5625 C-33.01613867 81.84767446 -40.47017596 71.53007623 -43.21484375 58.515625 C-45.2106657 42.92920594 -43.11103481 29.22826823 -33.625 16.3125 C-29.84990698 11.9589055 -25.90448988 7.79696583 -20.625 5.3125 C-19.965 5.3125 -19.305 5.3125 -18.625 5.3125 C-18.625 4.6525 -18.625 3.9925 -18.625 3.3125 C-12.21588612 0.46817428 -6.9709116 -0.12377329 0 0 Z " fill="#272727" transform="translate(1514.625,101.6875)"/>
<path d="M0 0 C0.91523437 -0.00322266 1.83046875 -0.00644531 2.7734375 -0.00976562 C14.11681732 0.0803913 22.87352027 4.9445509 31.375 12.3125 C30.06275452 16.24923644 28.45589673 18.53969294 25.375 21.3125 C22.62839223 20.15047364 20.96962756 18.93608274 18.75 16.875 C12.7535965 11.79533989 4.82947175 10.72234273 -2.81640625 10.9609375 C-10.51786715 11.92495903 -16.56737153 14.439125 -21.625 20.3125 C-22.285 20.3125 -22.945 20.3125 -23.625 20.3125 C-24.04072266 21.14587891 -24.04072266 21.14587891 -24.46484375 21.99609375 C-25.26540517 23.5945211 -26.07036798 25.19074901 -26.87890625 26.78515625 C-27.31074219 27.63980469 -27.74257813 28.49445313 -28.1875 29.375 C-28.83912109 30.66083984 -28.83912109 30.66083984 -29.50390625 31.97265625 C-33.38256377 40.06783344 -33.22415014 51.93672171 -31.0625 60.55517578 C-28.28400747 68.33004719 -23.58963236 74.83148182 -16.625 79.3125 C-15.98304688 79.74175781 -15.34109375 80.17101562 -14.6796875 80.61328125 C-7.03678859 84.84157704 3.14306648 84.61384387 11.453125 82.546875 C19.05660257 79.67849724 23.620125 75.84017321 27.125 68.4375 C27.42792969 67.83808594 27.73085938 67.23867187 28.04296875 66.62109375 C29.97135972 62.67003491 30.62790038 59.7950977 31.375 55.3125 C21.145 55.3125 10.915 55.3125 0.375 55.3125 C0.375 51.6825 0.375 48.0525 0.375 44.3125 C13.905 44.3125 27.435 44.3125 41.375 44.3125 C41.375 65.49731848 41.375 65.49731848 37.375 73.3125 C36.86646484 74.364375 36.86646484 74.364375 36.34765625 75.4375 C30.98553151 85.20763475 21.99157282 91.52201252 11.58984375 94.890625 C0.19611976 97.06085814 -12.50980732 95.76347826 -22.375 89.5625 C-33.01613867 81.84767446 -40.47017596 71.53007623 -43.21484375 58.515625 C-45.2106657 42.92920594 -43.11103481 29.22826823 -33.625 16.3125 C-29.84990698 11.9589055 -25.90448988 7.79696583 -20.625 5.3125 C-19.965 5.3125 -19.305 5.3125 -18.625 5.3125 C-18.625 4.6525 -18.625 3.9925 -18.625 3.3125 C-12.21588612 0.46817428 -6.9709116 -0.12377329 0 0 Z " fill="#272727" transform="translate(562.625,101.6875)"/>
<path d="M0 0 C32 0 32 0 38 1 C38 1.66 38 2.32 38 3 C38.78375 3.04125 39.5675 3.0825 40.375 3.125 C49.38595367 5.30005778 56.6257808 11.20658117 61.625 18.875 C69.14844225 31.46910082 71.06554564 44.82060514 67.875 59.1875 C64.78356526 69.82146302 60.35043835 78.64170192 51 85 C50.34 85 49.68 85 49 85 C49 85.66 49 86.32 49 87 C32.61268627 94.51085213 19.95862418 92 0 92 C0 61.64 0 31.28 0 0 Z M10 11 C10 34.1 10 57.2 10 81 C31.78223259 82.32875427 31.78223259 82.32875427 49.2109375 72.953125 C57.81695236 63.55791227 58.66953246 52.93550846 58.3671875 40.71484375 C57.86442107 31.78449955 54.8644287 25.32638548 48.3125 19.25 C45.50261163 16.69755378 45.50261163 16.69755378 42 16 C42 15.34 42 14.68 42 14 C30.22802137 9.94639109 30.22802137 9.94639109 10 11 Z " fill="#262626" transform="translate(929,103)"/>
<path d="M0 0 C6.71434283 3.55888987 11.30640012 11.38650541 14.1953125 18.21484375 C15.11384561 23.72604242 14.8203125 29.37762495 14.8203125 34.96484375 C-0.6896875 34.96484375 -16.1996875 34.96484375 -32.1796875 34.96484375 C-30.13547152 45.71874656 -30.13547152 45.71874656 -24.1796875 52.96484375 C-19.29217766 55.73135875 -14.74457808 56.87863575 -9.1796875 55.96484375 C-4.38926268 54.56566026 -0.45983402 52.95370182 2.3828125 48.71484375 C2.8571875 47.80734375 3.3315625 46.89984375 3.8203125 45.96484375 C7.77852109 46.53030212 10.4862178 47.77386723 13.8203125 49.96484375 C10.26464697 57.22432755 5.32100287 62.89207804 -2.3671875 65.90234375 C-10.763529 68.22257629 -19.54743254 68.17972842 -27.32421875 64.0859375 C-34.87518352 59.5235651 -40.21173521 52.25515995 -42.70703125 43.73828125 C-44.83696435 31.24032669 -43.7152465 19.46506237 -36.5546875 8.77734375 C-35.3790625 7.38515625 -35.3790625 7.38515625 -34.1796875 5.96484375 C-33.5196875 5.96484375 -32.8596875 5.96484375 -32.1796875 5.96484375 C-31.8496875 4.97484375 -31.5196875 3.98484375 -31.1796875 2.96484375 C-22.37284271 -3.84655037 -10.10062361 -4.04397661 0 0 Z " fill="#252525" transform="translate(1382.1796875,130.03515625)"/>
<path d="M0 0 C6.71434283 3.55888987 11.30640012 11.38650541 14.1953125 18.21484375 C15.11384561 23.72604242 14.8203125 29.37762495 14.8203125 34.96484375 C-0.6896875 34.96484375 -16.1996875 34.96484375 -32.1796875 34.96484375 C-30.13547152 45.71874656 -30.13547152 45.71874656 -24.1796875 52.96484375 C-19.29217766 55.73135875 -14.74457808 56.87863575 -9.1796875 55.96484375 C-4.38926268 54.56566026 -0.45983402 52.95370182 2.3828125 48.71484375 C2.8571875 47.80734375 3.3315625 46.89984375 3.8203125 45.96484375 C7.77852109 46.53030212 10.4862178 47.77386723 13.8203125 49.96484375 C10.26464697 57.22432755 5.32100287 62.89207804 -2.3671875 65.90234375 C-10.763529 68.22257629 -19.54743254 68.17972842 -27.32421875 64.0859375 C-34.87518352 59.5235651 -40.21173521 52.25515995 -42.70703125 43.73828125 C-44.83696435 31.24032669 -43.7152465 19.46506237 -36.5546875 8.77734375 C-35.3790625 7.38515625 -35.3790625 7.38515625 -34.1796875 5.96484375 C-33.5196875 5.96484375 -32.8596875 5.96484375 -32.1796875 5.96484375 C-31.8496875 4.97484375 -31.5196875 3.98484375 -31.1796875 2.96484375 C-22.37284271 -3.84655037 -10.10062361 -4.04397661 0 0 Z " fill="#252525" transform="translate(1162.1796875,130.03515625)"/>
<path d="M0 0 C6.71434283 3.55888987 11.30640012 11.38650541 14.1953125 18.21484375 C15.11384561 23.72604242 14.8203125 29.37762495 14.8203125 34.96484375 C-0.6896875 34.96484375 -16.1996875 34.96484375 -32.1796875 34.96484375 C-30.13547152 45.71874656 -30.13547152 45.71874656 -24.1796875 52.96484375 C-19.29217766 55.73135875 -14.74457808 56.87863575 -9.1796875 55.96484375 C-4.38926268 54.56566026 -0.45983402 52.95370182 2.3828125 48.71484375 C2.8571875 47.80734375 3.3315625 46.89984375 3.8203125 45.96484375 C7.77852109 46.53030212 10.4862178 47.77386723 13.8203125 49.96484375 C10.26464697 57.22432755 5.32100287 62.89207804 -2.3671875 65.90234375 C-10.763529 68.22257629 -19.54743254 68.17972842 -27.32421875 64.0859375 C-34.87518352 59.5235651 -40.21173521 52.25515995 -42.70703125 43.73828125 C-44.83696435 31.24032669 -43.7152465 19.46506237 -36.5546875 8.77734375 C-35.3790625 7.38515625 -35.3790625 7.38515625 -34.1796875 5.96484375 C-33.5196875 5.96484375 -32.8596875 5.96484375 -32.1796875 5.96484375 C-31.8496875 4.97484375 -31.5196875 3.98484375 -31.1796875 2.96484375 C-22.37284271 -3.84655037 -10.10062361 -4.04397661 0 0 Z " fill="#252525" transform="translate(1047.1796875,130.03515625)"/>
<path d="M0 0 C6.71434283 3.55888987 11.30640012 11.38650541 14.1953125 18.21484375 C15.11384561 23.72604242 14.8203125 29.37762495 14.8203125 34.96484375 C-0.6896875 34.96484375 -16.1996875 34.96484375 -32.1796875 34.96484375 C-30.13547152 45.71874656 -30.13547152 45.71874656 -24.1796875 52.96484375 C-19.29217766 55.73135875 -14.74457808 56.87863575 -9.1796875 55.96484375 C-4.38926268 54.56566026 -0.45983402 52.95370182 2.3828125 48.71484375 C2.8571875 47.80734375 3.3315625 46.89984375 3.8203125 45.96484375 C7.77852109 46.53030212 10.4862178 47.77386723 13.8203125 49.96484375 C10.26464697 57.22432755 5.32100287 62.89207804 -2.3671875 65.90234375 C-10.763529 68.22257629 -19.54743254 68.17972842 -27.32421875 64.0859375 C-34.87518352 59.5235651 -40.21173521 52.25515995 -42.70703125 43.73828125 C-44.83696435 31.24032669 -43.7152465 19.46506237 -36.5546875 8.77734375 C-35.3790625 7.38515625 -35.3790625 7.38515625 -34.1796875 5.96484375 C-33.5196875 5.96484375 -32.8596875 5.96484375 -32.1796875 5.96484375 C-31.8496875 4.97484375 -31.5196875 3.98484375 -31.1796875 2.96484375 C-22.37284271 -3.84655037 -10.10062361 -4.04397661 0 0 Z " fill="#252525" transform="translate(876.1796875,130.03515625)"/>
<path d="M0 0 C3.3 0 6.6 0 10 0 C10.01458252 1.32652588 10.02916504 2.65305176 10.04418945 4.01977539 C10.10234122 8.9606364 10.17957334 13.90104972 10.26245117 18.84155273 C10.29562117 20.97624422 10.32367758 23.11102173 10.34643555 25.24584961 C10.38012717 28.32182331 10.43245103 31.39701426 10.48828125 34.47265625 C10.49467117 35.42084732 10.5010611 36.36903839 10.50764465 37.34596252 C10.63133506 42.97244443 11.28676185 47.03389554 14 52 C17.2056346 54.90743603 19.72252302 56.24121043 24 56.4375 C29.19160234 56.14027086 32.70950638 54.39803476 36.25 50.5625 C38.82736321 46.78850387 40.23933583 44.11852164 40.31884766 39.50683594 C40.33871735 38.62622498 40.35858704 37.74561401 40.37905884 36.83831787 C40.39061005 35.89651672 40.40216125 34.95471558 40.4140625 33.984375 C40.43342865 33.01340881 40.4527948 32.04244263 40.4727478 31.04205322 C40.53246509 27.94479114 40.5788978 24.84749174 40.625 21.75 C40.66318698 19.64842141 40.70223914 17.54685835 40.7421875 15.4453125 C40.83816031 10.29700132 40.9222206 5.14861688 41 0 C44.63 0 48.26 0 52 0 C52 21.45 52 42.9 52 65 C48.7 65 45.4 65 42 65 C41.505 61.04 41.505 61.04 41 57 C40.34 57.9075 39.68 58.815 39 59.75 C35.0227733 64.41219352 30.98737666 66.63404636 24.875 67.3828125 C18.26625419 67.61228284 12.21397444 67.43558489 7 63 C2.68518754 57.70052521 -0.26198075 51.74119834 -0.22705078 44.8425293 C-0.22689972 43.84186935 -0.22674866 42.84120941 -0.22659302 41.81022644 C-0.21627045 40.7423439 -0.20594788 39.67446136 -0.1953125 38.57421875 C-0.1924826 37.47149124 -0.18965271 36.36876373 -0.18673706 35.23262024 C-0.17555981 31.71746886 -0.15045937 28.20257411 -0.125 24.6875 C-0.11496704 22.30143598 -0.10584174 19.91536795 -0.09765625 17.52929688 C-0.07562845 11.68609934 -0.04111513 5.84309315 0 0 Z " fill="#262626" transform="translate(1672,130)"/>
<path d="M0 0 C5.72028768 3.14438174 8.26202572 6.89069553 11.0625 12.625 C12.93030625 21.62443013 12.31753507 29.87016533 7.75 37.9375 C3.78578268 42.71489011 0.02676349 45.45228811 -6.0625 46.75 C-11.7665444 47.26561983 -16.31330424 45.84888624 -21.4375 43.4375 C-26.37590421 39.04780736 -29.88071783 31.96933483 -30.48828125 25.3359375 C-30.69881359 16.75951468 -28.97901589 11.32341839 -24.5 4.125 C-17.30578687 -2.86937387 -9.06781958 -4.06302895 0 0 Z " fill="#FBFBFB" transform="translate(1642.25,140.0625)"/>
<path d="M0 0 C5.72028768 3.14438174 8.26202572 6.89069553 11.0625 12.625 C12.93030625 21.62443013 12.31753507 29.87016533 7.75 37.9375 C3.78578268 42.71489011 0.02676349 45.45228811 -6.0625 46.75 C-11.7665444 47.26561983 -16.31330424 45.84888624 -21.4375 43.4375 C-26.37590421 39.04780736 -29.88071783 31.96933483 -30.48828125 25.3359375 C-30.69881359 16.75951468 -28.97901589 11.32341839 -24.5 4.125 C-17.30578687 -2.86937387 -9.06781958 -4.06302895 0 0 Z " fill="#FBFBFB" transform="translate(1244.25,140.0625)"/>
<path d="M0 0 C5.72028768 3.14438174 8.26202572 6.89069553 11.0625 12.625 C12.93030625 21.62443013 12.31753507 29.87016533 7.75 37.9375 C3.78578268 42.71489011 0.02676349 45.45228811 -6.0625 46.75 C-11.7665444 47.26561983 -16.31330424 45.84888624 -21.4375 43.4375 C-26.37590421 39.04780736 -29.88071783 31.96933483 -30.48828125 25.3359375 C-30.69881359 16.75951468 -28.97901589 11.32341839 -24.5 4.125 C-17.30578687 -2.86937387 -9.06781958 -4.06302895 0 0 Z " fill="#FBFBFB" transform="translate(717.25,140.0625)"/>
<path d="M0 0 C5.72028768 3.14438174 8.26202572 6.89069553 11.0625 12.625 C12.93030625 21.62443013 12.31753507 29.87016533 7.75 37.9375 C3.78578268 42.71489011 0.02676349 45.45228811 -6.0625 46.75 C-11.7665444 47.26561983 -16.31330424 45.84888624 -21.4375 43.4375 C-26.37590421 39.04780736 -29.88071783 31.96933483 -30.48828125 25.3359375 C-30.69881359 16.75951468 -28.97901589 11.32341839 -24.5 4.125 C-17.30578687 -2.86937387 -9.06781958 -4.06302895 0 0 Z " fill="#FBFBFB" transform="translate(651.25,140.0625)"/>
<path d="M0 0 C6.3154614 2.91573638 9.44949005 6.90077962 12.13793945 13.32202148 C13.19702977 16.56075931 13.2655882 19.7825063 13.21484375 23.15234375 C13.20799561 23.85270752 13.20114746 24.55307129 13.1940918 25.2746582 C12.96568656 32.66147165 10.98368676 37.37757865 6.58984375 43.15234375 C2.12922716 46.5225874 -2.15107724 48.38373881 -7.81640625 48.1875 C-13.51156998 47.28690935 -17.25329013 45.62474474 -21.22265625 41.27734375 C-26.1477305 33.16918292 -27.11034428 25.71911643 -26.22265625 16.27734375 C-23.95012229 8.83283596 -20.01980528 4.03252914 -13.3046875 0.17578125 C-9.0252181 -1.6708941 -4.39046212 -1.4274789 0 0 Z " fill="#FBFBFB" transform="translate(1770.22265625,138.72265625)"/>
<path d="M0 0 C6.3154614 2.91573638 9.44949005 6.90077962 12.13793945 13.32202148 C13.19702977 16.56075931 13.2655882 19.7825063 13.21484375 23.15234375 C13.20799561 23.85270752 13.20114746 24.55307129 13.1940918 25.2746582 C12.96568656 32.66147165 10.98368676 37.37757865 6.58984375 43.15234375 C2.12922716 46.5225874 -2.15107724 48.38373881 -7.81640625 48.1875 C-13.51156998 47.28690935 -17.25329013 45.62474474 -21.22265625 41.27734375 C-26.1477305 33.16918292 -27.11034428 25.71911643 -26.22265625 16.27734375 C-23.95012229 8.83283596 -20.01980528 4.03252914 -13.3046875 0.17578125 C-9.0252181 -1.6708941 -4.39046212 -1.4274789 0 0 Z " fill="#FBFBFB" transform="translate(1310.22265625,138.72265625)"/>
<path d="M0 0 C4.85304301 3.70861975 7.57631147 7.73021887 9.1875 13.625 C10.24227989 22.37402244 9.98768621 30.99771025 5.1875 38.625 C1.84341313 42.39827449 -2.30129555 45.25455835 -7.328125 45.99609375 C-13.04299915 46.13488355 -17.36074443 45.76994033 -22.08984375 42.390625 C-28.56590364 35.75303073 -30.22963717 26.96207707 -30.16015625 18.05859375 C-29.48957508 11.4356629 -26.50421464 6.65505757 -22.3125 1.625 C-15.67387516 -3.68589987 -7.38527487 -4.36458649 0 0 Z " fill="#FBFBFB" transform="translate(783.8125,140.375)"/>
<path d="M0 0 C3.63 0 7.26 0 11 0 C13.42505728 6.79789992 15.84603277 13.59723395 18.26318359 20.39794922 C19.08659733 22.7128048 19.91113868 25.02725958 20.73681641 27.34130859 C21.92124116 30.66139478 23.10164548 33.98288616 24.28125 37.3046875 C24.65310425 38.34430634 25.0249585 39.38392517 25.40808105 40.45504761 C25.74843384 41.41589264 26.08878662 42.37673767 26.43945312 43.36669922 C26.7414563 44.21497284 27.04345947 45.06324646 27.35461426 45.93722534 C28 48 28 48 28 50 C28.66 50 29.32 50 30 50 C30.13390137 49.43361816 30.26780273 48.86723633 30.40576172 48.28369141 C32.68763391 39.29184442 35.92260182 30.67314299 39.15283203 21.98974609 C40.13499315 19.3481224 41.10899615 16.70359091 42.08203125 14.05859375 C42.70265325 12.38003383 43.32372998 10.70164196 43.9453125 9.0234375 C44.23697296 8.23190277 44.52863342 7.44036804 44.82913208 6.62484741 C46.88424529 1.11575471 46.88424529 1.11575471 48 0 C49.68608966 -0.07205511 51.37500659 -0.08386068 53.0625 -0.0625 C53.98160156 -0.05347656 54.90070313 -0.04445312 55.84765625 -0.03515625 C56.55792969 -0.02355469 57.26820312 -0.01195312 58 0 C57.41678808 4.16206477 56.46105157 7.80243769 54.92578125 11.7109375 C54.50844727 12.7829541 54.09111328 13.8549707 53.66113281 14.95947266 C53.21608398 16.08659668 52.77103516 17.2137207 52.3125 18.375 C51.39665199 20.72376989 50.48128582 23.07272772 49.56640625 25.421875 C49.12312988 26.55560547 48.67985352 27.68933594 48.22314453 28.85742188 C46.70086946 32.76854457 45.21534722 36.69225921 43.75 40.625 C43.29753906 41.83542969 42.84507813 43.04585937 42.37890625 44.29296875 C41.36313611 47.02375023 40.35053698 49.75562307 39.33984375 52.48828125 C39.06366211 53.23190918 38.78748047 53.97553711 38.50292969 54.74169922 C37.97124351 56.17343139 37.44183535 57.6060122 36.91503906 59.03955078 C35.11262837 63.88737163 35.11262837 63.88737163 34 65 C32.14712498 65.07226502 30.29166122 65.0838122 28.4375 65.0625 C26.91962891 65.04896484 26.91962891 65.04896484 25.37109375 65.03515625 C24.58863281 65.02355469 23.80617188 65.01195312 23 65 C22.5875 63.86796143 22.175 62.73592285 21.75 61.56958008 C19.83523315 56.31652613 17.91776715 51.06445921 16 45.8125 C15.65774384 44.87460632 15.31548767 43.93671265 14.96286011 42.97039795 C10.77215273 31.49106882 6.57990711 20.01593101 2.08398438 8.65161133 C0.8994611 5.61744555 0 3.2891428 0 0 Z " fill="#242424" transform="translate(1062,130)"/>
<path d="M0 0 C3.63 0 7.26 0 11 0 C11 30.36 11 60.72 11 92 C7.37 92 3.74 92 0 92 C0 61.64 0 31.28 0 0 Z " fill="#2F2F2F" transform="translate(1185,103)"/>
<path d="M0 0 C3.63 0 7.26 0 11 0 C11 30.36 11 60.72 11 92 C7.37 92 3.74 92 0 92 C0 61.64 0 31.28 0 0 Z " fill="#2F2F2F" transform="translate(814,103)"/>
<path d="M0 0 C0.77601562 -0.00257812 1.55203125 -0.00515625 2.3515625 -0.0078125 C4.375 0.125 4.375 0.125 6.375 1.125 C6.375 5.085 6.375 9.045 6.375 13.125 C3.9 12.63 3.9 12.63 1.375 12.125 C-3.55636391 11.66839223 -6.69172691 12.28016362 -10.94921875 14.56640625 C-15.02949553 18.36134899 -16.83088674 22.49937357 -17.17089844 27.95874023 C-17.21176573 29.78335645 -17.23195428 31.60852153 -17.234375 33.43359375 C-17.25091125 34.40031509 -17.26744751 35.36703644 -17.28448486 36.36305237 C-17.33279918 39.42960062 -17.35429921 42.49565353 -17.375 45.5625 C-17.4031735 47.65041532 -17.43310285 49.73830774 -17.46484375 51.82617188 C-17.53855389 56.92574045 -17.5882298 62.02503671 -17.625 67.125 C-21.255 67.125 -24.885 67.125 -28.625 67.125 C-28.625 45.675 -28.625 24.225 -28.625 2.125 C-25.325 2.125 -22.025 2.125 -18.625 2.125 C-18.295 4.435 -17.965 6.745 -17.625 9.125 C-16.8825 8.361875 -16.14 7.59875 -15.375 6.8125 C-10.35193727 1.90359778 -7.05281457 -0.02358801 0 0 Z " fill="#292929" transform="translate(1594.625,127.875)"/>
<path d="M0 0 C0.77601562 -0.00257812 1.55203125 -0.00515625 2.3515625 -0.0078125 C4.375 0.125 4.375 0.125 6.375 1.125 C6.375 5.085 6.375 9.045 6.375 13.125 C3.9 12.63 3.9 12.63 1.375 12.125 C-3.55636391 11.66839223 -6.69172691 12.28016362 -10.94921875 14.56640625 C-15.02949553 18.36134899 -16.83088674 22.49937357 -17.17089844 27.95874023 C-17.21176573 29.78335645 -17.23195428 31.60852153 -17.234375 33.43359375 C-17.25091125 34.40031509 -17.26744751 35.36703644 -17.28448486 36.36305237 C-17.33279918 39.42960062 -17.35429921 42.49565353 -17.375 45.5625 C-17.4031735 47.65041532 -17.43310285 49.73830774 -17.46484375 51.82617188 C-17.53855389 56.92574045 -17.5882298 62.02503671 -17.625 67.125 C-21.255 67.125 -24.885 67.125 -28.625 67.125 C-28.625 45.675 -28.625 24.225 -28.625 2.125 C-25.325 2.125 -22.025 2.125 -18.625 2.125 C-18.295 4.435 -17.965 6.745 -17.625 9.125 C-16.8825 8.361875 -16.14 7.59875 -15.375 6.8125 C-10.35193727 1.90359778 -7.05281457 -0.02358801 0 0 Z " fill="#292929" transform="translate(1433.625,127.875)"/>
<path d="M0 0 C5.13726494 2.52193006 7.73123207 5.53972383 9.6875 10.875 C10.60591431 17.12021733 10.05626134 22.46503852 7 28 C2.2254342 32.54166015 -1.03314627 33.36613425 -7.45703125 33.2734375 C-11.27246301 32.86317602 -13.23867897 31.62662245 -16 29 C-19.69173418 23.09322531 -19.85535812 16.833361 -19 10 C-17.3125 6.5 -17.3125 6.5 -15 4 C-13.948125 2.824375 -13.948125 2.824375 -12.875 1.625 C-8.61227024 -0.78436899 -4.78472426 -0.75911491 0 0 Z " fill="#F9F9F9" transform="translate(559,237)"/>
<path d="M0 0 C4.050497 1.29921602 5.66500404 2.59447858 8.375 5.875 C11.29891269 11.6491133 11.21083568 19.20561653 9.26953125 25.2890625 C7.27975269 29.10618871 5.01035045 31.51791397 1 33 C-4.01810805 33.67244329 -7.82425936 33.55580467 -12.4375 31.375 C-16.30071057 27.79446338 -17.79907908 25.21571131 -18.28125 19.8984375 C-18.4936957 12.05565037 -17.8205252 8.02199128 -12.375 2.1875 C-8.52220996 -0.85064538 -4.69976806 -0.75095037 0 0 Z " fill="#F9F9F9" transform="translate(1095,237)"/>
<path d="M0 0 C2.375 1.5 2.375 1.5 4 3 C4.33 2.01 4.66 1.02 5 0 C6.32 0 7.64 0 9 0 C9.08719631 4.56237931 9.14045922 9.12454386 9.1875 13.6875 C9.21263672 14.98107422 9.23777344 16.27464844 9.26367188 17.60742188 C9.27333984 18.85458984 9.28300781 20.10175781 9.29296875 21.38671875 C9.3086792 22.53358154 9.32438965 23.68044434 9.34057617 24.86206055 C8.96202396 28.34989683 8.05617394 30.1904333 6 33 C3.00839764 35.32680183 -0.2290393 35.41198788 -3.9609375 35.328125 C-7.30316771 34.79029485 -9.46836074 33.15189337 -12 31 C-12 30.34 -12 29.68 -12 29 C-10.125 28.375 -10.125 28.375 -8 28 C-7.34 28.66 -6.68 29.32 -6 30 C-4.08993694 30.3176246 -4.08993694 30.3176246 -2 30.25 C-1.29875 30.25515625 -0.5975 30.2603125 0.125 30.265625 C2.2435669 30.15705515 2.2435669 30.15705515 4 28 C4.16681109 24.91652174 4.16681109 24.91652174 4 22 C3.46375 22.495 2.9275 22.99 2.375 23.5 C-0.71852796 25.45380713 -2.39369166 25.51518691 -6 25 C-9.50420484 22.77005147 -11.42387593 20.80780418 -13 17 C-13.74148241 12.25796134 -13.43787689 8.83045617 -11.1875 4.5625 C-7.64787714 0.41608466 -5.36184639 -0.54712718 0 0 Z " fill="#1A1A1A" transform="translate(1376,245)"/>
<path d="M0 0 C2.375 1.5 2.375 1.5 4 3 C4.33 2.01 4.66 1.02 5 0 C6.32 0.33 7.64 0.66 9 1 C9.05804281 5.41661151 9.09361104 9.83312496 9.125 14.25 C9.14175781 15.50425781 9.15851563 16.75851562 9.17578125 18.05078125 C9.18222656 19.25605469 9.18867187 20.46132813 9.1953125 21.703125 C9.20578613 22.81333008 9.21625977 23.92353516 9.22705078 25.06738281 C9.00086874 27.98877923 8.62395617 29.58910773 7 32 C2.61179302 34.8574371 -0.80461822 35.64942272 -6 35 C-9.4375 33.125 -9.4375 33.125 -12 31 C-12 30.34 -12 29.68 -12 29 C-10.125 28.375 -10.125 28.375 -8 28 C-7.34 28.66 -6.68 29.32 -6 30 C-4.09178939 30.35513379 -4.09178939 30.35513379 -2 30.3125 C-0.948125 30.33763672 -0.948125 30.33763672 0.125 30.36328125 C0.74375 30.24339844 1.3625 30.12351562 2 30 C4.1519437 26.77208445 4.20086443 25.71599191 4 22 C3.505 22.515625 3.01 23.03125 2.5 23.5625 C-0.68723298 25.39515896 -2.54794474 25.18356523 -6.09765625 24.58203125 C-8.90109032 23.72430707 -10.28469368 22.3328166 -12 20 C-13.66515151 15.00454547 -13.86592117 9.99161868 -11.75 5.125 C-8.16633146 0.77340249 -5.77385204 -0.7217315 0 0 Z " fill="#1C1C1C" transform="translate(1023,245)"/>
<path d="M0 0 C0.99 0.66 1.98 1.32 3 2 C3.66 1.34 4.32 0.68 5 0 C5.99 0 6.98 0 8 0 C8.12406007 4.03825066 8.21455045 8.07575638 8.2746582 12.11547852 C8.29972617 13.48807102 8.33379082 14.86053102 8.37719727 16.23266602 C8.43817531 18.21050696 8.46361009 20.18934184 8.48828125 22.16796875 C8.51446533 23.35672607 8.54064941 24.5454834 8.56762695 25.77026367 C7.83677398 29.92873851 6.21791762 31.36762597 3 34 C-1.17236647 35.67216229 -4.39534709 35.24833959 -8.5 33.5625 C-9.325 33.046875 -10.15 32.53125 -11 32 C-11 30.68 -11 29.36 -11 28 C-10.505 28.33 -10.01 28.66 -9.5 29 C-5.8644803 30.45420788 -2.91137561 30.18926011 1 30 C1.66 29.67 2.32 29.34 3 29 C3 27.02 3 25.04 3 23 C2.484375 23.350625 1.96875 23.70125 1.4375 24.0625 C-2.06579842 25.40992247 -4.39462669 24.90134333 -8 24 C-10.3181362 22.10888889 -11.66914015 20.66171969 -13 18 C-13.41079745 13.09413049 -13.62569374 8.53294966 -11.75 3.9375 C-8.22738167 0.03745827 -5.19113643 -0.44179884 0 0 Z " fill="#141414" transform="translate(1206,245)"/>
<path d="M0 0 C1.32 0.33 2.64 0.66 4 1 C6.0745356 1.1490712 6.0745356 1.1490712 8 0 C12.63466801 -0.41197049 15.35466537 0.04432327 19 3 C21.89550431 7.39317896 22.55878366 10.78468583 22 16 C20.4388359 20.05902667 18.98573434 23.06099411 15 25 C12.19640569 25.35114601 9.85994692 25.23064088 7 25 C6.34 24.34 5.68 23.68 5 23 C4.67 26.63 4.34 30.26 4 34 C2.68 34 1.36 34 0 34 C0 22.78 0 11.56 0 0 Z " fill="#141414" transform="translate(711,245)"/>
<path d="M0 0 C4.94951309 2.7887182 7.46366987 5.9098097 9.65625 11.1171875 C9.65625 13.0971875 9.65625 15.0771875 9.65625 17.1171875 C-2.22375 17.1171875 -14.10375 17.1171875 -26.34375 17.1171875 C-25.26246626 10.62948507 -23.69051632 6.23734985 -18.84375 1.71875 C-13.30172355 -2.03810447 -6.1886398 -2.33105432 0 0 Z " fill="#F2F2F2" transform="translate(1376.34375,138.8828125)"/>
<path d="M0 0 C4.94951309 2.7887182 7.46366987 5.9098097 9.65625 11.1171875 C9.65625 13.0971875 9.65625 15.0771875 9.65625 17.1171875 C-2.22375 17.1171875 -14.10375 17.1171875 -26.34375 17.1171875 C-25.26246626 10.62948507 -23.69051632 6.23734985 -18.84375 1.71875 C-13.30172355 -2.03810447 -6.1886398 -2.33105432 0 0 Z " fill="#F2F2F2" transform="translate(1156.34375,138.8828125)"/>
<path d="M0 0 C4.94951309 2.7887182 7.46366987 5.9098097 9.65625 11.1171875 C9.65625 13.0971875 9.65625 15.0771875 9.65625 17.1171875 C-2.22375 17.1171875 -14.10375 17.1171875 -26.34375 17.1171875 C-25.26246626 10.62948507 -23.69051632 6.23734985 -18.84375 1.71875 C-13.30172355 -2.03810447 -6.1886398 -2.33105432 0 0 Z " fill="#F2F2F2" transform="translate(1041.34375,138.8828125)"/>
<path d="M0 0 C4.94951309 2.7887182 7.46366987 5.9098097 9.65625 11.1171875 C9.65625 13.0971875 9.65625 15.0771875 9.65625 17.1171875 C-2.22375 17.1171875 -14.10375 17.1171875 -26.34375 17.1171875 C-25.26246626 10.62948507 -23.69051632 6.23734985 -18.84375 1.71875 C-13.30172355 -2.03810447 -6.1886398 -2.33105432 0 0 Z " fill="#F2F2F2" transform="translate(870.34375,138.8828125)"/>
<path d="M0 0 C1.65 0 3.3 0 5 0 C7.67445234 5.78136932 10.29363474 11.58653583 12.8125 17.4375 C13.23144531 18.40558594 13.65039062 19.37367188 14.08203125 20.37109375 C15 23 15 23 15 27 C15.66 27 16.32 27 17 27 C17.13535156 26.47535156 17.27070312 25.95070313 17.41015625 25.41015625 C19.84662727 16.64177851 23.4579968 8.36495001 27 0 C28.65 0 30.3 0 32 0 C32 10.89 32 21.78 32 33 C30.68 33 29.36 33 28 33 C27.67 26.07 27.34 19.14 27 12 C26.48050781 13.43214844 25.96101562 14.86429688 25.42578125 16.33984375 C24.72240825 18.20612677 24.0179233 20.07199099 23.3125 21.9375 C22.97283203 22.88302734 22.63316406 23.82855469 22.28320312 24.80273438 C21.93837891 25.70185547 21.59355469 26.60097656 21.23828125 27.52734375 C20.774823 28.77632446 20.774823 28.77632446 20.30200195 30.05053711 C19 32 19 32 14 33 C11.03 25.74 8.06 18.48 5 11 C4.67 18.26 4.34 25.52 4 33 C2.68 33 1.36 33 0 33 C0 22.11 0 11.22 0 0 Z " fill="#131313" transform="translate(801,237)"/>
<path d="M0 0 C3.82294492 2.38274279 6.56242161 4.68726484 8 9 C8.39567015 14.24262952 7.83592201 17.54355112 5 22 C3.09550515 24.19749406 1.78298134 24.88101034 -1.08203125 25.31640625 C-5.17908282 25.52703411 -7.42745584 25.3459121 -11 23.1875 C-14.64063931 19.20555076 -14.38667732 14.89159386 -14.359375 9.73828125 C-13.79931339 5.47085526 -12.14910247 3.84918795 -9 1 C-5.79745853 -0.60127074 -3.54685436 -0.40701607 0 0 Z " fill="#111111" transform="translate(950,245)"/>
<path d="M0 0 C1.32 0.33 2.64 0.66 4 1 C4.66 1 5.32 1 6 1 C6.33 0.67 6.66 0.34 7 0 C11.03160191 -0.26293056 12.55892734 -0.29404844 16 2 C16 2.66 16 3.32 16 4 C16.70125 3.34 17.4025 2.68 18.125 2 C21.52460766 -0.36494446 22.94587851 -0.67568691 27 0 C29.66796875 1.359375 29.66796875 1.359375 32 4 C32.62800427 7.59821202 32.46995822 11.11150385 32.3125 14.75 C32.28994141 15.73355469 32.26738281 16.71710938 32.24414062 17.73046875 C32.18528805 20.1551947 32.10313431 22.57681983 32 25 C30.68 25 29.36 25 28 25 C27.67 18.07 27.34 11.14 27 4 C20.6 4.2 20.6 4.2 19 6 C18.84379445 7.41327947 18.74943827 8.8335459 18.68359375 10.25390625 C18.64169922 11.10791016 18.59980469 11.96191406 18.55664062 12.84179688 C18.51732422 13.73962891 18.47800781 14.63746094 18.4375 15.5625 C18.39431641 16.46419922 18.35113281 17.36589844 18.30664062 18.29492188 C18.20021858 20.52978485 18.09820012 22.76476308 18 25 C16.68 25 15.36 25 14 25 C13.97494385 24.42967041 13.9498877 23.85934082 13.92407227 23.27172852 C13.80843451 20.70173843 13.68556376 18.13214473 13.5625 15.5625 C13.52318359 14.66466797 13.48386719 13.76683594 13.44335938 12.84179688 C13.40146484 11.98779297 13.35957031 11.13378906 13.31640625 10.25390625 C13.27974854 9.46314697 13.24309082 8.6723877 13.20532227 7.85766602 C13.19436743 5.98598559 13.19436743 5.98598559 12 5 C9 4.83333333 9 4.83333333 6 5 C4.45049732 6.54950268 4.78344807 8.09990594 4.68359375 10.25390625 C4.64169922 11.10791016 4.59980469 11.96191406 4.55664062 12.84179688 C4.49766602 14.18854492 4.49766602 14.18854492 4.4375 15.5625 C4.39431641 16.46419922 4.35113281 17.36589844 4.30664062 18.29492188 C4.20021858 20.52978485 4.09820012 22.76476308 4 25 C2.68 25 1.36 25 0 25 C0 16.75 0 8.5 0 0 Z " fill="#141414" transform="translate(672,245)"/>
<path d="M0 0 C2.70703125 1.87890625 2.70703125 1.87890625 5 5 C5.60311295 8.46050835 5.47323472 11.81342877 5.3125 15.3125 C5.28994141 16.24384766 5.26738281 17.17519531 5.24414062 18.13476562 C5.18542078 20.4248396 5.10336858 22.71157875 5 25 C4.21367188 24.814375 3.42734375 24.62875 2.6171875 24.4375 C0.04090136 23.73348841 0.04090136 23.73348841 -1.875 25 C-5.17818266 26.5544389 -7.52995195 25.86751201 -11 25 C-13.4375 23.3125 -13.4375 23.3125 -15 21 C-15.43816582 17.93283923 -15.68703899 15.99669037 -13.890625 13.390625 C-11.16358843 11.38478818 -8.6443399 11.24135068 -5.3125 10.8125 C-4.13300781 10.65394531 -2.95351563 10.49539062 -1.73828125 10.33203125 C-0.83464844 10.22246094 0.06898438 10.11289063 1 10 C0.67 8.02 0.34 6.04 0 4 C-6.28908482 4.52480001 -6.28908482 4.52480001 -12 7 C-12.66 6.34 -13.32 5.68 -14 5 C-9.64868341 0.34859261 -6.40775644 -0.66287136 0 0 Z " fill="#161616" transform="translate(660,245)"/>
<path d="M0 0 C3.83450704 3.13732394 3.83450704 3.13732394 4.75 6.25 C4.75 8.23 4.75 10.21 4.75 12.25 C-1.19 12.25 -7.13 12.25 -13.25 12.25 C-11.59922098 16.00170424 -11.59922098 16.00170424 -9.25 19.25 C-5.79178598 19.50003964 -5.79178598 19.50003964 -2.25 19.25 C-1.59 18.59 -0.93 17.93 -0.25 17.25 C1.07 17.25 2.39 17.25 3.75 17.25 C3.5 19.125 3.5 19.125 2.75 21.25 C-1.59759782 24.0308959 -6.26031349 23.93192382 -11.25 23.25 C-14.36389795 21.07027143 -15.75230869 18.68588005 -17.25 15.25 C-17.98651586 10.53972412 -17.67246633 7.07984458 -15.5 2.8125 C-10.94222908 -2.37829466 -6.23800215 -3.35892423 0 0 Z " fill="#101010" transform="translate(1300.25,246.75)"/>
<path d="M0 0 C2.8100346 1.79363911 4.50940468 3.01880935 6 6 C6 8.64 6 11.28 6 14 C0.39 14 -5.22 14 -11 14 C-9.45957252 18.80304035 -9.45957252 18.80304035 -7 21 C-2.94738713 21.34490322 -1.45245824 21.30163882 2 19 C3.32 19 4.64 19 6 19 C4.63016497 22.16115776 4.0109362 22.9927092 1 25 C-2.3915846 25.5461026 -5.60763982 25.54104628 -9 25 C-12.34625024 22.47323961 -13.67977847 20.96066458 -15 17 C-15.55548996 12.21914375 -15.46174709 8.87572723 -13.1875 4.5625 C-9.31984391 0.03181715 -5.78569675 -0.94736555 0 0 Z " fill="#101010" transform="translate(1272,245)"/>
<path d="M0 0 C2.70993299 1.91858701 4.59770355 3.98824966 6 7 C6 9.31 6 11.62 6 14 C0.39 14 -5.22 14 -11 14 C-10.34 15.98 -9.68 17.96 -9 20 C-6.22899606 21.38550197 -4.0665294 21.1877467 -1 21 C-0.01 20.34 0.98 19.68 2 19 C3.32 19 4.64 19 6 19 C4.63016497 22.16115776 4.0109362 22.9927092 1 25 C-2.39107371 25.54602034 -5.60874176 25.54627924 -9 25 C-11.82424288 22.80977082 -13.41508603 21.16982793 -15 18 C-16.03037808 8.99155166 -16.03037808 8.99155166 -13.953125 4.9765625 C-10.06919987 0.29300572 -6.01599754 -1.34802908 0 0 Z " fill="#0F0F0F" transform="translate(999,245)"/>
<path d="M0 0 C2.5 1.5 2.5 1.5 4 4 C4.60700221 7.03501105 4.81724434 9.89315372 5 13 C-0.94 13 -6.88 13 -13 13 C-11.34922098 16.75170424 -11.34922098 16.75170424 -9 20 C-5.54178598 20.25003964 -5.54178598 20.25003964 -2 20 C-1.34 19.34 -0.68 18.68 0 18 C1.32 18 2.64 18 4 18 C3.6875 19.875 3.6875 19.875 3 22 C-1.2432447 24.8288298 -5.01734529 24.65268001 -10 24 C-13.49996383 21.95835443 -15.80555258 19.90910064 -17 16 C-17.46612801 11.18334395 -17.52190197 8.98788587 -15.25 4.6875 C-10.42309593 -1.07796876 -7.31502514 -1.92288345 0 0 Z " fill="#0D0D0D" transform="translate(1054,246)"/>
<path d="M0 0 C5.13726494 2.52193006 7.73123207 5.53972383 9.6875 10.875 C10.60591431 17.12021733 10.05626134 22.46503852 7 28 C2.2254342 32.54166015 -1.03314627 33.36613425 -7.45703125 33.2734375 C-11.27246301 32.86317602 -13.23867897 31.62662245 -16 29 C-19.69173418 23.09322531 -19.85535812 16.833361 -19 10 C-17.3125 6.5 -17.3125 6.5 -15 4 C-13.948125 2.824375 -13.948125 2.824375 -12.875 1.625 C-8.61227024 -0.78436899 -4.78472426 -0.75911491 0 0 Z M-14 8 C-15.33827901 10.67655801 -15.20578556 12.82434052 -15.25 15.8125 C-15.27578125 16.85019531 -15.3015625 17.88789063 -15.328125 18.95703125 C-14.87030202 23.20279441 -13.17758627 25.78035708 -10.25 28.8125 C-6.84358694 30.61032911 -4.79551223 30.65439866 -1 30 C2.38064613 27.17021808 4.60765423 24.17703732 6 20 C6.50154202 13.8811874 6.07788705 10.89346446 2 6 C-3.89008133 2.07327911 -9.22700289 3.08236661 -14 8 Z " fill="#131313" transform="translate(559,237)"/>
<path d="M0 0 C4.050497 1.29921602 5.66500404 2.59447858 8.375 5.875 C11.29891269 11.6491133 11.21083568 19.20561653 9.26953125 25.2890625 C7.27975269 29.10618871 5.01035045 31.51791397 1 33 C-4.01810805 33.67244329 -7.82425936 33.55580467 -12.4375 31.375 C-16.30071057 27.79446338 -17.79907908 25.21571131 -18.28125 19.8984375 C-18.4936957 12.05565037 -17.8205252 8.02199128 -12.375 2.1875 C-8.52220996 -0.85064538 -4.69976806 -0.75095037 0 0 Z M-12 6.8125 C-14.91330384 11.455578 -15.75008269 15.57474436 -15 21 C-12.97898053 24.82550114 -10.87100717 27.95064326 -7 30 C-3.9461553 30.53110343 -1.99253455 30.62177339 0.68359375 28.9453125 C2.88799128 27.15853464 4.72002097 25.55995806 6 23 C6.17471848 20.90051399 6.26717852 18.79375592 6.3125 16.6875 C6.34988281 15.55699219 6.38726563 14.42648438 6.42578125 13.26171875 C5.91605818 9.35695943 4.72790817 7.77851871 2 5 C-2.72713218 2.63643391 -8.47331978 2.63426303 -12 6.8125 Z " fill="#0F0F0F" transform="translate(1095,237)"/>
<path d="M0 0 C6.6 0 13.2 0 20 0 C20 1.32 20 2.64 20 4 C14.72 4 9.44 4 4 4 C4 7.63 4 11.26 4 15 C8.62 15 13.24 15 18 15 C18 15.99 18 16.98 18 18 C13.38 18 8.76 18 4 18 C4 21.63 4 25.26 4 29 C9.28 29 14.56 29 20 29 C20 30.32 20 31.64 20 33 C13.4 33 6.8 33 0 33 C0 22.11 0 11.22 0 0 Z " fill="#121212" transform="translate(1141,237)"/>
<path d="M0 0 C4.15149156 1.53758947 6.80535189 3.09840336 9 7 C9 7.99 9 8.98 9 10 C7.68 10 6.36 10 5 10 C4.71125 9.360625 4.4225 8.72125 4.125 8.0625 C3.17176549 5.84793921 3.17176549 5.84793921 1 5 C-3.4131016 4.48031043 -6.86159151 4.14619363 -10.5 6.875 C-13.69731873 11.40453487 -13.47354953 15.58325796 -13 21 C-11.45771534 25.11275909 -10.66328593 26.55780938 -7 29 C-3.12279666 29.32997475 -0.2210911 29.30077936 3 27 C4.26804566 24.9664052 4.26804566 24.9664052 5 23 C6.32 23 7.64 23 9 23 C8.52153935 27.30614589 7.34073619 29.24880549 4 32 C-1.21459267 33.73819756 -6.81702454 33.88247944 -11.9375 31.8125 C-16.10150799 28.15322025 -17.73829406 24.04988076 -18.203125 18.6328125 C-18.33618646 11.51402445 -17.29275465 7.51111223 -12.375 2.125 C-8.03746776 -0.60603882 -4.99173394 -0.8230099 0 0 Z " fill="#0F0F0F" transform="translate(631,237)"/>
<path d="M0 0 C3.8026029 2.0050088 5.61790841 3.42686262 8 7 C8 7.99 8 8.98 8 10 C5.13707027 9.59101004 4.18671386 9.22820583 2.3125 6.9375 C-0.77525067 4.35046566 -2.94201049 4.43337545 -6.875 4.6015625 C-9.93145998 5.17464875 -11.23616845 6.50123864 -13 9 C-14.96010221 12.92020441 -14.3528633 17.71611576 -14 22 C-12.39701349 25.74030185 -11.40262302 26.73158465 -8 29 C-3.35632001 29.50474782 -0.73287976 28.79965982 3 26 C3.66 25.01 4.32 24.02 5 23 C5.99 23 6.98 23 8 23 C7.52153935 27.30614589 6.34073619 29.24880549 3 32 C-1.38331321 33.4611044 -5.42847447 33.73421471 -10 33 C-14.78208736 30.39952184 -17.34761018 27.16467889 -19 22 C-19.94512923 15.3443005 -19.44287066 10.07554563 -15.41015625 4.59375 C-11.07382396 -0.30714633 -6.27242124 -1.01595555 0 0 Z " fill="#0D0D0D" transform="translate(922,237)"/>
<path d="M0 0 C1.32 0 2.64 0 4 0 C6.97 8.25 9.94 16.5 13 25 C15.34785216 22.65214784 15.87859219 20.90477775 16.9453125 17.7734375 C17.29980469 16.7421875 17.65429688 15.7109375 18.01953125 14.6484375 C18.38433594 13.56820312 18.74914062 12.48796875 19.125 11.375 C19.49753906 10.28703125 19.87007812 9.1990625 20.25390625 8.078125 C21.17450198 5.38715286 22.08962138 2.69444235 23 0 C24.32 0 25.64 0 27 0 C26.39092779 4.4237876 25.28583066 8.31614634 23.71484375 12.4921875 C23.04291992 14.29042969 23.04291992 14.29042969 22.35742188 16.125 C21.88423277 17.37504474 21.410924 18.6250442 20.9375 19.875 C20.45978804 21.14825061 19.98256966 22.42168652 19.50585938 23.6953125 C18.34207756 26.79873067 17.17331032 29.90017447 16 33 C14.35 33 12.7 33 11 33 C9.42722027 28.7847526 7.86082208 24.56721021 6.30029297 20.34741211 C5.7685138 18.91219237 5.2349959 17.47761561 4.69970703 16.04370117 C3.93063773 13.98262399 3.16784904 11.91931608 2.40625 9.85546875 C2.16563843 9.21473923 1.92502686 8.5740097 1.67712402 7.91386414 C0.65102595 5.11647059 0 3.00836132 0 0 Z " fill="#121212" transform="translate(839,237)"/>
<path d="M0 0 C1.32 0 2.64 0 4 0 C4.33 0.99 4.66 1.98 5 3 C5.37125 2.505 5.7425 2.01 6.125 1.5 C8 0 8 0 10.8125 -0.5 C14.19350022 0.03035298 16.16903108 1.01004813 18.74975586 3.25732422 C21.30456913 6.81839767 20.60628732 11.11671085 20.375 15.3125 C20.34792969 16.24384766 20.32085938 17.17519531 20.29296875 18.13476562 C20.2224825 20.42556872 20.12404246 22.71157563 20 25 C18.68 25 17.36 25 16 25 C15.93941406 23.72382813 15.87882812 22.44765625 15.81640625 21.1328125 C15.73200432 19.46352984 15.64735614 17.79425963 15.5625 16.125 C15.52318359 15.28324219 15.48386719 14.44148438 15.44335938 13.57421875 C15.38051758 12.36572266 15.38051758 12.36572266 15.31640625 11.1328125 C15.27974854 10.38918457 15.24309082 9.64555664 15.20532227 8.87939453 C15.10044135 6.91135688 15.10044135 6.91135688 14 5 C10.58343976 4.83322718 10.58343976 4.83322718 7 5 C4.64641749 7.35358251 4.72128096 7.92968394 4.5859375 11.1328125 C4.54726562 11.93847656 4.50859375 12.74414062 4.46875 13.57421875 C4.4378125 14.41597656 4.406875 15.25773437 4.375 16.125 C4.33632812 16.97449219 4.29765625 17.82398438 4.2578125 18.69921875 C4.16343506 20.79911684 4.08062414 22.89952891 4 25 C2.68 25 1.36 25 0 25 C0 16.75 0 8.5 0 0 Z " fill="#1A1A1A" transform="translate(1167,245)"/>
<path d="M0 0 C1.32 0 2.64 0 4 0 C4.01981934 0.56509277 4.03963867 1.13018555 4.06005859 1.71240234 C4.15518236 4.26707997 4.26491058 6.82092541 4.375 9.375 C4.4059375 10.26445312 4.436875 11.15390625 4.46875 12.0703125 C4.50742187 12.92109375 4.54609375 13.771875 4.5859375 14.6484375 C4.6173584 15.43395996 4.6487793 16.21948242 4.68115234 17.02880859 C4.8399465 19.23002939 4.8399465 19.23002939 7 21 C10.03344954 20.91115 10.03344954 20.91115 13 20 C14.9756562 17.03651571 15.26376859 16.31979627 15.4140625 12.98828125 C15.47207031 11.85229492 15.47207031 11.85229492 15.53125 10.69335938 C15.57765625 9.51483398 15.57765625 9.51483398 15.625 8.3125 C15.68300781 7.11657227 15.68300781 7.11657227 15.7421875 5.89648438 C15.83632494 3.93136525 15.91924632 1.9657146 16 0 C17.32 0 18.64 0 20 0 C20 8.25 20 16.5 20 25 C18.68 25 17.36 25 16 25 C15.67 24.01 15.34 23.02 15 22 C14.67 22.495 14.34 22.99 14 23.5 C11.4483888 25.4137084 9.16276175 25.49254116 6.03515625 25.69140625 C4 25 4 25 1.76171875 22.58203125 C-0.53835864 17.90537722 -0.45062613 14.2486827 -0.25 9.125 C-0.23195313 8.24585938 -0.21390625 7.36671875 -0.1953125 6.4609375 C-0.14848379 4.3068168 -0.07674994 2.15326226 0 0 Z " fill="#191919" transform="translate(738,245)"/>
<path d="M0 0 C2.93640187 2.0661981 4.76347207 3.64962743 5.40039062 7.28588867 C5.49218604 9.97778932 5.4360916 12.62200598 5.3125 15.3125 C5.28994141 16.24384766 5.26738281 17.17519531 5.24414062 18.13476562 C5.18542078 20.4248396 5.10336858 22.71157875 5 25 C3.68 25 2.36 25 1 25 C0.97494385 24.42967041 0.9498877 23.85934082 0.92407227 23.27172852 C0.80843451 20.70173843 0.68556376 18.13214473 0.5625 15.5625 C0.52318359 14.66466797 0.48386719 13.76683594 0.44335938 12.84179688 C0.40146484 11.98779297 0.35957031 11.13378906 0.31640625 10.25390625 C0.27974854 9.46314697 0.24309082 8.6723877 0.20532227 7.85766602 C0.19436743 5.98598559 0.19436743 5.98598559 -1 5 C-4.5 4.83333333 -4.5 4.83333333 -8 5 C-9.54950268 6.54950268 -9.21655193 8.09990594 -9.31640625 10.25390625 C-9.35830078 11.10791016 -9.40019531 11.96191406 -9.44335938 12.84179688 C-9.50233398 14.18854492 -9.50233398 14.18854492 -9.5625 15.5625 C-9.60568359 16.46419922 -9.64886719 17.36589844 -9.69335938 18.29492188 C-9.79978142 20.52978485 -9.90179988 22.76476308 -10 25 C-11.32 25 -12.64 25 -14 25 C-14 17.08 -14 9.16 -14 1 C-11.525 1.495 -11.525 1.495 -9 2 C-5.48175489 -0.34549674 -4.14224306 -0.57991403 0 0 Z " fill="#1D1D1D" transform="translate(1352,245)"/>
<path d="M0 0 C0.99 0 1.98 0 3 0 C3.33 0.99 3.66 1.98 4 3 C4.53625 2.505 5.0725 2.01 5.625 1.5 C8.74008151 -0.4674199 10.37170989 -0.5923739 14 0 C16.93015518 2.0691008 18.76381186 3.652533 19.40063477 7.28564453 C19.49216823 9.97759515 19.43609353 12.62196398 19.3125 15.3125 C19.28994141 16.24384766 19.26738281 17.17519531 19.24414062 18.13476562 C19.18542078 20.4248396 19.10336858 22.71157875 19 25 C17.68 25 16.36 25 15 25 C14.97494385 24.42967041 14.9498877 23.85934082 14.92407227 23.27172852 C14.80843451 20.70173843 14.68556376 18.13214473 14.5625 15.5625 C14.52318359 14.66466797 14.48386719 13.76683594 14.44335938 12.84179688 C14.40146484 11.98779297 14.35957031 11.13378906 14.31640625 10.25390625 C14.27974854 9.46314697 14.24309082 8.6723877 14.20532227 7.85766602 C14.19436743 5.98598559 14.19436743 5.98598559 13 5 C9.5 4.83333333 9.5 4.83333333 6 5 C4.45049732 6.54950268 4.78344807 8.09990594 4.68359375 10.25390625 C4.64169922 11.10791016 4.59980469 11.96191406 4.55664062 12.84179688 C4.49766602 14.18854492 4.49766602 14.18854492 4.4375 15.5625 C4.39431641 16.46419922 4.35113281 17.36589844 4.30664062 18.29492188 C4.20021858 20.52978485 4.09820012 22.76476308 4 25 C2.68 25 1.36 25 0 25 C0 16.75 0 8.5 0 0 Z " fill="#181818" transform="translate(1232,245)"/>
<path d="M0 0 C0.99 0 1.98 0 3 0 C3.33 0.99 3.66 1.98 4 3 C4.53625 2.505 5.0725 2.01 5.625 1.5 C8.74008151 -0.4674199 10.37170989 -0.5923739 14 0 C16.93015518 2.0691008 18.76381186 3.652533 19.40063477 7.28564453 C19.49216823 9.97759515 19.43609353 12.62196398 19.3125 15.3125 C19.28994141 16.24384766 19.26738281 17.17519531 19.24414062 18.13476562 C19.18542078 20.4248396 19.10336858 22.71157875 19 25 C17.68 25 16.36 25 15 25 C14.97494385 24.42967041 14.9498877 23.85934082 14.92407227 23.27172852 C14.80843451 20.70173843 14.68556376 18.13214473 14.5625 15.5625 C14.52318359 14.66466797 14.48386719 13.76683594 14.44335938 12.84179688 C14.40146484 11.98779297 14.35957031 11.13378906 14.31640625 10.25390625 C14.27974854 9.46314697 14.24309082 8.6723877 14.20532227 7.85766602 C14.19436743 5.98598559 14.19436743 5.98598559 13 5 C9.5 4.83333333 9.5 4.83333333 6 5 C4.45049732 6.54950268 4.78344807 8.09990594 4.68359375 10.25390625 C4.64169922 11.10791016 4.59980469 11.96191406 4.55664062 12.84179688 C4.49766602 14.18854492 4.49766602 14.18854492 4.4375 15.5625 C4.39431641 16.46419922 4.35113281 17.36589844 4.30664062 18.29492188 C4.20021858 20.52978485 4.09820012 22.76476308 4 25 C2.68 25 1.36 25 0 25 C0 16.75 0 8.5 0 0 Z " fill="#181818" transform="translate(575,245)"/>
<path d="M0 0 C3.5 0.625 3.5 0.625 5.9375 2.6875 C7.88701789 6.35259364 8.01301543 8.52087659 7.5 12.625 C5.3 17.225 5.3 17.225 2.5 18.625 C-0.375 19.0625 -0.375 19.0625 -3.5 18.625 C-6.42620266 15.46778134 -7.4017478 13.3250469 -8 9.0625 C-7.19803726 3.54900615 -5.6113191 1.00202127 0 0 Z " fill="#F7F7F7" transform="translate(946.5,248.375)"/>
<path d="M0 0 C2.10358381 1.54262813 2.84054159 2.68108317 4 5 C4.27785312 8.6815539 4.22270258 11.39739303 2.9375 14.875 C1 17 1 17 -2.5 17.9375 C-6 18 -6 18 -9 16 C-10.60092914 11.19721257 -10.89789627 6.16551453 -8.9375 1.4375 C-5.93408933 -0.79083695 -3.62113687 -0.45264211 0 0 Z " fill="#F7F7F7" transform="translate(725,249)"/>
<path d="M0 0 C2.8125 1.3125 2.8125 1.3125 5 3 C5.33 3.99 5.66 4.98 6 6 C4.1875 6.6875 4.1875 6.6875 2 7 C1.54625 6.505 1.0925 6.01 0.625 5.5 C0.08875 5.005 -0.4475 4.51 -1 4 C-4.14921909 4.23283149 -4.14921909 4.23283149 -7 5 C-7 6.32 -7 7.64 -7 9 C-6.31292969 9.18175781 -5.62585938 9.36351562 -4.91796875 9.55078125 C-4.01691406 9.80214844 -3.11585938 10.05351562 -2.1875 10.3125 C-1.29417969 10.55613281 -0.40085937 10.79976562 0.51953125 11.05078125 C3.09608037 12.03676776 4.33873534 12.82093857 6 15 C6.51924297 18.48634568 6.39852706 20.31163508 4.625 23.375 C0.65527525 25.83244866 -3.44810038 25.80971291 -8 25 C-10.3125 23.47265625 -10.3125 23.47265625 -12 22 C-11.67 20.68 -11.34 19.36 -11 18 C-8 19 -8 19 -7 21 C-4.69 21 -2.38 21 0 21 C0.66 19.35 1.32 17.7 2 16 C1.40832031 15.90203125 0.81664062 15.8040625 0.20703125 15.703125 C-8.75016926 14.00812458 -8.75016926 14.00812458 -12 10 C-12.125 6.4375 -12.125 6.4375 -11 3 C-7.52461505 -0.0781981 -4.54841531 -0.56855191 0 0 Z " fill="#121212" transform="translate(776,245)"/>
<path d="M0 0 C1.875 0.375 1.875 0.375 3.875 1.875 C5.60225496 6.19313739 5.56872013 10.44249392 4 14.8125 C2.875 16.375 2.875 16.375 0.875 17.375 C-3.17642119 17.63360135 -4.66837669 17.67941554 -8.125 15.375 C-9.65775382 10.77673855 -9.92369564 6.37173909 -8.125 1.875 C-5.40905669 -0.16195749 -3.33713324 -0.19630196 0 0 Z " fill="#F6F6F6" transform="translate(1376.125,248.625)"/>
<path d="M0 0 C3.4375 0.5 3.4375 0.5 5.12890625 1.72265625 C6.85233503 4.06343265 6.83853295 5.55218176 6.8125 8.4375 C6.82023437 9.29214844 6.82796875 10.14679688 6.8359375 11.02734375 C6.35788341 13.99409122 5.54464863 15.37343064 3.4375 17.5 C-2.56851403 18.25075175 -2.56851403 18.25075175 -5.22265625 16.24609375 C-7.66884547 13.05820284 -7.77528311 9.41932752 -7.5625 5.5 C-5.55095786 1.39310147 -4.54473745 0.63785789 0 0 Z " fill="#F8F8F8" transform="translate(1203.5625,248.5)"/>
<path d="M0 0 C2.06541977 1.5599994 2.87711216 2.60705325 3.65234375 5.0859375 C4.1532776 9.1071325 4.3204975 11.34565094 2.5 15.0625 C0 17 0 17 -3.5625 17.5625 C-7 17 -7 17 -8.9375 15.5625 C-10.54136452 11.69435616 -10.537354 8.12475961 -10 4 C-7.97247663 -0.88990931 -4.906588 -0.6133235 0 0 Z " fill="#F9F9F9" transform="translate(1024,249)"/>
<path d="M0 0 C0 0.99 0 1.98 0 3 C-1.65 3.33 -3.3 3.66 -5 4 C-5.33 5.98 -5.66 7.96 -6 10 C-4.02 10 -2.04 10 0 10 C0 10.99 0 11.98 0 13 C-1.98 13 -3.96 13 -6 13 C-6 19.93 -6 26.86 -6 34 C-7.32 34 -8.64 34 -10 34 C-10 27.07 -10 20.14 -10 13 C-11.32 13 -12.64 13 -14 13 C-14 11.68 -14 10.36 -14 9 C-12.68 9 -11.36 9 -10 9 C-10.061875 8.071875 -10.12375 7.14375 -10.1875 6.1875 C-10 3 -10 3 -8.9375 1.125 C-5.99772876 -0.58196395 -3.32129197 -0.18799766 0 0 Z " fill="#121212" transform="translate(1123,236)"/>
<path d="M0 0 C1.32 0 2.64 0 4 0 C4.08742801 4.20820145 4.14053641 8.41616776 4.1875 12.625 C4.21263672 13.81480469 4.23777344 15.00460938 4.26367188 16.23046875 C4.3569936 27.36686113 4.3569936 27.36686113 1 32 C-2.44520538 33.72260269 -6.22555935 33.36938476 -10 33 C-12.5 31.8125 -12.5 31.8125 -14 30 C-14.75 27.3125 -14.75 27.3125 -15 25 C-13.68 25 -12.36 25 -11 25 C-10.67 26.32 -10.34 27.64 -10 29 C-6.58357241 29.25015873 -6.58357241 29.25015873 -3 29 C-0.70825923 25.56238884 -0.70475953 24.07928385 -0.5859375 20.01953125 C-0.54726563 18.85615234 -0.50859375 17.69277344 -0.46875 16.49414062 C-0.42234375 14.67172852 -0.42234375 14.67172852 -0.375 12.8125 C-0.31699219 10.97268555 -0.31699219 10.97268555 -0.2578125 9.09570312 C-0.16343897 6.06395344 -0.07785451 3.03221159 0 0 Z " fill="#121212" transform="translate(880,237)"/>
<path d="M0 0 C1.32 0 2.64 0 4 0 C4.33 0.66 4.66 1.32 5 2 C5.99 1.34 6.98 0.68 8 0 C10.6875 -0.125 10.6875 -0.125 13 0 C13 1.32 13 2.64 13 4 C11.865625 4.28875 10.73125 4.5775 9.5625 4.875 C8.386875 5.24625 7.21125 5.6175 6 6 C4.3501993 9.29960141 4.61741639 12.99127884 4.4375 16.625 C4.37272461 17.82769531 4.37272461 17.82769531 4.30664062 19.0546875 C4.20048543 21.0362511 4.09973145 23.01810271 4 25 C2.68 25 1.36 25 0 25 C0 16.75 0 8.5 0 0 Z " fill="#1D1D1D" transform="translate(1310,245)"/>
<path d="M0 0 C1.32 0 2.64 0 4 0 C4 10.89 4 21.78 4 33 C2.68 33 1.36 33 0 33 C0 22.11 0 11.22 0 0 Z " fill="#111111" transform="translate(974,237)"/>
<path d="M0 0 C1.32 0 2.64 0 4 0 C4 10.89 4 21.78 4 33 C2.68 33 1.36 33 0 33 C0 22.11 0 11.22 0 0 Z " fill="#191919" transform="translate(963,237)"/>
<path d="M0 0 C1.32 0.33 2.64 0.66 4 1 C4.66 1 5.32 1 6 1 C6.33 0.67 6.66 0.34 7 0 C8.99958364 -0.04080783 11.00045254 -0.04254356 13 0 C13 0.33 13 0.66 13 1 C11.35 1.33 9.7 1.66 8 2 C8.99 2.66 9.98 3.32 11 4 C9.02 4.66 7.04 5.32 5 6 C4.67 12.27 4.34 18.54 4 25 C2.68 25 1.36 25 0 25 C0 16.75 0 8.5 0 0 Z " fill="#151515" transform="translate(672,245)"/>
<path d="M0 0 C1.134375 0.020625 2.26875 0.04125 3.4375 0.0625 C3.7675 1.0525 4.0975 2.0425 4.4375 3.0625 C5.4275 2.7325 6.4175 2.4025 7.4375 2.0625 C7.1075 9.3225 6.7775 16.5825 6.4375 24.0625 C5.1175 24.0625 3.7975 24.0625 2.4375 24.0625 C2.41768066 23.49740723 2.39786133 22.93231445 2.37744141 22.35009766 C2.28231764 19.79542003 2.17258942 17.24157459 2.0625 14.6875 C2.0315625 13.79804688 2.000625 12.90859375 1.96875 11.9921875 C1.93007813 11.14140625 1.89140625 10.290625 1.8515625 9.4140625 C1.8201416 8.62854004 1.7887207 7.84301758 1.75634766 7.03369141 C1.5975535 4.83247061 1.5975535 4.83247061 -0.5625 3.0625 C-1.87997324 2.36501417 -3.21164193 1.69290043 -4.5625 1.0625 C-3.5625 0.0625 -3.5625 0.0625 0 0 Z " fill="#080808" transform="translate(683.5625,245.9375)"/>
<path d="M0 0 C3.6875 0.3125 3.6875 0.3125 5.90234375 1.69140625 C8.683374 5.77471324 8.11277708 9.74912161 7.9375 14.5625 C7.91945313 15.49835938 7.90140625 16.43421875 7.8828125 17.3984375 C7.83575673 19.70417015 7.77003713 22.00780945 7.6875 24.3125 C6.3675 24.3125 5.0475 24.3125 3.6875 24.3125 C3.63142578 22.41564453 3.63142578 22.41564453 3.57421875 20.48046875 C3.50856167 18.8202827 3.44211424 17.16012778 3.375 15.5 C3.35244141 14.66662109 3.32988281 13.83324219 3.30664062 12.97460938 C3.27119141 12.17216797 3.23574219 11.36972656 3.19921875 10.54296875 C3.17303467 9.80457764 3.14685059 9.06618652 3.11987305 8.30541992 C2.57604013 5.79875246 1.65202239 4.91597826 -0.3125 3.3125 C-2.41239652 2.13675289 -2.41239652 2.13675289 -4.3125 1.3125 C-3.3125 0.3125 -3.3125 0.3125 0 0 Z " fill="#0F0F0F" transform="translate(1179.3125,245.6875)"/>
<path d="M0 0 C1.32 0 2.64 0 4 0 C4 8.25 4 16.5 4 25 C2.68 25 1.36 25 0 25 C0 16.75 0 8.5 0 0 Z " fill="#141414" transform="translate(1327,245)"/>
<path d="M0 0 C1.32 0 2.64 0 4 0 C4 8.25 4 16.5 4 25 C2.68 25 1.36 25 0 25 C0 16.75 0 8.5 0 0 Z " fill="#141414" transform="translate(1221,245)"/>
<path d="M0 0 C0.99 0 1.98 0 3 0 C3 0.99 3 1.98 3 3 C3.66 3 4.32 3 5 3 C4.67 9.93 4.34 16.86 4 24 C2.68 24 1.36 24 0 24 C0 16.08 0 8.16 0 0 Z " fill="#111111" transform="translate(1338,246)"/>
<path d="M0 0 C3.74623707 0.08838672 3.74623707 0.08838672 6.0625 2.1875 C7.0625 4.375 7.0625 4.375 7.0625 7.375 C2.4425 7.375 -2.1775 7.375 -6.9375 7.375 C-5.56856796 0.53033981 -5.56856796 0.53033981 0 0 Z " fill="#EBEBEB" transform="translate(1293.9375,248.625)"/>
<path d="M0 0 C1.9375 1.25 1.9375 1.25 3 3 C3 4.32 3 5.64 3 7 C-1.62 7 -6.24 7 -11 7 C-10.67 5.35 -10.34 3.7 -10 2 C-6.30513897 -0.46324069 -4.36706908 -0.38991688 0 0 Z " fill="#EAEAEA" transform="translate(1052,249)"/>
<path d="M0 0 C0.25 2.8125 0.25 2.8125 0 6 C-2.28506757 8.63661642 -3.64947662 8.96494766 -7.125 9.3125 C-10 9 -10 9 -12 7 C-11.625 4.375 -11.625 4.375 -11 2 C-9.35440244 1.66550467 -7.70851502 1.33243501 -6.0625 1 C-5.14597656 0.814375 -4.22945312 0.62875 -3.28515625 0.4375 C-1 0 -1 0 0 0 Z " fill="#F4F4F4" transform="translate(661,258)"/>
<path d="M0 0 C3.625 0.375 3.625 0.375 6.0625 2.1875 C7.625 4.375 7.625 4.375 7.625 7.375 C3.005 7.375 -1.615 7.375 -6.375 7.375 C-5.01136364 0.55681818 -5.01136364 0.55681818 0 0 Z " fill="#EBEBEB" transform="translate(1267.375,248.625)"/>
<path d="M0 0 C3.5625 0.3125 3.5625 0.3125 5.5 1.5625 C6.5625 3.3125 6.5625 3.3125 6.5625 7.3125 C1.9425 7.3125 -2.6775 7.3125 -7.4375 7.3125 C-4.68278302 0.42570755 -4.68278302 0.42570755 0 0 Z " fill="#ECECEC" transform="translate(994.4375,248.6875)"/>
<path d="M0 0 C1.32 0.33 2.64 0.66 4 1 C3.67 2.32 3.34 3.64 3 5 C1.35 4.67 -0.3 4.34 -2 4 C-1.34 2.68 -0.68 1.36 0 0 Z " fill="#272727" transform="translate(1328,236)"/>
<path d="M0 0 C1.32 0.66 2.64 1.32 4 2 C3.67 2.99 3.34 3.98 3 5 C1.35 4.67 -0.3 4.34 -2 4 C-1.34 2.68 -0.68 1.36 0 0 Z " fill="#1A1A1A" transform="translate(1222,236)"/>
<path d="M0 0 C1.4540625 0.0309375 1.4540625 0.0309375 2.9375 0.0625 C2.9375 0.3925 2.9375 0.7225 2.9375 1.0625 C1.2875 1.3925 -0.3625 1.7225 -2.0625 2.0625 C-1.0725 2.7225 -0.0825 3.3825 0.9375 4.0625 C-4.8125 5.1875 -4.8125 5.1875 -7.0625 4.0625 C-6.7325 3.0725 -6.4025 2.0825 -6.0625 1.0625 C-5.4025 1.0625 -4.7425 1.0625 -4.0625 1.0625 C-3.0625 0.0625 -3.0625 0.0625 0 0 Z " fill="#3E3E3E" transform="translate(682.0625,244.9375)"/>
<path d="M0 0 C0.66 0.33 1.32 0.66 2 1 C-0.64 3.64 -3.28 6.28 -6 9 C-6 6 -6 6 -3.5625 3.375 C-2.716875 2.59125 -1.87125 1.8075 -1 1 C-0.67 0.67 -0.34 0.34 0 0 Z " fill="#DCDCDC" transform="translate(1623,140)"/>
<path d="M0 0 C0.66 0.33 1.32 0.66 2 1 C-0.64 3.64 -3.28 6.28 -6 9 C-6 6 -6 6 -3.5625 3.375 C-2.716875 2.59125 -1.87125 1.8075 -1 1 C-0.67 0.67 -0.34 0.34 0 0 Z " fill="#DCDCDC" transform="translate(1225,140)"/>
<path d="M0 0 C0.66 0.33 1.32 0.66 2 1 C-0.64 3.64 -3.28 6.28 -6 9 C-6 6 -6 6 -3.5625 3.375 C-2.716875 2.59125 -1.87125 1.8075 -1 1 C-0.67 0.67 -0.34 0.34 0 0 Z " fill="#DCDCDC" transform="translate(698,140)"/>
<path d="M0 0 C0.66 0.33 1.32 0.66 2 1 C-0.64 3.64 -3.28 6.28 -6 9 C-6 6 -6 6 -3.5625 3.375 C-2.716875 2.59125 -1.87125 1.8075 -1 1 C-0.67 0.67 -0.34 0.34 0 0 Z " fill="#DCDCDC" transform="translate(632,140)"/>
<path d="M0 0 C0.66 0.33 1.32 0.66 2 1 C-0.31 3.31 -2.62 5.62 -5 8 C-5 5 -5 5 -2.5 2.3125 C-1.675 1.549375 -0.85 0.78625 0 0 Z " fill="#D9D9D9" transform="translate(1585,141)"/>
<path d="M0 0 C0.66 0.33 1.32 0.66 2 1 C-0.31 3.31 -2.62 5.62 -5 8 C-5 5 -5 5 -2.5 2.3125 C-1.675 1.549375 -0.85 0.78625 0 0 Z " fill="#D9D9D9" transform="translate(1424,141)"/>
</svg>
