<?xml version="1.0" encoding="UTF-8"?>
<svg version="1.1" xmlns="http://www.w3.org/2000/svg" width="1920" height="390">
<path d="M0 0 C1.78125 1.44140625 1.78125 1.44140625 4.09375 3.8203125 C6.93824996 6.59452685 9.97597989 8.77112449 13.28125 10.94140625 C17.56922145 13.75694203 21.15130344 16.81145969 24.78125 20.44140625 C26.93018619 21.99459775 29.06839178 23.48841582 31.28125 24.94140625 C35.56930107 27.75699431 39.15124769 30.81140394 42.78125 34.44140625 C44.95080708 36.01612761 47.10931001 37.53056435 49.34375 39.00390625 C53.18542305 41.54599619 56.52105614 44.18121239 59.78125 47.44140625 C62.63355729 49.61224092 65.60551003 51.61510322 68.56054688 53.64257812 C72.35033052 56.28765905 75.55875616 59.10142565 78.78125 62.44140625 C79.791875 63.22515625 80.8025 64.00890625 81.84375 64.81640625 C85.07357903 67.70263645 86.93260662 70.59837582 88.78125 74.44140625 C89.14347656 75.18003906 89.50570312 75.91867188 89.87890625 76.6796875 C95.48336318 88.63184474 95.35812675 102.09545379 91.05078125 114.5 C89.14884745 118.90663431 86.7531107 122.68637285 83.78125 126.44140625 C83.05808594 127.40046875 82.33492187 128.35953125 81.58984375 129.34765625 C78.51631911 133.00974041 74.76826548 135.4255872 70.78125 138.00390625 C65.93183761 141.16676101 61.86342146 144.29959267 57.78125 148.44140625 C55.09171338 150.38532876 52.36981094 152.2266435 49.59765625 154.046875 C46.91096763 155.84853678 44.5725748 157.65008145 42.28125 159.94140625 C39.04843177 163.17422448 35.39624907 165.55267136 31.59765625 168.046875 C28.91273239 169.84735336 26.57495067 171.64770558 24.28515625 173.9375 C21.50590387 176.71675238 18.48330512 178.85132848 15.21875 181.00390625 C11.37988941 183.54413514 8.02786626 186.1685016 4.78125 189.44140625 C-9.26176075 199.44140625 -9.26176075 199.44140625 -17.21875 199.44140625 C-17.21875 200.10140625 -17.21875 200.76140625 -17.21875 201.44140625 C-22.16875 201.44140625 -27.11875 201.44140625 -32.21875 201.44140625 C-32.21875 200.78140625 -32.21875 200.12140625 -32.21875 199.44140625 C-33.20875 199.35890625 -34.19875 199.27640625 -35.21875 199.19140625 C-43.22260928 197.99968475 -49.87328654 193.36417976 -55.21875 187.44140625 C-63.55731308 176.06760621 -66.73868808 163.25898354 -64.78515625 149.35546875 C-62.20764436 135.87556187 -55.65124962 126.03580864 -44.453125 118.20703125 C-43.04388319 117.28177147 -41.63148358 116.36132579 -40.21875 115.44140625 C-39.64640625 114.84714844 -39.0740625 114.25289063 -38.484375 113.640625 C-35.12561546 110.38031186 -31.29086899 107.88272225 -27.43945312 105.24023438 C-23.63813014 102.58709956 -20.40067929 99.81654567 -17.21875 96.44140625 C-17.8684375 95.95929688 -18.518125 95.4771875 -19.1875 94.98046875 C-20.44046875 94.03300781 -20.44046875 94.03300781 -21.71875 93.06640625 C-22.5540625 92.43992187 -23.389375 91.8134375 -24.25 91.16796875 C-25.22453125 90.31332031 -25.22453125 90.31332031 -26.21875 89.44140625 C-26.21875 88.78140625 -26.21875 88.12140625 -26.21875 87.44140625 C-26.899375 87.21066406 -27.58 86.97992188 -28.28125 86.7421875 C-31.94904118 85.11801933 -34.9821225 82.97684436 -38.21875 80.62890625 C-38.82203125 80.20287109 -39.4253125 79.77683594 -40.046875 79.33789062 C-43.78725342 76.65051005 -47.0156882 73.77083241 -50.21875 70.44140625 C-50.81558594 69.91417969 -51.41242188 69.38695312 -52.02734375 68.84375 C-61.02168549 60.75531318 -64.49392692 49.86410635 -65.3984375 38.10546875 C-65.85673675 23.59265927 -60.14281838 12.48829653 -50.90625 1.75390625 C-36.22006673 -10.88304214 -15.93357482 -10.3930363 0 0 Z " fill="#33A752" transform="translate(364.21875,108.55859375)"/>
<path d="M0 0 C0.886875 0.78375 1.77375 1.5675 2.6875 2.375 C2.6875 3.035 2.6875 3.695 2.6875 4.375 C3.285625 4.62378906 3.88375 4.87257813 4.5 5.12890625 C10.40714806 8.49387095 13.89463914 16.72789545 15.99609375 22.953125 C18.13823175 33.55489273 18.26908614 46.42960569 13.6875 56.375 C13.21183594 57.50035156 13.21183594 57.50035156 12.7265625 58.6484375 C9.54526282 65.25922335 4.52120491 70.00746518 -1.3125 74.375 C-1.9725 74.375 -2.6325 74.375 -3.3125 74.375 C-3.498125 74.92671875 -3.68375 75.4784375 -3.875 76.046875 C-6.00215128 79.49193523 -9.01696908 81.348569 -12.3125 83.625 C-12.95445312 84.08390625 -13.59640625 84.5428125 -14.2578125 85.015625 C-19.03692336 88.375 -19.03692336 88.375 -21.3125 88.375 C-21.8075 89.86 -21.8075 89.86 -22.3125 91.375 C-23.87109375 92.76171875 -23.87109375 92.76171875 -25.75 94.0625 C-26.36746094 94.49949219 -26.98492187 94.93648438 -27.62109375 95.38671875 C-29.3125 96.375 -29.3125 96.375 -31.3125 96.375 C-31.3125 97.035 -31.3125 97.695 -31.3125 98.375 C-29.3325 99.365 -29.3325 99.365 -27.3125 100.375 C-27.3125 101.035 -27.3125 101.695 -27.3125 102.375 C-26.80203125 102.601875 -26.2915625 102.82875 -25.765625 103.0625 C-22.33481322 104.89809357 -19.22979979 107.12183958 -16.0625 109.375 C-15.08796875 110.05175781 -15.08796875 110.05175781 -14.09375 110.7421875 C-12.46174291 111.90104968 -10.8820175 113.13281503 -9.3125 114.375 C-9.3125 115.035 -9.3125 115.695 -9.3125 116.375 C-8.59835938 116.62378906 -7.88421875 116.87257813 -7.1484375 117.12890625 C3.3485072 121.74120013 9.8733992 130.61009227 14.77734375 140.59375 C18.94227092 151.49549484 18.31985411 167.06330978 14.01171875 177.765625 C8.5517784 188.52444552 1.71888867 194.86470933 -9.234375 199.7109375 C-11.3125 200.375 -11.3125 200.375 -15.3125 200.375 C-15.3125 201.035 -15.3125 201.695 -15.3125 202.375 C-20.2625 202.375 -25.2125 202.375 -30.3125 202.375 C-30.3125 201.715 -30.3125 201.055 -30.3125 200.375 C-31.26125 200.313125 -32.21 200.25125 -33.1875 200.1875 C-42.4775378 198.83622177 -51.23452624 192.59714455 -57.6328125 185.97265625 C-60.49680962 183.19633251 -63.55990935 180.99839982 -66.875 178.8125 C-70.71673857 176.2703667 -74.05227039 173.63522961 -77.3125 170.375 C-79.59366149 168.63319818 -81.95088799 167.0054016 -84.3125 165.375 C-90.77874639 160.910855 -90.77874639 160.910855 -93.296875 158.3828125 C-96.64571408 155.04695342 -100.63324236 152.56296701 -104.53125 149.91015625 C-106.15855675 148.77856269 -107.7400522 147.58166449 -109.3125 146.375 C-109.3125 145.715 -109.3125 145.055 -109.3125 144.375 C-109.83457031 144.13652344 -110.35664063 143.89804688 -110.89453125 143.65234375 C-124.55111008 136.43796366 -135.74932924 126.29379074 -140.5 111.25 C-143.36227263 97.59916129 -141.96197943 83.52920837 -134.5625 71.5 C-131.4336746 67.18190167 -127.68625321 63.43859741 -123.3125 60.375 C-122.6525 60.375 -121.9925 60.375 -121.3125 60.375 C-121.126875 59.82328125 -120.94125 59.2715625 -120.75 58.703125 C-118.62284872 55.25806477 -115.60803092 53.401431 -112.3125 51.125 C-111.34957031 50.43664062 -111.34957031 50.43664062 -110.3671875 49.734375 C-105.58807664 46.375 -105.58807664 46.375 -103.3125 46.375 C-102.9825 45.385 -102.6525 44.395 -102.3125 43.375 C-100.0528223 41.56610199 -97.81115407 39.89402787 -95.4375 38.25 C-94.48037109 37.56744141 -94.48037109 37.56744141 -93.50390625 36.87109375 C-90.80256689 34.97056898 -88.46220925 33.42490308 -85.3125 32.375 C-84.9825 31.385 -84.6525 30.395 -84.3125 29.375 C-82.80957031 28.10400391 -82.80957031 28.10400391 -80.890625 26.8515625 C-80.19453125 26.3875 -79.4984375 25.9234375 -78.78125 25.4453125 C-77.68296875 24.72988281 -77.68296875 24.72988281 -76.5625 24 C-71.63533042 20.77429905 -67.46014414 17.5904161 -63.3125 13.375 C-60.62296338 11.43107749 -57.90106094 9.58976275 -55.12890625 7.76953125 C-51.43033448 5.28931253 -48.4343756 2.53354193 -45.3125 -0.625 C-32.05698182 -9.54283845 -13.07068519 -8.8986281 0 0 Z " fill="#4184F2" transform="translate(251.3125,107.625)"/>
<path d="M0 0 C0.886875 0.78375 1.77375 1.5675 2.6875 2.375 C2.6875 3.035 2.6875 3.695 2.6875 4.375 C3.285625 4.62378906 3.88375 4.87257813 4.5 5.12890625 C10.40714806 8.49387095 13.89463914 16.72789545 15.99609375 22.953125 C18.13823175 33.55489273 18.26908614 46.42960569 13.6875 56.375 C13.21183594 57.50035156 13.21183594 57.50035156 12.7265625 58.6484375 C9.54526282 65.25922335 4.52120491 70.00746518 -1.3125 74.375 C-1.9725 74.375 -2.6325 74.375 -3.3125 74.375 C-3.498125 74.92671875 -3.68375 75.4784375 -3.875 76.046875 C-6.00215128 79.49193523 -9.01696908 81.348569 -12.3125 83.625 C-12.95445312 84.08390625 -13.59640625 84.5428125 -14.2578125 85.015625 C-19.03692336 88.375 -19.03692336 88.375 -21.3125 88.375 C-21.8075 89.86 -21.8075 89.86 -22.3125 91.375 C-23.87109375 92.76171875 -23.87109375 92.76171875 -25.75 94.0625 C-26.36746094 94.49949219 -26.98492187 94.93648438 -27.62109375 95.38671875 C-29.3125 96.375 -29.3125 96.375 -31.3125 96.375 C-31.3125 97.035 -31.3125 97.695 -31.3125 98.375 C-29.3325 99.365 -29.3325 99.365 -27.3125 100.375 C-27.3125 101.035 -27.3125 101.695 -27.3125 102.375 C-26.80203125 102.601875 -26.2915625 102.82875 -25.765625 103.0625 C-22.33481322 104.89809357 -19.22979979 107.12183958 -16.0625 109.375 C-15.08796875 110.05175781 -15.08796875 110.05175781 -14.09375 110.7421875 C-12.46174291 111.90104968 -10.8820175 113.13281503 -9.3125 114.375 C-9.3125 115.035 -9.3125 115.695 -9.3125 116.375 C-8.59835938 116.62378906 -7.88421875 116.87257813 -7.1484375 117.12890625 C3.3485072 121.74120013 9.8733992 130.61009227 14.77734375 140.59375 C18.94227092 151.49549484 18.31985411 167.06330978 14.01171875 177.765625 C8.5517784 188.52444552 1.71888867 194.86470933 -9.234375 199.7109375 C-11.3125 200.375 -11.3125 200.375 -15.3125 200.375 C-15.3125 201.035 -15.3125 201.695 -15.3125 202.375 C-20.2625 202.375 -25.2125 202.375 -30.3125 202.375 C-30.3125 201.715 -30.3125 201.055 -30.3125 200.375 C-31.26125 200.313125 -32.21 200.25125 -33.1875 200.1875 C-42.4775378 198.83622177 -51.23452624 192.59714455 -57.6328125 185.97265625 C-60.49680962 183.19633251 -63.55990935 180.99839982 -66.875 178.8125 C-70.71673857 176.2703667 -74.05227039 173.63522961 -77.3125 170.375 C-79.59366149 168.63319818 -81.95088799 167.0054016 -84.3125 165.375 C-90.77874639 160.910855 -90.77874639 160.910855 -93.296875 158.3828125 C-96.64571408 155.04695342 -100.63324236 152.56296701 -104.53125 149.91015625 C-106.15855675 148.77856269 -107.7400522 147.58166449 -109.3125 146.375 C-109.3125 145.715 -109.3125 145.055 -109.3125 144.375 C-109.83457031 144.13652344 -110.35664063 143.89804688 -110.89453125 143.65234375 C-124.55111008 136.43796366 -135.74932924 126.29379074 -140.5 111.25 C-143.36227263 97.59916129 -141.96197943 83.52920837 -134.5625 71.5 C-131.4336746 67.18190167 -127.68625321 63.43859741 -123.3125 60.375 C-122.6525 60.375 -121.9925 60.375 -121.3125 60.375 C-121.126875 59.82328125 -120.94125 59.2715625 -120.75 58.703125 C-118.62284872 55.25806477 -115.60803092 53.401431 -112.3125 51.125 C-111.34957031 50.43664062 -111.34957031 50.43664062 -110.3671875 49.734375 C-105.58807664 46.375 -105.58807664 46.375 -103.3125 46.375 C-102.9825 45.385 -102.6525 44.395 -102.3125 43.375 C-100.0528223 41.56610199 -97.81115407 39.89402787 -95.4375 38.25 C-94.48037109 37.56744141 -94.48037109 37.56744141 -93.50390625 36.87109375 C-90.80256689 34.97056898 -88.46220925 33.42490308 -85.3125 32.375 C-84.9825 31.385 -84.6525 30.395 -84.3125 29.375 C-82.80957031 28.10400391 -82.80957031 28.10400391 -80.890625 26.8515625 C-80.19453125 26.3875 -79.4984375 25.9234375 -78.78125 25.4453125 C-77.68296875 24.72988281 -77.68296875 24.72988281 -76.5625 24 C-71.63533042 20.77429905 -67.46014414 17.5904161 -63.3125 13.375 C-60.62296338 11.43107749 -57.90106094 9.58976275 -55.12890625 7.76953125 C-51.43033448 5.28931253 -48.4343756 2.53354193 -45.3125 -0.625 C-32.05698182 -9.54283845 -13.07068519 -8.8986281 0 0 Z M-127.3125 73.375 C-134.60207192 82.59149118 -136.62240032 92.78550096 -135.3125 104.375 C-131.88028378 117.93606762 -124.904007 125.8555062 -113.3984375 133.234375 C-110.316355 135.3723259 -107.95402935 137.72524158 -105.3125 140.375 C-103.16356381 141.9281915 -101.02535822 143.42200957 -98.8125 144.875 C-94.52422903 147.69073245 -90.94010317 150.74178135 -87.3125 154.375 C-85.08257916 156.11159374 -82.76562955 157.71101008 -80.4375 159.3125 C-76.15503492 162.31176958 -72.04205555 165.33267004 -68.140625 168.8203125 C-64.66764795 171.77382717 -60.95790601 174.42672639 -57.296875 177.140625 C-54.7196699 179.07015552 -52.19934038 181.0494648 -49.6875 183.0625 C-39.97483789 190.62852302 -31.25969883 195.03267604 -18.73046875 194.81640625 C-10.5688393 193.7623901 -3.25154384 189.36451817 2.2265625 183.28515625 C9.76548629 173.42811418 12.06692105 162.67483767 10.6875 150.375 C7.17046143 137.4373224 -0.996225 130.22057049 -11.3125 122.375 C-12.85513318 121.18729142 -14.39775311 119.99956548 -15.93994141 118.8112793 C-17.02730964 117.9744017 -18.11553567 117.13863754 -19.20458984 116.30395508 C-23.3474422 113.12809121 -27.46092509 109.91645834 -31.5625 106.6875 C-32.15571045 106.22053711 -32.7489209 105.75357422 -33.36010742 105.27246094 C-34.49968384 104.37533741 -35.6392513 103.47820251 -36.77880859 102.58105469 C-42.87193429 97.78958049 -49.01490219 93.06339978 -55.16650391 88.34741211 C-58.63715164 85.68110976 -62.07848253 82.98110409 -65.50512695 80.25854492 C-70.86626615 76.00758986 -76.28063402 71.83943273 -81.8125 67.8125 C-82.37573975 67.39484375 -82.93897949 66.9771875 -83.51928711 66.546875 C-98.21440676 55.99181218 -115.80389032 60.90923862 -127.3125 73.375 Z " fill="#E74234" transform="translate(251.3125,107.625)"/>
<path d="M0 0 C3.37124876 1.28525671 5.50353982 3.16036976 8.20703125 5.546875 C12.9462481 9.65165067 17.81748416 13.40892255 22.9296875 17.046875 C25.58091528 18.9835598 28.1106952 21.02222143 30.64453125 23.109375 C34.77911522 26.48075326 39.07717246 29.18631431 43.74609375 31.7578125 C44.35195313 32.16257813 44.9578125 32.56734375 45.58203125 32.984375 C45.58203125 33.644375 45.58203125 34.304375 45.58203125 34.984375 C51.90664705 36.7743606 58.03113275 37.52677547 64.58203125 37.984375 C61.73801761 40.96066835 58.77642097 43.42893865 55.45703125 45.859375 C50.23163833 49.72294407 45.08176144 53.67584508 39.95703125 57.671875 C39.19680664 58.26427979 38.43658203 58.85668457 37.65332031 59.46704102 C35.29556611 61.30531093 32.93865531 63.14465655 30.58203125 64.984375 C-6.54983062 93.97167622 -6.54983062 93.97167622 -20.41796875 92.984375 C-23.15458801 92.46332994 -25.73788348 91.76403617 -28.41796875 90.984375 C-28.41796875 90.324375 -28.41796875 89.664375 -28.41796875 88.984375 C-29.68640625 88.675 -29.68640625 88.675 -30.98046875 88.359375 C-40.84812123 84.41231401 -44.35699582 76.21907332 -48.41796875 66.984375 C-51.54005947 57.61810283 -50.15134701 46.20352442 -45.890625 37.4921875 C-39.49538313 26.60161647 -28.29096724 19.81534037 -18.32739258 12.43603516 C-15.2666815 10.16223933 -12.24276027 7.88042044 -9.34375 5.40234375 C-8.05017578 4.29826172 -8.05017578 4.29826172 -6.73046875 3.171875 C-6.00472656 2.52605469 -5.27898437 1.88023437 -4.53125 1.21484375 C-2.41796875 -0.015625 -2.41796875 -0.015625 0 0 Z " fill="#F6A900" transform="translate(355.41796875,210.015625)"/>
<path d="M0 0 C1.78125 1.44140625 1.78125 1.44140625 4.09375 3.8203125 C6.93824996 6.59452685 9.97597989 8.77112449 13.28125 10.94140625 C17.56922145 13.75694203 21.15130344 16.81145969 24.78125 20.44140625 C26.93018619 21.99459775 29.06839178 23.48841582 31.28125 24.94140625 C35.56930107 27.75699431 39.15124769 30.81140394 42.78125 34.44140625 C44.95080708 36.01612761 47.10931001 37.53056435 49.34375 39.00390625 C53.18542305 41.54599619 56.52105614 44.18121239 59.78125 47.44140625 C62.63355729 49.61224092 65.60551003 51.61510322 68.56054688 53.64257812 C72.35033052 56.28765905 75.55875616 59.10142565 78.78125 62.44140625 C79.791875 63.22515625 80.8025 64.00890625 81.84375 64.81640625 C85.07357903 67.70263645 86.93260662 70.59837582 88.78125 74.44140625 C89.14347656 75.18003906 89.50570312 75.91867188 89.87890625 76.6796875 C95.48336318 88.63184474 95.35812675 102.09545379 91.05078125 114.5 C89.14884745 118.90663431 86.7531107 122.68637285 83.78125 126.44140625 C83.05808594 127.40046875 82.33492187 128.35953125 81.58984375 129.34765625 C78.51631911 133.00974041 74.76826548 135.4255872 70.78125 138.00390625 C65.93183761 141.16676101 61.86342146 144.29959267 57.78125 148.44140625 C55.09171338 150.38532876 52.36981094 152.2266435 49.59765625 154.046875 C46.91096763 155.84853678 44.5725748 157.65008145 42.28125 159.94140625 C39.04843177 163.17422448 35.39624907 165.55267136 31.59765625 168.046875 C28.91273239 169.84735336 26.57495067 171.64770558 24.28515625 173.9375 C21.50590387 176.71675238 18.48330512 178.85132848 15.21875 181.00390625 C11.37988941 183.54413514 8.02786626 186.1685016 4.78125 189.44140625 C-9.26176075 199.44140625 -9.26176075 199.44140625 -17.21875 199.44140625 C-17.21875 200.10140625 -17.21875 200.76140625 -17.21875 201.44140625 C-22.16875 201.44140625 -27.11875 201.44140625 -32.21875 201.44140625 C-32.21875 200.78140625 -32.21875 200.12140625 -32.21875 199.44140625 C-33.20875 199.35890625 -34.19875 199.27640625 -35.21875 199.19140625 C-43.22260928 197.99968475 -49.87328654 193.36417976 -55.21875 187.44140625 C-63.55731308 176.06760621 -66.73868808 163.25898354 -64.78515625 149.35546875 C-62.20764436 135.87556187 -55.65124962 126.03580864 -44.453125 118.20703125 C-43.04388319 117.28177147 -41.63148358 116.36132579 -40.21875 115.44140625 C-39.64640625 114.84714844 -39.0740625 114.25289063 -38.484375 113.640625 C-35.12561546 110.38031186 -31.29086899 107.88272225 -27.43945312 105.24023438 C-23.63813014 102.58709956 -20.40067929 99.81654567 -17.21875 96.44140625 C-17.8684375 95.95929688 -18.518125 95.4771875 -19.1875 94.98046875 C-20.44046875 94.03300781 -20.44046875 94.03300781 -21.71875 93.06640625 C-22.5540625 92.43992187 -23.389375 91.8134375 -24.25 91.16796875 C-25.22453125 90.31332031 -25.22453125 90.31332031 -26.21875 89.44140625 C-26.21875 88.78140625 -26.21875 88.12140625 -26.21875 87.44140625 C-26.899375 87.21066406 -27.58 86.97992188 -28.28125 86.7421875 C-31.94904118 85.11801933 -34.9821225 82.97684436 -38.21875 80.62890625 C-38.82203125 80.20287109 -39.4253125 79.77683594 -40.046875 79.33789062 C-43.78725342 76.65051005 -47.0156882 73.77083241 -50.21875 70.44140625 C-50.81558594 69.91417969 -51.41242188 69.38695312 -52.02734375 68.84375 C-61.02168549 60.75531318 -64.49392692 49.86410635 -65.3984375 38.10546875 C-65.85673675 23.59265927 -60.14281838 12.48829653 -50.90625 1.75390625 C-36.22006673 -10.88304214 -15.93357482 -10.3930363 0 0 Z M-51.609375 13.10546875 C-58.28604172 22.7963588 -59.81316481 32.96666347 -58.21875 44.44140625 C-54.53380691 59.79827436 -42.34552329 68.17777814 -30.26757812 76.93457031 C-27.04832158 79.30221228 -23.91323964 81.77259153 -20.78125 84.25390625 C-19.90460693 84.94625366 -19.90460693 84.94625366 -19.01025391 85.65258789 C-17.41252005 86.91481136 -15.81560524 88.17807141 -14.21875 89.44140625 C-9.91770742 92.81868539 -5.59047077 96.16036596 -1.2421875 99.4765625 C0.24481747 100.61064325 1.7317959 101.7447588 3.21875 102.87890625 C4.34265137 103.73609253 4.34265137 103.73609253 5.48925781 104.6105957 C9.31102601 107.53151854 13.105944 110.47564986 16.84375 113.50390625 C18.48645451 114.82032014 20.13272752 116.13228546 21.78125 117.44140625 C22.38324219 117.92029297 22.98523438 118.39917969 23.60546875 118.89257812 C25.6742237 120.52717464 27.75739958 122.14184688 29.84375 123.75390625 C30.49287354 124.27025635 31.14199707 124.78660645 31.81079102 125.31860352 C40.70922402 132.12407678 49.70781111 133.55000992 60.78125 132.44140625 C69.09913962 130.51925294 75.64347181 125.90402411 80.5390625 118.94140625 C82.0573874 116.47687888 83.4768501 114.02528121 84.78125 111.44140625 C85.15894531 110.69632812 85.53664063 109.95125 85.92578125 109.18359375 C87.1273102 105.3321174 87.12190415 101.704201 87.09375 97.69140625 C87.08956055 96.88735352 87.08537109 96.08330078 87.08105469 95.25488281 C86.86257424 83.79628049 82.92416375 76.36807089 74.80957031 68.33154297 C71.40648961 65.16030431 67.74255663 62.36445942 64.03125 59.56640625 C62.90009766 58.69628906 62.90009766 58.69628906 61.74609375 57.80859375 C57.56494987 54.58330089 57.56494987 54.58330089 52.78125 52.44140625 C52.45125 51.45140625 52.12125 50.46140625 51.78125 49.44140625 C49.74916591 47.8466814 47.72871695 46.38528892 45.59375 44.94140625 C40.42922506 41.35580185 35.39472958 37.66132321 30.46875 33.75390625 C29.87795654 33.285896 29.28716309 32.81788574 28.6784668 32.33569336 C27.5468404 31.4375494 26.41586617 30.53858294 25.28564453 29.63867188 C18.47361471 24.21734857 11.52906122 18.98064314 4.53955078 13.79125977 C1.50175788 11.52652661 -1.4646276 9.25044594 -4.3125 6.75 C-10.54941095 1.79567961 -19.057657 -1.45843002 -27.10546875 -0.9140625 C-36.94786525 0.74149772 -45.30533329 5.32662829 -51.609375 13.10546875 Z M-15.96875 105.19140625 C-20.57661532 109.11024498 -25.29139998 112.78498025 -30.15625 116.37890625 C-44.78358128 126.49790294 -44.78358128 126.49790294 -55.21875 140.44140625 C-56.1159375 142.14296875 -56.1159375 142.14296875 -57.03125 143.87890625 C-60.40762327 153.77382676 -59.21712742 165.61716811 -54.69921875 174.85546875 C-50.69280961 181.853471 -46.67725305 186.94733275 -39.21875 190.44140625 C-38.55875 190.44140625 -37.89875 190.44140625 -37.21875 190.44140625 C-37.21875 191.10140625 -37.21875 191.76140625 -37.21875 192.44140625 C-28.17337009 195.0727895 -19.85257967 195.79107461 -11.21875 191.44140625 C-3.28532243 186.35949535 4.05564773 180.53018527 11.29296875 174.5078125 C21.77539775 165.80262421 32.82488301 157.73839618 43.6640625 149.484375 C44.82819007 148.59513726 45.99225639 147.70581933 47.15625 146.81640625 C48.68378906 145.65238281 48.68378906 145.65238281 50.2421875 144.46484375 C52.23924296 142.87334417 54.04013637 141.30096299 55.78125 139.44140625 C54.74484375 139.30863281 53.7084375 139.17585938 52.640625 139.0390625 C51.27081735 138.86079986 49.90102656 138.68240763 48.53125 138.50390625 C47.84933594 138.41689453 47.16742188 138.32988281 46.46484375 138.24023438 C43.18088389 137.80981245 39.96934706 137.35346494 36.78125 136.44140625 C36.78125 135.78140625 36.78125 135.12140625 36.78125 134.44140625 C34.86593622 133.12399828 34.86593622 133.12399828 32.40625 131.81640625 C27.73763069 129.10559504 23.63937226 126.0661346 19.4765625 122.640625 C15.94406654 119.75831308 12.31746552 117.00427938 8.68847656 114.24560547 C5.95560677 112.15590663 3.26921261 110.03391914 0.6484375 107.8046875 C-0.31835938 106.98355469 -1.28515625 106.16242188 -2.28125 105.31640625 C-3.13847656 104.57132812 -3.99570312 103.82625 -4.87890625 103.05859375 C-9.61910143 99.78239875 -12.16176369 101.8573375 -15.96875 105.19140625 Z " fill="#12130F" transform="translate(364.21875,108.55859375)"/>
<path d="M0 0 C0.886875 0.78375 1.77375 1.5675 2.6875 2.375 C2.6875 3.035 2.6875 3.695 2.6875 4.375 C3.285625 4.62378906 3.88375 4.87257813 4.5 5.12890625 C10.40714806 8.49387095 13.89463914 16.72789545 15.99609375 22.953125 C18.13823175 33.55489273 18.26908614 46.42960569 13.6875 56.375 C13.21183594 57.50035156 13.21183594 57.50035156 12.7265625 58.6484375 C9.54526282 65.25922335 4.52120491 70.00746518 -1.3125 74.375 C-1.9725 74.375 -2.6325 74.375 -3.3125 74.375 C-3.498125 74.92671875 -3.68375 75.4784375 -3.875 76.046875 C-6.00215128 79.49193523 -9.01696908 81.348569 -12.3125 83.625 C-12.95445312 84.08390625 -13.59640625 84.5428125 -14.2578125 85.015625 C-19.03692336 88.375 -19.03692336 88.375 -21.3125 88.375 C-21.8075 89.86 -21.8075 89.86 -22.3125 91.375 C-23.87109375 92.76171875 -23.87109375 92.76171875 -25.75 94.0625 C-26.36746094 94.49949219 -26.98492187 94.93648438 -27.62109375 95.38671875 C-29.3125 96.375 -29.3125 96.375 -31.3125 96.375 C-31.3125 97.035 -31.3125 97.695 -31.3125 98.375 C-29.3325 99.365 -29.3325 99.365 -27.3125 100.375 C-27.3125 101.035 -27.3125 101.695 -27.3125 102.375 C-26.80203125 102.601875 -26.2915625 102.82875 -25.765625 103.0625 C-22.33481322 104.89809357 -19.22979979 107.12183958 -16.0625 109.375 C-15.08796875 110.05175781 -15.08796875 110.05175781 -14.09375 110.7421875 C-12.46174291 111.90104968 -10.8820175 113.13281503 -9.3125 114.375 C-9.3125 115.035 -9.3125 115.695 -9.3125 116.375 C-8.59835938 116.62378906 -7.88421875 116.87257813 -7.1484375 117.12890625 C3.3485072 121.74120013 9.8733992 130.61009227 14.77734375 140.59375 C18.94227092 151.49549484 18.31985411 167.06330978 14.01171875 177.765625 C8.5517784 188.52444552 1.71888867 194.86470933 -9.234375 199.7109375 C-11.3125 200.375 -11.3125 200.375 -15.3125 200.375 C-15.3125 201.035 -15.3125 201.695 -15.3125 202.375 C-20.2625 202.375 -25.2125 202.375 -30.3125 202.375 C-30.3125 201.715 -30.3125 201.055 -30.3125 200.375 C-31.26125 200.313125 -32.21 200.25125 -33.1875 200.1875 C-42.4775378 198.83622177 -51.23452624 192.59714455 -57.6328125 185.97265625 C-60.49680962 183.19633251 -63.55990935 180.99839982 -66.875 178.8125 C-70.71673857 176.2703667 -74.05227039 173.63522961 -77.3125 170.375 C-79.59366149 168.63319818 -81.95088799 167.0054016 -84.3125 165.375 C-90.77874639 160.910855 -90.77874639 160.910855 -93.296875 158.3828125 C-96.64571408 155.04695342 -100.63324236 152.56296701 -104.53125 149.91015625 C-106.15855675 148.77856269 -107.7400522 147.58166449 -109.3125 146.375 C-109.3125 145.715 -109.3125 145.055 -109.3125 144.375 C-109.83457031 144.13652344 -110.35664063 143.89804688 -110.89453125 143.65234375 C-124.55111008 136.43796366 -135.74932924 126.29379074 -140.5 111.25 C-143.36227263 97.59916129 -141.96197943 83.52920837 -134.5625 71.5 C-131.4336746 67.18190167 -127.68625321 63.43859741 -123.3125 60.375 C-122.6525 60.375 -121.9925 60.375 -121.3125 60.375 C-121.126875 59.82328125 -120.94125 59.2715625 -120.75 58.703125 C-118.62284872 55.25806477 -115.60803092 53.401431 -112.3125 51.125 C-111.34957031 50.43664062 -111.34957031 50.43664062 -110.3671875 49.734375 C-105.58807664 46.375 -105.58807664 46.375 -103.3125 46.375 C-102.9825 45.385 -102.6525 44.395 -102.3125 43.375 C-100.0528223 41.56610199 -97.81115407 39.89402787 -95.4375 38.25 C-94.48037109 37.56744141 -94.48037109 37.56744141 -93.50390625 36.87109375 C-90.80256689 34.97056898 -88.46220925 33.42490308 -85.3125 32.375 C-84.9825 31.385 -84.6525 30.395 -84.3125 29.375 C-82.80957031 28.10400391 -82.80957031 28.10400391 -80.890625 26.8515625 C-80.19453125 26.3875 -79.4984375 25.9234375 -78.78125 25.4453125 C-77.68296875 24.72988281 -77.68296875 24.72988281 -76.5625 24 C-71.63533042 20.77429905 -67.46014414 17.5904161 -63.3125 13.375 C-60.62296338 11.43107749 -57.90106094 9.58976275 -55.12890625 7.76953125 C-51.43033448 5.28931253 -48.4343756 2.53354193 -45.3125 -0.625 C-32.05698182 -9.54283845 -13.07068519 -8.8986281 0 0 Z M-42.3125 6.375 C-42.96476562 6.79394531 -43.61703125 7.21289062 -44.2890625 7.64453125 C-47.03514985 9.48499405 -49.28251114 11.34382602 -51.5859375 13.73828125 C-55.06929877 17.10686127 -58.89202929 19.60516745 -62.93554688 22.24414062 C-64.42678016 23.24113659 -65.87416827 24.30309539 -67.3125 25.375 C-67.3125 26.035 -67.3125 26.695 -67.3125 27.375 C-68.07820313 27.7153125 -68.07820313 27.7153125 -68.859375 28.0625 C-72.29018678 29.89809357 -75.39520021 32.12183958 -78.5625 34.375 C-79.2121875 34.82617188 -79.861875 35.27734375 -80.53125 35.7421875 C-82.16325709 36.90104968 -83.7429825 38.13281503 -85.3125 39.375 C-85.3125 40.035 -85.3125 40.695 -85.3125 41.375 C-85.82296875 41.601875 -86.3334375 41.82875 -86.859375 42.0625 C-90.29018678 43.89809357 -93.39520021 46.12183958 -96.5625 48.375 C-97.2121875 48.82617188 -97.861875 49.27734375 -98.53125 49.7421875 C-100.16325709 50.90104968 -101.7429825 52.13281503 -103.3125 53.375 C-103.3125 54.035 -103.3125 54.695 -103.3125 55.375 C-102.51328125 55.44976562 -101.7140625 55.52453125 -100.890625 55.6015625 C-86.43672644 57.33195881 -76.77039744 64.12188164 -65.84912109 73.11328125 C-63.90277592 74.71142422 -61.92596879 76.26717568 -59.9375 77.8125 C-59.26074219 78.3384375 -58.58398438 78.864375 -57.88671875 79.40625 C-51.73320191 84.1124298 -45.51813696 88.7379044 -39.3125 93.375 C-35.77625508 91.67327042 -32.82206024 89.62366435 -29.6875 87.25 C-28.8979895 86.65276123 -28.8979895 86.65276123 -28.0925293 86.04345703 C-23.90128306 82.85848891 -19.78238009 79.58865315 -15.6875 76.28125 C-13.35442837 74.40865303 -10.99499782 72.57553886 -8.625 70.75 C-7.18659041 69.62616323 -5.74903982 68.50122582 -4.3125 67.375 C-3.67183594 66.88386719 -3.03117187 66.39273438 -2.37109375 65.88671875 C4.15212184 60.65969287 8.32792596 53.94925355 10.3125 45.8125 C11.70219387 33.0736395 10.42107617 23.06547478 2.64453125 12.63671875 C-2.26829846 6.95901735 -8.82960872 2.21018907 -16.40087891 1.05688477 C-18.65176377 0.90143413 -20.86888481 0.85659152 -23.125 0.875 C-24.3147644 0.88140503 -24.3147644 0.88140503 -25.52856445 0.88793945 C-32.10098695 1.07829823 -36.88396924 2.57918826 -42.3125 6.375 Z M-127.3125 73.375 C-134.60207192 82.59149118 -136.62240032 92.78550096 -135.3125 104.375 C-131.88028378 117.93606762 -124.904007 125.8555062 -113.3984375 133.234375 C-110.316355 135.3723259 -107.95402935 137.72524158 -105.3125 140.375 C-103.16356381 141.9281915 -101.02535822 143.42200957 -98.8125 144.875 C-94.52422903 147.69073245 -90.94010317 150.74178135 -87.3125 154.375 C-85.08257916 156.11159374 -82.76562955 157.71101008 -80.4375 159.3125 C-76.15503492 162.31176958 -72.04205555 165.33267004 -68.140625 168.8203125 C-64.66764795 171.77382717 -60.95790601 174.42672639 -57.296875 177.140625 C-54.7196699 179.07015552 -52.19934038 181.0494648 -49.6875 183.0625 C-39.97483789 190.62852302 -31.25969883 195.03267604 -18.73046875 194.81640625 C-10.5688393 193.7623901 -3.25154384 189.36451817 2.2265625 183.28515625 C9.76548629 173.42811418 12.06692105 162.67483767 10.6875 150.375 C7.17046143 137.4373224 -0.996225 130.22057049 -11.3125 122.375 C-12.85513318 121.18729142 -14.39775311 119.99956548 -15.93994141 118.8112793 C-17.02730964 117.9744017 -18.11553567 117.13863754 -19.20458984 116.30395508 C-23.3474422 113.12809121 -27.46092509 109.91645834 -31.5625 106.6875 C-32.15571045 106.22053711 -32.7489209 105.75357422 -33.36010742 105.27246094 C-34.49968384 104.37533741 -35.6392513 103.47820251 -36.77880859 102.58105469 C-42.87193429 97.78958049 -49.01490219 93.06339978 -55.16650391 88.34741211 C-58.63715164 85.68110976 -62.07848253 82.98110409 -65.50512695 80.25854492 C-70.86626615 76.00758986 -76.28063402 71.83943273 -81.8125 67.8125 C-82.37573975 67.39484375 -82.93897949 66.9771875 -83.51928711 66.546875 C-98.21440676 55.99181218 -115.80389032 60.90923862 -127.3125 73.375 Z " fill="#111112" transform="translate(251.3125,107.625)"/>
<path d="M0 0 C1.92145865 1.90795894 3.40883391 3.79289864 5 6 C3.44499019 9.81684226 0.96404505 12.19195732 -2 15 C-4.72880503 13.79932579 -6.9576853 12.29793285 -9.3125 10.5 C-16.74707962 5.20520485 -25.15066839 5.19372756 -34 6 C-39.90550425 7.51543363 -44.40685892 9.98100155 -49 14 C-49.66 14 -50.32 14 -51 14 C-51.27714844 14.721875 -51.55429688 15.44375 -51.83984375 16.1875 C-53.30727249 19.74490301 -55.08715632 23.09727016 -56.87890625 26.5 C-60.81650875 35.28071637 -60.06871541 46.08312874 -56.875 54.9375 C-53.67919011 62.34925118 -50.05837275 67.05561523 -43 71 C-43 71.66 -43 72.32 -43 73 C-30.62419991 76.51799393 -22.37580009 76.51799393 -10 73 C-10 72.34 -10 71.68 -10 71 C-8.7861637 69.93642013 -7.52754962 68.92363775 -6.25 67.9375 C-0.33792612 62.92531701 1.50849041 57.45754793 3 50 C-11.85 49.505 -11.85 49.505 -27 49 C-27 45.04 -27 41.08 -27 37 C-21.17928378 36.97535362 -15.35859766 36.9571657 -9.5378418 36.94506836 C-7.55606559 36.94002733 -5.57429311 36.93319462 -3.5925293 36.92456055 C-0.75047891 36.91248485 2.09152247 36.90676955 4.93359375 36.90234375 C5.82525742 36.89718246 6.71692108 36.89202118 7.63560486 36.88670349 C9.75740601 36.88650823 11.8791078 36.9378997 14 37 C15.86104302 38.86104302 15.2173163 41.82036798 15.25 44.3125 C15.10771036 57.07976172 11.76959262 68.04247406 3.375 77.91015625 C-2.01146673 82.97291705 -9.5918859 87 -17 87 C-17 87.66 -17 88.32 -17 89 C-23.6 89 -30.2 89 -37 89 C-37 88.34 -37 87.68 -37 87 C-37.78375 86.938125 -38.5675 86.87625 -39.375 86.8125 C-50.44380033 84.331562 -58.17745391 78.14213899 -64.25 68.8125 C-71.94341309 55.85871117 -73.78762616 39.46369404 -70.0859375 24.74609375 C-67.79930689 17.90833061 -64.72298509 12.40641446 -60 7 C-59.57332031 6.39800781 -59.14664062 5.79601562 -58.70703125 5.17578125 C-53.56457589 -1.77633582 -44.65017412 -6.0591125 -36.24609375 -7.75390625 C-23.30901857 -9.1713597 -10.77819748 -7.77585389 0 0 Z " fill="#1D1D1D" transform="translate(1542,109)"/>
<path d="M0 0 C1.92145865 1.90795894 3.40883391 3.79289864 5 6 C3.44499019 9.81684226 0.96404505 12.19195732 -2 15 C-4.72880503 13.79932579 -6.9576853 12.29793285 -9.3125 10.5 C-16.74707962 5.20520485 -25.15066839 5.19372756 -34 6 C-39.90550425 7.51543363 -44.40685892 9.98100155 -49 14 C-49.66 14 -50.32 14 -51 14 C-51.27714844 14.721875 -51.55429687 15.44375 -51.83984375 16.1875 C-53.30727249 19.74490301 -55.08715632 23.09727016 -56.87890625 26.5 C-60.81650875 35.28071637 -60.06871541 46.08312874 -56.875 54.9375 C-53.67919011 62.34925118 -50.05837275 67.05561523 -43 71 C-43 71.66 -43 72.32 -43 73 C-30.62419991 76.51799393 -22.37580009 76.51799393 -10 73 C-10 72.34 -10 71.68 -10 71 C-8.7861637 69.93642013 -7.52754962 68.92363775 -6.25 67.9375 C-0.33792612 62.92531701 1.50849041 57.45754793 3 50 C-11.85 49.505 -11.85 49.505 -27 49 C-27 45.04 -27 41.08 -27 37 C-21.17928378 36.97535362 -15.35859766 36.9571657 -9.5378418 36.94506836 C-7.55606559 36.94002733 -5.57429311 36.93319462 -3.5925293 36.92456055 C-0.75047891 36.91248485 2.09152247 36.90676955 4.93359375 36.90234375 C5.82525742 36.89718246 6.71692108 36.89202118 7.63560486 36.88670349 C9.75740601 36.88650823 11.8791078 36.9378997 14 37 C15.86104302 38.86104302 15.2173163 41.82036798 15.25 44.3125 C15.10771036 57.07976172 11.76959262 68.04247406 3.375 77.91015625 C-2.01146673 82.97291705 -9.5918859 87 -17 87 C-17 87.66 -17 88.32 -17 89 C-23.6 89 -30.2 89 -37 89 C-37 88.34 -37 87.68 -37 87 C-37.78375 86.938125 -38.5675 86.87625 -39.375 86.8125 C-50.44380033 84.331562 -58.17745391 78.14213899 -64.25 68.8125 C-71.94341309 55.85871117 -73.78762616 39.46369404 -70.0859375 24.74609375 C-67.79930689 17.90833061 -64.72298509 12.40641446 -60 7 C-59.57332031 6.39800781 -59.14664063 5.79601562 -58.70703125 5.17578125 C-53.56457589 -1.77633582 -44.65017412 -6.0591125 -36.24609375 -7.75390625 C-23.30901857 -9.1713597 -10.77819748 -7.77585389 0 0 Z " fill="#1D1D1D" transform="translate(590,109)"/>
<path d="M0 0 C0.495 0.495 0.495 0.495 1 1 C1.33 -0.98 1.66 -2.96 2 -5 C5.3 -5 8.6 -5 12 -5 C12.09301515 4.47562827 12.16392386 13.9510974 12.20724869 23.42708397 C12.22805106 27.82801917 12.25623277 32.22864013 12.30175781 36.62939453 C12.34547994 40.88288043 12.36919228 45.13606564 12.37950897 49.38975906 C12.38685336 51.00595452 12.40119438 52.62213503 12.42292023 54.23820114 C12.56971263 65.61831257 11.91664865 75.76671786 3.77734375 84.52734375 C-0.639437 88.18696208 -5.30593054 90 -11 90 C-11 90.66 -11 91.32 -11 92 C-14.96 92 -18.92 92 -23 92 C-23 91.34 -23 90.68 -23 90 C-24.155 89.95875 -25.31 89.9175 -26.5 89.875 C-32.90765078 89.07972419 -37.01458913 85.03765853 -41.375 80.5625 C-43.38119865 77.39887905 -44.14397776 74.63809453 -45 71 C-43.5437455 70.32880451 -42.08492133 69.66318193 -40.625 69 C-39.81289063 68.62875 -39.00078125 68.2575 -38.1640625 67.875 C-36 67 -36 67 -34 67 C-32.6459068 68.98600337 -31.31542376 70.98817543 -30 73 C-27.01245766 76.5850508 -24.59483444 78.06401521 -20 79 C-14.5949242 78.9207725 -8.87208179 78.43604089 -4 76 C-2.67993427 73.83075548 -2.67993427 73.83075548 -2 71 C-1.4584466 69.7291184 -0.91677057 68.45828904 -0.375 67.1875 C1.21848497 62.98358238 1.23921848 59.46541156 1 55 C0.27296875 55.63228516 0.27296875 55.63228516 -0.46875 56.27734375 C-5.38981909 60.29937137 -8.6396736 61.77284549 -15 62 C-15 62.66 -15 63.32 -15 64 C-17.31 64 -19.62 64 -22 64 C-22 63.34 -22 62.68 -22 62 C-23.134375 61.95875 -24.26875 61.9175 -25.4375 61.875 C-30.94149948 61.1443806 -34.94135666 58.72855035 -39 55 C-45.32616499 46.67751856 -47.34888773 38.97067234 -47.3125 28.6875 C-47.32861328 27.78837891 -47.34472656 26.88925781 -47.36132812 25.96289062 C-47.36848024 16.07151783 -44.77896586 8.28508774 -38 1 C-26.56057045 -9.88435175 -12.36321041 -8.954424 0 0 Z M-25 6 C-25 6.66 -25 7.32 -25 8 C-25.721875 8.185625 -26.44375 8.37125 -27.1875 8.5625 C-31.8618571 10.95161585 -34.36393917 15.09181752 -36 20 C-36.71545079 30.54410269 -36.52423989 38.34470014 -29.75 46.8125 C-25.56315042 50.14294853 -21.88960528 52.10131238 -16.4375 51.91015625 C-10.79634631 51.02872599 -7.63105988 49.59222279 -4 45 C-3.278125 44.236875 -2.55625 43.47375 -1.8125 42.6875 C2.42435482 36.40526699 2.88919046 28.81208957 1.53515625 21.484375 C-0.01204652 15.36880428 -2.08730042 11.97196987 -7 8 C-7.66 8 -8.32 8 -9 8 C-9 7.34 -9 6.68 -9 6 C-11.73077876 4.63461062 -13.95560367 4.86768174 -17 4.875 C-18.0725 4.87242187 -19.145 4.86984375 -20.25 4.8671875 C-22.96182052 4.8127659 -22.96182052 4.8127659 -25 6 Z " fill="#1D1D1D" transform="translate(791,134)"/>
<path d="M0 0 C41.13793103 0 41.13793103 0 52 7 C52 7.66 52 8.32 52 9 C52.88365234 9.39251953 52.88365234 9.39251953 53.78515625 9.79296875 C62.10023223 14.32446518 65.41529451 23.39143542 68 32 C71.2528621 47.2076483 69.50331375 63.19197127 61.3125 76.5 C54.71836049 85.64906441 47.81629402 88.06680217 37 92 C24.79 92 12.58 92 0 92 C0 61.64 0 31.28 0 0 Z M11 13 C11 35.44 11 57.88 11 81 C29.84801783 81.96152395 29.84801783 81.96152395 39 79 C39 78.34 39 77.68 39 77 C40.11181641 76.8453125 40.11181641 76.8453125 41.24609375 76.6875 C46.53683281 75.36669138 50.52792977 71.41315912 53.33203125 66.81640625 C54.37041272 64.57241334 55.22443788 62.34709588 56 60 C56.33644531 59.02740234 56.33644531 59.02740234 56.6796875 58.03515625 C59.43454912 48.80825671 58.91783426 38.13397745 54.77734375 29.4296875 C49.60213823 20.18332031 44.98159553 16.74309832 35 13 C27.08 13 19.16 13 11 13 Z " fill="#1D1D1D" transform="translate(929,103)"/>
<path d="M0 0 C6.33080738 4.78327669 9.90609243 13.229873 11 21 C11.90244991 33.31222294 11.83796634 45.47712923 3.6875 55.5 C0.44019447 58.85205732 -2.76630698 61.04598784 -7 63 C-7.99 63 -8.98 63 -10 63 C-10 63.66 -10 64.32 -10 65 C-15.28 65 -20.56 65 -26 65 C-26 64.34 -26 63.68 -26 63 C-27.3303125 62.62875 -27.3303125 62.62875 -28.6875 62.25 C-32 61 -32 61 -37 57 C-37.33 67.89 -37.66 78.78 -38 90 C-41.63 90 -45.26 90 -49 90 C-49 58.98 -49 27.96 -49 -4 C-45.7 -4 -42.4 -4 -39 -4 C-38.67 -1.69 -38.34 0.62 -38 3 C-37.61070313 2.60167969 -37.22140625 2.20335937 -36.8203125 1.79296875 C-25.92986375 -8.52033641 -12.20650876 -7.7536807 0 0 Z M-27 7 C-27 7.66 -27 8.32 -27 9 C-27.556875 9.20625 -28.11375 9.4125 -28.6875 9.625 C-33.04901339 12.21833229 -36.02056345 16.37844596 -38 21 C-39.69677326 28.92283641 -39.14986507 36.14506953 -35.1875 43.25 C-29.66991541 50.21478818 -29.66991541 50.21478818 -21.66796875 53.3359375 C-16.04100872 53.42455104 -11.23709697 53.08208123 -7 49 C-1.01694075 40.72930046 0.7087955 34.14221929 0 24 C-1.22468995 18.18513354 -4.00290522 14.29687689 -8 10 C-8.53625 9.401875 -9.0725 8.80375 -9.625 8.1875 C-12.59048011 5.62640355 -15.84961577 5.86511216 -19.5625 5.875 C-21.01849609 5.87113281 -21.01849609 5.87113281 -22.50390625 5.8671875 C-24.99952953 5.83349047 -24.99952953 5.83349047 -27 7 Z " fill="#1D1D1D" transform="translate(1783,133)"/>
<path d="M0 0 C6.33080738 4.78327669 9.90609243 13.229873 11 21 C11.90244991 33.31222294 11.83796634 45.47712923 3.6875 55.5 C0.44019447 58.85205732 -2.76630698 61.04598784 -7 63 C-7.99 63 -8.98 63 -10 63 C-10 63.66 -10 64.32 -10 65 C-15.28 65 -20.56 65 -26 65 C-26 64.34 -26 63.68 -26 63 C-27.3303125 62.62875 -27.3303125 62.62875 -28.6875 62.25 C-32 61 -32 61 -37 57 C-37.33 67.89 -37.66 78.78 -38 90 C-41.63 90 -45.26 90 -49 90 C-49 58.98 -49 27.96 -49 -4 C-45.7 -4 -42.4 -4 -39 -4 C-38.67 -1.69 -38.34 0.62 -38 3 C-37.61070313 2.60167969 -37.22140625 2.20335937 -36.8203125 1.79296875 C-25.92986375 -8.52033641 -12.20650876 -7.7536807 0 0 Z M-27 7 C-27 7.66 -27 8.32 -27 9 C-27.556875 9.20625 -28.11375 9.4125 -28.6875 9.625 C-33.04901339 12.21833229 -36.02056345 16.37844596 -38 21 C-39.69677326 28.92283641 -39.14986507 36.14506953 -35.1875 43.25 C-29.66991541 50.21478818 -29.66991541 50.21478818 -21.66796875 53.3359375 C-16.04100872 53.42455104 -11.23709697 53.08208123 -7 49 C-1.01694075 40.72930046 0.7087955 34.14221929 0 24 C-1.22468995 18.18513354 -4.00290522 14.29687689 -8 10 C-8.53625 9.401875 -9.0725 8.80375 -9.625 8.1875 C-12.59048011 5.62640355 -15.84961577 5.86511216 -19.5625 5.875 C-21.01849609 5.87113281 -21.01849609 5.87113281 -22.50390625 5.8671875 C-24.99952953 5.83349047 -24.99952953 5.83349047 -27 7 Z " fill="#1D1D1D" transform="translate(1323,133)"/>
<path d="M0 0 C8.03706495 6.90485937 10.9617814 15.21734173 11.8125 25.5625 C11.93477415 27.70575826 12.01492831 29.85330857 12 32 C11 33 11 33 9.09544373 33.12025452 C8.26271439 33.11803391 7.42998505 33.11581329 6.57202148 33.11352539 C5.63112167 33.11344986 4.69022186 33.11337433 3.72080994 33.11329651 C2.69790359 33.10813522 1.67499725 33.10297394 0.62109375 33.09765625 C-0.42070541 33.0962413 -1.46250458 33.09482635 -2.53587341 33.09336853 C-5.87811094 33.0877508 -9.22028257 33.0751953 -12.5625 33.0625 C-14.82226466 33.05748728 -17.08203037 33.05292398 -19.34179688 33.04882812 C-24.89455391 33.03777561 -30.44727225 33.02102024 -36 33 C-35.55483703 34.58651923 -35.1013836 36.1707135 -34.64453125 37.75390625 C-34.26711792 39.07757202 -34.26711792 39.07757202 -33.88208008 40.42797852 C-32.16933378 45.42210592 -29.60028364 48.81883827 -25.375 51.9375 C-19.43903343 53.80623022 -13.64326671 53.79796731 -7.6875 52 C-3.89942389 49.18096662 -1.67596745 45.88652415 1 42 C5.455 43.98 5.455 43.98 10 46 C10 51.16543897 8.93948863 53.51938312 5.3125 57.25 C1.30800959 60.95307715 -2.34958145 64 -8 64 C-8 64.66 -8 65.32 -8 66 C-13.61 66 -19.22 66 -25 66 C-25 65.34 -25 64.68 -25 64 C-25.804375 63.979375 -26.60875 63.95875 -27.4375 63.9375 C-33.63852443 62.30565147 -39.06191447 58.10554694 -42.375 52.5625 C-45.89444138 44.84680159 -47.53208779 39.09594683 -47.4375 30.625 C-47.43137695 29.6961499 -47.42525391 28.7672998 -47.41894531 27.81030273 C-47.26773166 21.19935819 -46.48240804 15.73996911 -43 10 C-42.38125 8.906875 -41.7625 7.81375 -41.125 6.6875 C-31.27062008 -5.77539225 -13.4197364 -8.90347896 0 0 Z M-28.4375 10.125 C-31.82476778 13.92534921 -35 17.71863393 -35 23 C-23.45 23 -11.9 23 0 23 C-2.12661721 15.04984668 -2.12661721 15.04984668 -7 10 C-7.66 10 -8.32 10 -9 10 C-9 9.34 -9 8.68 -9 8 C-11.71655403 6.64172299 -13.90789406 6.8676555 -16.9375 6.875 C-17.99839844 6.87242187 -19.05929687 6.86984375 -20.15234375 6.8671875 C-23.90513405 7.04221476 -25.58997395 7.6425414 -28.4375 10.125 Z " fill="#1D1D1D" transform="translate(1386,132)"/>
<path d="M0 0 C8.03706495 6.90485937 10.9617814 15.21734173 11.8125 25.5625 C11.93477415 27.70575826 12.01492831 29.85330857 12 32 C11 33 11 33 9.09544373 33.12025452 C8.26271439 33.11803391 7.42998505 33.11581329 6.57202148 33.11352539 C5.63112167 33.11344986 4.69022186 33.11337433 3.72080994 33.11329651 C2.69790359 33.10813522 1.67499725 33.10297394 0.62109375 33.09765625 C-0.42070541 33.0962413 -1.46250458 33.09482635 -2.53587341 33.09336853 C-5.87811094 33.0877508 -9.22028257 33.0751953 -12.5625 33.0625 C-14.82226466 33.05748728 -17.08203037 33.05292398 -19.34179688 33.04882812 C-24.89455391 33.03777561 -30.44727225 33.02102024 -36 33 C-35.55483703 34.58651923 -35.1013836 36.1707135 -34.64453125 37.75390625 C-34.26711792 39.07757202 -34.26711792 39.07757202 -33.88208008 40.42797852 C-32.16933378 45.42210592 -29.60028364 48.81883827 -25.375 51.9375 C-19.43903343 53.80623022 -13.64326671 53.79796731 -7.6875 52 C-3.89942389 49.18096662 -1.67596745 45.88652415 1 42 C5.455 43.98 5.455 43.98 10 46 C10 51.16543897 8.93948863 53.51938312 5.3125 57.25 C1.30800959 60.95307715 -2.34958145 64 -8 64 C-8 64.66 -8 65.32 -8 66 C-13.61 66 -19.22 66 -25 66 C-25 65.34 -25 64.68 -25 64 C-25.804375 63.979375 -26.60875 63.95875 -27.4375 63.9375 C-33.63852443 62.30565147 -39.06191447 58.10554694 -42.375 52.5625 C-45.89444138 44.84680159 -47.53208779 39.09594683 -47.4375 30.625 C-47.43137695 29.6961499 -47.42525391 28.7672998 -47.41894531 27.81030273 C-47.26773166 21.19935819 -46.48240804 15.73996911 -43 10 C-42.38125 8.906875 -41.7625 7.81375 -41.125 6.6875 C-31.27062008 -5.77539225 -13.4197364 -8.90347896 0 0 Z M-28.4375 10.125 C-31.82476778 13.92534921 -35 17.71863393 -35 23 C-23.45 23 -11.9 23 0 23 C-2.12661721 15.04984668 -2.12661721 15.04984668 -7 10 C-7.66 10 -8.32 10 -9 10 C-9 9.34 -9 8.68 -9 8 C-11.71655403 6.64172299 -13.90789406 6.8676555 -16.9375 6.875 C-17.99839844 6.87242187 -19.05929687 6.86984375 -20.15234375 6.8671875 C-23.90513405 7.04221476 -25.58997395 7.6425414 -28.4375 10.125 Z " fill="#1D1D1D" transform="translate(1166,132)"/>
<path d="M0 0 C8.03706495 6.90485937 10.9617814 15.21734173 11.8125 25.5625 C11.93477415 27.70575826 12.01492831 29.85330857 12 32 C11 33 11 33 9.09544373 33.12025452 C8.26271439 33.11803391 7.42998505 33.11581329 6.57202148 33.11352539 C5.63112167 33.11344986 4.69022186 33.11337433 3.72080994 33.11329651 C2.69790359 33.10813522 1.67499725 33.10297394 0.62109375 33.09765625 C-0.42070541 33.0962413 -1.46250458 33.09482635 -2.53587341 33.09336853 C-5.87811094 33.0877508 -9.22028257 33.0751953 -12.5625 33.0625 C-14.82226466 33.05748728 -17.08203037 33.05292398 -19.34179688 33.04882812 C-24.89455391 33.03777561 -30.44727225 33.02102024 -36 33 C-35.55483703 34.58651923 -35.1013836 36.1707135 -34.64453125 37.75390625 C-34.26711792 39.07757202 -34.26711792 39.07757202 -33.88208008 40.42797852 C-32.16933378 45.42210592 -29.60028364 48.81883827 -25.375 51.9375 C-19.43903343 53.80623022 -13.64326671 53.79796731 -7.6875 52 C-3.89942389 49.18096662 -1.67596745 45.88652415 1 42 C5.455 43.98 5.455 43.98 10 46 C10 51.16543897 8.93948863 53.51938312 5.3125 57.25 C1.30800959 60.95307715 -2.34958145 64 -8 64 C-8 64.66 -8 65.32 -8 66 C-13.61 66 -19.22 66 -25 66 C-25 65.34 -25 64.68 -25 64 C-25.804375 63.979375 -26.60875 63.95875 -27.4375 63.9375 C-33.63852443 62.30565147 -39.06191447 58.10554694 -42.375 52.5625 C-45.89444138 44.84680159 -47.53208779 39.09594683 -47.4375 30.625 C-47.43137695 29.6961499 -47.42525391 28.7672998 -47.41894531 27.81030273 C-47.26773166 21.19935819 -46.48240804 15.73996911 -43 10 C-42.38125 8.906875 -41.7625 7.81375 -41.125 6.6875 C-31.27062008 -5.77539225 -13.4197364 -8.90347896 0 0 Z M-28.4375 10.125 C-31.82476778 13.92534921 -35 17.71863393 -35 23 C-23.45 23 -11.9 23 0 23 C-2.12661721 15.04984668 -2.12661721 15.04984668 -7 10 C-7.66 10 -8.32 10 -9 10 C-9 9.34 -9 8.68 -9 8 C-11.71655403 6.64172299 -13.90789406 6.8676555 -16.9375 6.875 C-17.99839844 6.87242187 -19.05929687 6.86984375 -20.15234375 6.8671875 C-23.90513405 7.04221476 -25.58997395 7.6425414 -28.4375 10.125 Z " fill="#1D1D1D" transform="translate(1051,132)"/>
<path d="M0 0 C8.03706495 6.90485937 10.9617814 15.21734173 11.8125 25.5625 C11.93477415 27.70575826 12.01492831 29.85330857 12 32 C11 33 11 33 9.09544373 33.12025452 C8.26271439 33.11803391 7.42998505 33.11581329 6.57202148 33.11352539 C5.63112167 33.11344986 4.69022186 33.11337433 3.72080994 33.11329651 C2.69790359 33.10813522 1.67499725 33.10297394 0.62109375 33.09765625 C-0.42070541 33.0962413 -1.46250458 33.09482635 -2.53587341 33.09336853 C-5.87811094 33.0877508 -9.22028257 33.0751953 -12.5625 33.0625 C-14.82226466 33.05748728 -17.08203037 33.05292398 -19.34179688 33.04882812 C-24.89455391 33.03777561 -30.44727225 33.02102024 -36 33 C-35.55483703 34.58651923 -35.1013836 36.1707135 -34.64453125 37.75390625 C-34.26711792 39.07757202 -34.26711792 39.07757202 -33.88208008 40.42797852 C-32.16933378 45.42210592 -29.60028364 48.81883827 -25.375 51.9375 C-19.43903343 53.80623022 -13.64326671 53.79796731 -7.6875 52 C-3.89942389 49.18096662 -1.67596745 45.88652415 1 42 C5.455 43.98 5.455 43.98 10 46 C10 51.16543897 8.93948863 53.51938312 5.3125 57.25 C1.30800959 60.95307715 -2.34958145 64 -8 64 C-8 64.66 -8 65.32 -8 66 C-13.61 66 -19.22 66 -25 66 C-25 65.34 -25 64.68 -25 64 C-25.804375 63.979375 -26.60875 63.95875 -27.4375 63.9375 C-33.63852443 62.30565147 -39.06191447 58.10554694 -42.375 52.5625 C-45.89444138 44.84680159 -47.53208779 39.09594683 -47.4375 30.625 C-47.43137695 29.6961499 -47.42525391 28.7672998 -47.41894531 27.81030273 C-47.26773166 21.19935819 -46.48240804 15.73996911 -43 10 C-42.38125 8.906875 -41.7625 7.81375 -41.125 6.6875 C-31.27062008 -5.77539225 -13.4197364 -8.90347896 0 0 Z M-28.4375 10.125 C-31.82476778 13.92534921 -35 17.71863393 -35 23 C-23.45 23 -11.9 23 0 23 C-2.12661721 15.04984668 -2.12661721 15.04984668 -7 10 C-7.66 10 -8.32 10 -9 10 C-9 9.34 -9 8.68 -9 8 C-11.71655403 6.64172299 -13.90789406 6.8676555 -16.9375 6.875 C-17.99839844 6.87242187 -19.05929687 6.86984375 -20.15234375 6.8671875 C-23.90513405 7.04221476 -25.58997395 7.6425414 -28.4375 10.125 Z " fill="#1D1D1D" transform="translate(880,132)"/>
<path d="M0 0 C9.45815974 11.62002482 10.55600365 23.0739381 9.1875 37.6875 C7.29097851 46.18215207 3.00457239 52.34366526 -3.8125 57.6875 C-7.69214431 60.07497342 -9.22621652 60.6875 -13.8125 60.6875 C-13.8125 61.3475 -13.8125 62.0075 -13.8125 62.6875 C-19.0925 62.6875 -24.3725 62.6875 -29.8125 62.6875 C-29.8125 62.0275 -29.8125 61.3675 -29.8125 60.6875 C-30.6375 60.64625 -31.4625 60.605 -32.3125 60.5625 C-38.58254295 58.99498926 -43.53963136 54.43609289 -47.8125 49.6875 C-52.19048348 42.22188606 -53.29614602 34.93480471 -53.375 26.4375 C-53.38950195 25.61056641 -53.40400391 24.78363281 -53.41894531 23.93164062 C-53.3177946 17.7491116 -51.65574182 13.13165818 -48.8125 7.6875 C-48.44487549 6.95128418 -48.07725098 6.21506836 -47.69848633 5.45654297 C-44.23932691 -1.23790368 -38.47930699 -4.53583839 -31.5859375 -7.16015625 C-20.12168422 -10.30761488 -9.04992677 -7.4410509 0 0 Z M-29.8125 4.6875 C-29.8125 5.3475 -29.8125 6.0075 -29.8125 6.6875 C-30.8953125 6.996875 -30.8953125 6.996875 -32 7.3125 C-36.50540221 9.51514108 -39.06608055 12.84095711 -40.93359375 17.4609375 C-42.81001514 24.34948892 -43.22165854 32.66803346 -40.125 39.25 C-36.84427296 44.63729913 -32.79763256 48.54188644 -26.8125 50.6875 C-20.98702911 51.49033801 -15.80690139 51.07950018 -10.63671875 48.1640625 C-6.37054033 44.71092451 -3.53103058 39.84309173 -1.8125 34.6875 C-0.93310745 23.20970184 -0.93310745 23.20970184 -4.8125 12.6875 C-6.95141468 10.3901472 -9.16000411 8.37487088 -11.8125 6.6875 C-12.4725 6.6875 -13.1325 6.6875 -13.8125 6.6875 C-13.8125 6.0275 -13.8125 5.3675 -13.8125 4.6875 C-16.54327876 3.32211062 -18.76810367 3.55518174 -21.8125 3.5625 C-22.885 3.55992187 -23.9575 3.55734375 -25.0625 3.5546875 C-27.77432052 3.5002659 -27.77432052 3.5002659 -29.8125 4.6875 Z " fill="#1D1D1D" transform="translate(1654.8125,135.3125)"/>
<path d="M0 0 C9.45815974 11.62002482 10.55600365 23.0739381 9.1875 37.6875 C7.29097851 46.18215207 3.00457239 52.34366526 -3.8125 57.6875 C-7.69214431 60.07497342 -9.22621652 60.6875 -13.8125 60.6875 C-13.8125 61.3475 -13.8125 62.0075 -13.8125 62.6875 C-19.0925 62.6875 -24.3725 62.6875 -29.8125 62.6875 C-29.8125 62.0275 -29.8125 61.3675 -29.8125 60.6875 C-30.6375 60.64625 -31.4625 60.605 -32.3125 60.5625 C-38.58254295 58.99498926 -43.53963136 54.43609289 -47.8125 49.6875 C-52.19048348 42.22188606 -53.29614602 34.93480471 -53.375 26.4375 C-53.38950195 25.61056641 -53.40400391 24.78363281 -53.41894531 23.93164062 C-53.3177946 17.7491116 -51.65574182 13.13165818 -48.8125 7.6875 C-48.44487549 6.95128418 -48.07725098 6.21506836 -47.69848633 5.45654297 C-44.23932691 -1.23790368 -38.47930699 -4.53583839 -31.5859375 -7.16015625 C-20.12168422 -10.30761488 -9.04992677 -7.4410509 0 0 Z M-29.8125 4.6875 C-29.8125 5.3475 -29.8125 6.0075 -29.8125 6.6875 C-30.8953125 6.996875 -30.8953125 6.996875 -32 7.3125 C-36.50540221 9.51514108 -39.06608055 12.84095711 -40.93359375 17.4609375 C-42.81001514 24.34948892 -43.22165854 32.66803346 -40.125 39.25 C-36.84427296 44.63729913 -32.79763256 48.54188644 -26.8125 50.6875 C-20.98702911 51.49033801 -15.80690139 51.07950018 -10.63671875 48.1640625 C-6.37054033 44.71092451 -3.53103058 39.84309173 -1.8125 34.6875 C-0.93310745 23.20970184 -0.93310745 23.20970184 -4.8125 12.6875 C-6.95141468 10.3901472 -9.16000411 8.37487088 -11.8125 6.6875 C-12.4725 6.6875 -13.1325 6.6875 -13.8125 6.6875 C-13.8125 6.0275 -13.8125 5.3675 -13.8125 4.6875 C-16.54327876 3.32211062 -18.76810367 3.55518174 -21.8125 3.5625 C-22.885 3.55992187 -23.9575 3.55734375 -25.0625 3.5546875 C-27.77432052 3.5002659 -27.77432052 3.5002659 -29.8125 4.6875 Z " fill="#1D1D1D" transform="translate(1256.8125,135.3125)"/>
<path d="M0 0 C9.45815974 11.62002482 10.55600365 23.0739381 9.1875 37.6875 C7.29097851 46.18215207 3.00457239 52.34366526 -3.8125 57.6875 C-7.69214431 60.07497342 -9.22621652 60.6875 -13.8125 60.6875 C-13.8125 61.3475 -13.8125 62.0075 -13.8125 62.6875 C-19.0925 62.6875 -24.3725 62.6875 -29.8125 62.6875 C-29.8125 62.0275 -29.8125 61.3675 -29.8125 60.6875 C-30.6375 60.64625 -31.4625 60.605 -32.3125 60.5625 C-38.58254295 58.99498926 -43.53963136 54.43609289 -47.8125 49.6875 C-52.19048348 42.22188606 -53.29614602 34.93480471 -53.375 26.4375 C-53.38950195 25.61056641 -53.40400391 24.78363281 -53.41894531 23.93164062 C-53.3177946 17.7491116 -51.65574182 13.13165818 -48.8125 7.6875 C-48.44487549 6.95128418 -48.07725098 6.21506836 -47.69848633 5.45654297 C-44.23932691 -1.23790368 -38.47930699 -4.53583839 -31.5859375 -7.16015625 C-20.12168422 -10.30761488 -9.04992677 -7.4410509 0 0 Z M-29.8125 4.6875 C-29.8125 5.3475 -29.8125 6.0075 -29.8125 6.6875 C-30.8953125 6.996875 -30.8953125 6.996875 -32 7.3125 C-36.50540221 9.51514108 -39.06608055 12.84095711 -40.93359375 17.4609375 C-42.81001514 24.34948892 -43.22165854 32.66803346 -40.125 39.25 C-36.84427296 44.63729913 -32.79763256 48.54188644 -26.8125 50.6875 C-20.98702911 51.49033801 -15.80690139 51.07950018 -10.63671875 48.1640625 C-6.37054033 44.71092451 -3.53103058 39.84309173 -1.8125 34.6875 C-0.93310745 23.20970184 -0.93310745 23.20970184 -4.8125 12.6875 C-6.95141468 10.3901472 -9.16000411 8.37487088 -11.8125 6.6875 C-12.4725 6.6875 -13.1325 6.6875 -13.8125 6.6875 C-13.8125 6.0275 -13.8125 5.3675 -13.8125 4.6875 C-16.54327876 3.32211062 -18.76810367 3.55518174 -21.8125 3.5625 C-22.885 3.55992187 -23.9575 3.55734375 -25.0625 3.5546875 C-27.77432052 3.5002659 -27.77432052 3.5002659 -29.8125 4.6875 Z " fill="#1D1D1D" transform="translate(729.8125,135.3125)"/>
<path d="M0 0 C9.45815974 11.62002482 10.55600365 23.0739381 9.1875 37.6875 C7.29097851 46.18215207 3.00457239 52.34366526 -3.8125 57.6875 C-7.69214431 60.07497342 -9.22621652 60.6875 -13.8125 60.6875 C-13.8125 61.3475 -13.8125 62.0075 -13.8125 62.6875 C-19.0925 62.6875 -24.3725 62.6875 -29.8125 62.6875 C-29.8125 62.0275 -29.8125 61.3675 -29.8125 60.6875 C-30.6375 60.64625 -31.4625 60.605 -32.3125 60.5625 C-38.58254295 58.99498926 -43.53963136 54.43609289 -47.8125 49.6875 C-52.19048348 42.22188606 -53.29614602 34.93480471 -53.375 26.4375 C-53.38950195 25.61056641 -53.40400391 24.78363281 -53.41894531 23.93164062 C-53.3177946 17.7491116 -51.65574182 13.13165818 -48.8125 7.6875 C-48.44487549 6.95128418 -48.07725098 6.21506836 -47.69848633 5.45654297 C-44.23932691 -1.23790368 -38.47930699 -4.53583839 -31.5859375 -7.16015625 C-20.12168422 -10.30761488 -9.04992677 -7.4410509 0 0 Z M-29.8125 4.6875 C-29.8125 5.3475 -29.8125 6.0075 -29.8125 6.6875 C-30.8953125 6.996875 -30.8953125 6.996875 -32 7.3125 C-36.50540221 9.51514108 -39.06608055 12.84095711 -40.93359375 17.4609375 C-42.81001514 24.34948892 -43.22165854 32.66803346 -40.125 39.25 C-36.84427296 44.63729913 -32.79763256 48.54188644 -26.8125 50.6875 C-20.98702911 51.49033801 -15.80690139 51.07950018 -10.63671875 48.1640625 C-6.37054033 44.71092451 -3.53103058 39.84309173 -1.8125 34.6875 C-0.93310745 23.20970184 -0.93310745 23.20970184 -4.8125 12.6875 C-6.95141468 10.3901472 -9.16000411 8.37487088 -11.8125 6.6875 C-12.4725 6.6875 -13.1325 6.6875 -13.8125 6.6875 C-13.8125 6.0275 -13.8125 5.3675 -13.8125 4.6875 C-16.54327876 3.32211062 -18.76810367 3.55518174 -21.8125 3.5625 C-22.885 3.55992187 -23.9575 3.55734375 -25.0625 3.5546875 C-27.77432052 3.5002659 -27.77432052 3.5002659 -29.8125 4.6875 Z " fill="#1D1D1D" transform="translate(663.8125,135.3125)"/>
<path d="M0 0 C3.63 0 7.26 0 11 0 C11.01981934 1.26593994 11.03963867 2.53187988 11.06005859 3.83618164 C11.13639172 8.55333638 11.22506586 13.27019378 11.31738281 17.98706055 C11.35555836 20.02476105 11.39043077 22.06252631 11.421875 24.1003418 C11.46777432 27.03718134 11.52572716 29.97357941 11.5859375 32.91015625 C11.59748871 33.81459976 11.60903992 34.71904327 11.62094116 35.65089417 C11.79482994 43.18033098 12.51395278 49.34770892 18 55 C22.90629007 56.63543002 27.86374163 56.77682122 32.75 55 C36.95196529 51.26491974 40.69440116 45.77655801 41.15821838 40.04475403 C41.17376266 39.30529037 41.18930695 38.56582672 41.20532227 37.80395508 C41.2352401 36.54298759 41.2352401 36.54298759 41.26576233 35.25654602 C41.29083107 33.90172371 41.29083107 33.90172371 41.31640625 32.51953125 C41.33718735 31.59154221 41.35796844 30.66355316 41.37937927 29.70744324 C41.44477323 26.7425376 41.50371262 23.77754328 41.5625 20.8125 C41.60569487 18.8027252 41.64930947 16.79295937 41.69335938 14.78320312 C41.80044427 9.85555968 41.90174045 4.92782701 42 0 C45.63 0 49.26 0 53 0 C53 21.78 53 43.56 53 66 C49.7 66 46.4 66 43 66 C42.505 63.03 42.505 63.03 42 60 C41.32904297 60.63228516 41.32904297 60.63228516 40.64453125 61.27734375 C34.6397188 66.71880492 34.6397188 66.71880492 30 67 C30 67.66 30 68.32 30 69 C25.05 69 20.1 69 15 69 C15 68.34 15 67.68 15 67 C14.278125 66.938125 13.55625 66.87625 12.8125 66.8125 C8.30403503 65.51005456 6.0582597 62.41101294 3.3125 58.75 C-0.17120826 51.45080175 -0.27891562 43.790011 -0.1953125 35.83984375 C-0.1924826 34.80936417 -0.18965271 33.77888458 -0.18673706 32.71717834 C-0.17562863 29.45716257 -0.15054163 26.19743138 -0.125 22.9375 C-0.11495813 20.7141967 -0.1058344 18.49088906 -0.09765625 16.26757812 C-0.07571992 10.84494405 -0.0412552 5.42252011 0 0 Z " fill="#1E1E1E" transform="translate(1671,129)"/>
<path d="M0 0 C3.96 0 7.92 0 12 0 C13.61797821 4.4431606 15.23537959 8.88653063 16.85229492 13.33007812 C17.39999613 14.83501567 17.94784261 16.33990034 18.49584961 17.84472656 C20.07914823 22.19263001 21.6592003 26.54169008 23.23529053 30.89221191 C23.74384469 32.29395264 24.25364524 33.69524182 24.76470947 35.09606934 C25.47754395 37.04998863 26.18646887 39.00528479 26.89453125 40.9609375 C27.3016333 42.08032715 27.70873535 43.1997168 28.12817383 44.35302734 C29 47 29 47 29 49 C29.66 49 30.32 49 31 49 C31.2487085 48.13036621 31.2487085 48.13036621 31.50244141 47.24316406 C33.52891899 40.30968648 35.89924269 33.5343125 38.375 26.75 C39.17330076 24.54822192 39.97147856 22.34639926 40.76953125 20.14453125 C41.15189941 19.09217285 41.53426758 18.03981445 41.92822266 16.95556641 C43.31887497 13.12066051 44.69393182 9.280332 46.0625 5.4375 C46.701875 3.643125 47.34125 1.84875 48 0 C51.96 0 55.92 0 60 0 C59.37307365 5.17010692 57.75839658 9.53300488 55.8125 14.3125 C53.46929693 20.18932259 51.23618855 26.07684294 49.1875 32.0625 C45.23332186 43.54174256 40.56367403 54.75315907 36 66 C32.04 66 28.08 66 24 66 C20.74680694 59.29645067 18.09464285 52.60478916 15.6875 45.5625 C13.25149395 38.43714859 10.64051037 31.41677881 7.8125 24.4375 C7.30529419 23.1836853 7.30529419 23.1836853 6.7878418 21.90454102 C6.14583557 20.31770743 5.50382722 18.7308747 4.86181641 17.14404297 C3.70841476 14.2745888 2.58798565 11.39488761 1.5 8.5 C1.2009375 7.7059375 0.901875 6.911875 0.59375 6.09375 C0 4 0 4 0 0 Z " fill="#1D1D1D" transform="translate(1061,129)"/>
<path d="M0 0 C0 4.95 0 9.9 0 15 C-0.99 14.67 -1.98 14.34 -3 14 C-3 13.34 -3 12.68 -3 12 C-6.3 12 -9.6 12 -13 12 C-13 12.66 -13 13.32 -13 14 C-13.9075 14.53625 -14.815 15.0725 -15.75 15.625 C-19.77796655 18.21374124 -21.42208376 21.55153626 -23 26 C-23.54428272 29.25911578 -23.60463627 32.45028783 -23.609375 35.75 C-23.62591125 36.64871826 -23.64244751 37.54743652 -23.65948486 38.47338867 C-23.70768104 41.31566392 -23.72927224 44.1574053 -23.75 47 C-23.77818347 48.93882853 -23.8081142 50.87763251 -23.83984375 52.81640625 C-23.91343212 57.54422682 -23.96317962 62.27175594 -24 67 C-27.63 67 -31.26 67 -35 67 C-35 45.22 -35 23.44 -35 1 C-31.7 1 -28.4 1 -25 1 C-24.67 3.31 -24.34 5.62 -24 8 C-23.29875 7.236875 -22.5975 6.47375 -21.875 5.6875 C-14.93230385 -0.80241162 -9.18885531 -0.28129149 0 0 Z " fill="#1E1E1E" transform="translate(1601,128)"/>
<path d="M0 0 C0 4.95 0 9.9 0 15 C-0.99 14.67 -1.98 14.34 -3 14 C-3 13.34 -3 12.68 -3 12 C-6.3 12 -9.6 12 -13 12 C-13 12.66 -13 13.32 -13 14 C-13.9075 14.53625 -14.815 15.0725 -15.75 15.625 C-19.77796655 18.21374124 -21.42208376 21.55153626 -23 26 C-23.54428272 29.25911578 -23.60463627 32.45028783 -23.609375 35.75 C-23.62591125 36.64871826 -23.64244751 37.54743652 -23.65948486 38.47338867 C-23.70768104 41.31566392 -23.72927224 44.1574053 -23.75 47 C-23.77818347 48.93882853 -23.8081142 50.87763251 -23.83984375 52.81640625 C-23.91343212 57.54422682 -23.96317962 62.27175594 -24 67 C-27.63 67 -31.26 67 -35 67 C-35 45.22 -35 23.44 -35 1 C-31.7 1 -28.4 1 -25 1 C-24.67 3.31 -24.34 5.62 -24 8 C-23.29875 7.236875 -22.5975 6.47375 -21.875 5.6875 C-14.93230385 -0.80241162 -9.18885531 -0.28129149 0 0 Z " fill="#1E1E1E" transform="translate(1440,128)"/>
<path d="M0 0 C3.63 0 7.26 0 11 0 C11 30.36 11 60.72 11 92 C7.37 92 3.74 92 0 92 C0 61.64 0 31.28 0 0 Z " fill="#1E1E1E" transform="translate(1185,103)"/>
<path d="M0 0 C3.63 0 7.26 0 11 0 C11 30.36 11 60.72 11 92 C7.37 92 3.74 92 0 92 C0 61.64 0 31.28 0 0 Z " fill="#1E1E1E" transform="translate(814,103)"/>
<path d="M0 0 C1.98 0 3.96 0 6 0 C9.3 8.25 12.6 16.5 16 25 C19.63 16.75 23.26 8.5 27 0 C28.98 0 30.96 0 33 0 C33 10.89 33 21.78 33 33 C31.35 33 29.7 33 28 33 C27.505 23.595 27.505 23.595 27 14 C24.36 20.27 21.72 26.54 19 33 C17.35 33 15.7 33 14 33 C10.61156832 26.47413157 7.78440536 19.80632421 5 13 C4.67 19.6 4.34 26.2 4 33 C2.68 33 1.36 33 0 33 C0 22.11 0 11.22 0 0 Z " fill="#000000" transform="translate(801,237)"/>
<path d="M0 0 C0.66 0.66 1.32 1.32 2 2 C2.33 1.34 2.66 0.68 3 0 C4.65 0 6.3 0 8 0 C8.08738991 4.37487331 8.140524 8.74952078 8.1875 13.125 C8.21263672 14.3625 8.23777344 15.6 8.26367188 16.875 C8.27333984 18.07382812 8.28300781 19.27265625 8.29296875 20.5078125 C8.3086792 21.60754395 8.32438965 22.70727539 8.34057617 23.84033203 C7.94772843 27.48494528 6.87248027 29.86768508 5 33 C1.07890878 35.76877054 -3.37967177 35.68626637 -8 35 C-10.35505285 33.89681842 -11.96812002 32.66718358 -14 31 C-13.67 30.01 -13.34 29.02 -13 28 C-12.01 27.67 -11.02 27.34 -10 27 C-9.4225 27.495 -8.845 27.99 -8.25 28.5 C-5.93712358 30.37217761 -5.93712358 30.37217761 -2.3125 29.75 C0.82962051 29.34821394 0.82962051 29.34821394 2 28 C2.04063832 26.33382885 2.042721 24.66611905 2 23 C1.34 23.66 0.68 24.32 0 25 C-6.614023 25.77163602 -6.614023 25.77163602 -9.82421875 23.984375 C-13.15003348 21.3108387 -14.74156215 19.22426018 -15.23828125 14.94921875 C-15.4194823 9.42735507 -14.72103642 6.35892838 -11 2 C-6.93150591 -0.71232939 -4.83523216 -0.30699887 0 0 Z M-10 8 C-10.79685381 12.38672045 -10.74425331 15.79774466 -8.375 19.625 C-6.01565738 21.25573726 -6.01565738 21.25573726 -2.9375 21 C0.00064477 20.20544777 0.00064477 20.20544777 1.875 18.375 C3.46764451 15.01275048 3.45186895 12.6795043 3 9 C1.47662048 5.99051026 1.47662048 5.99051026 -1 4 C-5.38506139 3.01336119 -7.57420747 4.31638913 -10 8 Z " fill="#000000" transform="translate(1207,245)"/>
<path d="M0 0 C0.99 0 1.98 0 3 0 C4.66666667 0 6.33333333 0 8 0 C8.0992502 4.03833789 8.17164562 8.07619872 8.21972656 12.11547852 C8.2397799 13.48800023 8.26703028 14.86043717 8.30175781 16.23266602 C8.35054552 18.21072044 8.37088876 20.18941119 8.390625 22.16796875 C8.41157227 23.35672607 8.43251953 24.5454834 8.45410156 25.77026367 C7.910615 29.63573881 6.70847978 31.24650481 4 34 C0.32349261 35.8382537 -3.97796199 35.37884188 -8 35 C-11.125 33.5 -11.125 33.5 -13 32 C-12.67 30.68 -12.34 29.36 -12 28 C-9 28 -9 28 -6 30 C-2.95804573 30.33340471 -2.95804573 30.33340471 0 30 C0.66 29.34 1.32 28.68 2 28 C2 26.68 2 25.36 2 24 C1.34 24.33 0.68 24.66 0 25 C-3.63776343 25.27454818 -6.32977182 25.2589518 -9.75 23.9375 C-12.73040182 21.37104288 -14.17652255 18.78945374 -15 15 C-15.20129472 10.29775542 -14.63121205 6.9773606 -12.0625 3 C-8.31770862 -0.63131285 -4.94968878 -0.08821228 0 0 Z M-8.3125 6.0625 C-10.44392985 9.77276678 -10.67796661 11.78154109 -10 16 C-8.0405988 19.1264113 -8.0405988 19.1264113 -5 21 C-1.81555347 21.17797389 -1.81555347 21.17797389 1 20 C3.67770289 15.98344566 3.69000365 12.71928419 3 8 C1.03969628 5.0232425 -0.04475029 4.21493118 -3.5 3.4375 C-6.18511337 3.82909183 -6.18511337 3.82909183 -8.3125 6.0625 Z " fill="#000000" transform="translate(1024,245)"/>
<path d="M0 0 C0.7940625 -0.01417969 1.588125 -0.02835938 2.40625 -0.04296875 C4.5 0.1875 4.5 0.1875 6.5 2.1875 C6.83 1.5275 7.16 0.8675 7.5 0.1875 C8.82 0.1875 10.14 0.1875 11.5 0.1875 C11.64883585 4.36826075 11.75743418 8.54760137 11.82958984 12.73022461 C11.85967954 14.1513964 11.90056404 15.57238372 11.95263672 16.99291992 C12.37014777 28.67913623 12.37014777 28.67913623 10.31567383 32.24047852 C6.47465829 35.69351269 2.71468324 35.85647463 -2.15234375 35.62890625 C-5.40965883 35.01646598 -7.26021761 33.57660121 -9.5 31.1875 C-8.84 29.8675 -8.18 28.5475 -7.5 27.1875 C-6.84 27.1875 -6.18 27.1875 -5.5 27.1875 C-5.0875 27.6825 -4.675 28.1775 -4.25 28.6875 C-2.49404776 30.48952469 -2.49404776 30.48952469 0.5625 30.4375 C3.43185596 30.37563679 3.43185596 30.37563679 5.5 29.1875 C5.5 27.5375 5.5 25.8875 5.5 24.1875 C4.84 24.5175 4.18 24.8475 3.5 25.1875 C-1.47067782 25.5626455 -4.55151502 25.34628799 -8.5 22.1875 C-11.4162346 17.54198945 -11.1435066 12.48876862 -10.5 7.1875 C-8.33059004 1.90723803 -5.58731113 0.04535155 0 0 Z M-4.3125 5.1875 C-6.18734786 8.3451385 -6.60548718 11.5798383 -6.5 15.1875 C-5.63353917 18.18905751 -5.63353917 18.18905751 -3.5 20.1875 C-0.60293293 21.43427006 -0.60293293 21.43427006 2.5 21.1875 C5.13883902 19.33318069 6.23086497 17.85136641 7.4375 14.875 C7.52502096 11.11159854 6.1642315 8.515963 4.5 5.1875 C3.39471558 3.86781822 3.39471558 3.86781822 0.625 3.9375 C-2.38642454 3.9626063 -2.38642454 3.9626063 -4.3125 5.1875 Z " fill="#000000" transform="translate(1373.5,244.8125)"/>
<path d="M0 0 C3.71494303 4.53825473 3.8831281 9.33640889 3.75390625 14.9765625 C3.20650795 19.92393452 1.65413719 23.79166268 -2.09765625 27.14453125 C-6.55793559 30.07382226 -10.3153465 30.43093814 -15.5546875 29.765625 C-18.8671875 27.953125 -18.8671875 27.953125 -21.5546875 25.765625 C-22.1321875 25.311875 -22.7096875 24.858125 -23.3046875 24.390625 C-26.78867499 19.86144126 -27.20667612 14.28165571 -26.5546875 8.765625 C-25.19387846 2.57908979 -22.78662543 -0.71082497 -17.5546875 -4.234375 C-11.03590058 -7.27647556 -4.89869183 -4.3290765 0 0 Z M-20.5546875 4.765625 C-22.31772441 10.05473574 -22.22947617 14.99832134 -20.2421875 20.203125 C-18.64967186 22.98384186 -18.64967186 22.98384186 -15.5546875 24.765625 C-12.5377787 25.10624373 -10.46060935 25.33774607 -7.5546875 24.765625 C-4.86363552 22.58988084 -3.09935822 20.85496644 -1.5546875 17.765625 C-1.14389005 12.85975549 -0.92899376 8.29857466 -2.8046875 3.703125 C-5.53066148 0.68508238 -7.42648 -0.06269125 -11.4296875 -0.671875 C-15.85225015 -0.05271623 -17.41018907 1.62112657 -20.5546875 4.765625 Z " fill="#000000" transform="translate(565.5546875,241.234375)"/>
<path d="M0 0 C4.08212562 4.36692508 5.8201195 8.43667781 6.0625 14.375 C5.85928816 19.35369015 4.80056855 23.6999481 1.22265625 27.3828125 C-2.95400044 30.95696859 -5.610171 32.25517354 -11.15234375 32.14453125 C-15.62918887 31.58593756 -18.85967231 29.73496229 -21.63671875 26.1796875 C-24.66751085 20.92631453 -25.10008873 15.8256704 -24.3125 9.875 C-22.57681472 3.99295544 -20.21414069 1.27613844 -15.3125 -2.125 C-10.14357131 -4.53716672 -4.51913479 -2.8990676 0 0 Z M-18.3125 6.875 C-20.28355392 10.81710784 -19.76633884 15.57865901 -19.3125 19.875 C-18.02706923 23.03070209 -16.43298487 25.31475756 -13.3125 26.875 C-7.34952395 27.54278342 -7.34952395 27.54278342 -2.375 24.5625 C1.16947242 19.94394503 1.24145255 15.49366162 0.6875 9.875 C-0.90756861 6.2063422 -2.77689023 3.79433102 -6.3125 1.875 C-12.09813777 0.86880213 -14.35719913 3.01168287 -18.3125 6.875 Z " fill="#000000" transform="translate(1100.3125,239.125)"/>
<path d="M0 0 C2.33333333 0 4.66666667 0 7 0 C7.61875 -0.01160156 8.2375 -0.02320313 8.875 -0.03515625 C9.57625 -0.04417969 10.2775 -0.05320313 11 -0.0625 C12.051875 -0.07990234 12.051875 -0.07990234 13.125 -0.09765625 C15 0 15 0 17 1 C17 1.66 17 2.32 17 3 C17.495 2.505 17.99 2.01 18.5 1.5 C21.91060453 -0.54636272 25.10399308 -0.77615763 29 0 C31.10058594 1.20581055 31.10058594 1.20581055 33 3 C33.45410156 5.36010742 33.45410156 5.36010742 33.390625 8.10546875 C33.37773438 9.08837891 33.36484375 10.07128906 33.3515625 11.08398438 C33.31804688 12.10814453 33.28453125 13.13230469 33.25 14.1875 C33.23195313 15.22326172 33.21390625 16.25902344 33.1953125 17.32617188 C33.14814437 19.88504284 33.08234057 22.44205842 33 25 C31.68 25 30.36 25 29 25 C28.93941406 23.72382813 28.87882813 22.44765625 28.81640625 21.1328125 C28.73200432 19.46352984 28.64735614 17.79425963 28.5625 16.125 C28.52318359 15.28324219 28.48386719 14.44148438 28.44335938 13.57421875 C28.40146484 12.76855469 28.35957031 11.96289062 28.31640625 11.1328125 C28.27974854 10.38918457 28.24309082 9.64555664 28.20532227 8.87939453 C28.10044135 6.91135688 28.10044135 6.91135688 27 5 C24.58354218 4.83312552 24.58354218 4.83312552 22 5 C19.64641749 7.35358251 19.72128096 7.92968394 19.5859375 11.1328125 C19.54726563 11.93847656 19.50859375 12.74414062 19.46875 13.57421875 C19.42234375 14.83685547 19.42234375 14.83685547 19.375 16.125 C19.33632813 16.97449219 19.29765625 17.82398438 19.2578125 18.69921875 C19.16343506 20.79911684 19.08062414 22.89952891 19 25 C17.68 25 16.36 25 15 25 C14.67 18.4 14.34 11.8 14 5 C12.02 5 10.04 5 8 5 C5.64641749 7.35358251 5.72128096 7.92968394 5.5859375 11.1328125 C5.54726563 11.93847656 5.50859375 12.74414062 5.46875 13.57421875 C5.4378125 14.41597656 5.406875 15.25773437 5.375 16.125 C5.33632813 16.97449219 5.29765625 17.82398438 5.2578125 18.69921875 C5.16343506 20.79911684 5.08062414 22.89952891 5 25 C3.35 25 1.7 25 0 25 C0 16.75 0 8.5 0 0 Z " fill="#000000" transform="translate(671,245)"/>
<path d="M0 0 C1.65 0 3.3 0 5 0 C5.33 0.66 5.66 1.32 6 2 C6.66 1.34 7.32 0.68 8 0 C14.614023 -0.77163602 14.614023 -0.77163602 17.82421875 1.015625 C20.50302014 3.16904403 21.90554437 4.71663312 23 8 C23.56497328 13.70405715 23.26384401 18.10423398 20 23 C17.4428344 25.73982029 16.23432978 25.97944476 12.4375 26.3125 C9 26 9 26 6 24 C5.67 27.63 5.34 31.26 5 35 C3.35 35 1.7 35 0 35 C0 23.45 0 11.9 0 0 Z M6.6875 6.0625 C4.57919746 9.73250813 4.47775293 11.82202347 5 16 C6.35715418 19.28574169 7.15395128 20.59924008 10.375 22.125 C13.19829524 22.21615968 13.19829524 22.21615968 15.8125 20.125 C18.36889438 16.47300802 18.68323449 14.44974156 18.421875 10.09375 C18.09477331 7.7959996 18.09477331 7.7959996 16.3125 5.4375 C12.35398782 2.97680324 10.21163594 2.91935173 6.6875 6.0625 Z " fill="#000000" transform="translate(710,245)"/>
<path d="M0 0 C6.93 0 13.86 0 21 0 C21 1.32 21 2.64 21 4 C15.72 4 10.44 4 5 4 C5 7.3 5 10.6 5 14 C9.95 14 14.9 14 20 14 C20 15.65 20 17.3 20 19 C15.05 19 10.1 19 5 19 C5 22.3 5 25.6 5 29 C10.28 29 15.56 29 21 29 C21 30.32 21 31.64 21 33 C14.07 33 7.14 33 0 33 C0 22.11 0 11.22 0 0 Z " fill="#000000" transform="translate(1140,237)"/>
<path d="M0 0 C2.46565878 2.05471565 3.6538791 3.17702522 4.625 6.1875 C4.625 7.1775 4.625 8.1675 4.625 9.1875 C2.3125 9.5 2.3125 9.5 -0.375 9.1875 C-2.0625 6.75 -2.0625 6.75 -3.375 4.1875 C-6.51371188 2.61814406 -8.91355822 2.83548897 -12.375 3.1875 C-15.36928733 5.20538929 -16.94824798 6.77816463 -18.0078125 10.27734375 C-18.89135263 15.77597115 -18.12543318 19.37424194 -15.375 24.1875 C-11.66486601 26.66092266 -9.76439738 26.57253486 -5.375 26.1875 C-2.1899643 24.42734869 -1.54203028 23.68859084 -0.375 20.1875 C1.275 20.1875 2.925 20.1875 4.625 20.1875 C4.12114177 24.59625955 2.7136933 27.01300966 -0.375 30.1875 C-4.34583957 32.44121975 -7.86556654 32.58306434 -12.375 32.1875 C-17.05670268 30.44333626 -19.58749191 28.31714161 -22.375 24.1875 C-24.39032506 18.14152482 -24.75914023 9.95680778 -21.875 4.125 C-15.59888398 -3.24943632 -8.45115268 -4.538582 0 0 Z " fill="#000000" transform="translate(926.375,238.8125)"/>
<path d="M0 0 C2.46565878 2.05471565 3.6538791 3.17702522 4.625 6.1875 C4.625 7.1775 4.625 8.1675 4.625 9.1875 C2.3125 9.5 2.3125 9.5 -0.375 9.1875 C-2.0625 6.75 -2.0625 6.75 -3.375 4.1875 C-6.51371188 2.61814406 -8.91355822 2.83548897 -12.375 3.1875 C-15.53454305 5.72887159 -17.09040886 7.33372659 -18.375 11.1875 C-18.77037729 16.42624905 -18.18088657 19.71886583 -15.375 24.1875 C-11.66486601 26.66092266 -9.76439738 26.57253486 -5.375 26.1875 C-2.1899643 24.42734869 -1.54203028 23.68859084 -0.375 20.1875 C1.275 20.1875 2.925 20.1875 4.625 20.1875 C4.12114177 24.59625955 2.7136933 27.01300966 -0.375 30.1875 C-4.34583957 32.44121975 -7.86556654 32.58306434 -12.375 32.1875 C-17.71239473 30.19905883 -20.82833824 27.28082352 -23.375 22.1875 C-24.00196649 14.26305469 -24.48205956 7.57132445 -19.375 1.1875 C-13.62795805 -4.20035183 -6.63736616 -3.56451145 0 0 Z " fill="#000000" transform="translate(636.375,238.8125)"/>
<path d="M0 0 C3.18712101 1.8308993 4.58021107 3.22039198 6.3125 6.4375 C7 9 7 9 7 14 C1.06 14 -4.88 14 -11 14 C-8.81854202 20.08537742 -8.81854202 20.08537742 -5.0625 21.0625 C-1.50402651 20.98987809 -0.69059644 20.15247715 2 18 C4.25 18.3125 4.25 18.3125 6 19 C4.56521739 23.54347826 4.56521739 23.54347826 2.375 25.3125 C-2.28332647 26.66096293 -6.36422391 26.65431044 -10.8125 24.875 C-14.05192043 22.09835391 -15.66392097 19.30651501 -16.28515625 15.04296875 C-16.53153003 9.44064329 -15.09717905 5.41982198 -11.375 1.125 C-7.62666215 -0.65052846 -4.0643668 -0.65320181 0 0 Z M-9.4375 5.8125 C-11.19374606 7.82320672 -11.19374606 7.82320672 -11 10 C-6.71 10 -2.42 10 2 10 C1.34 8.35 0.68 6.7 0 5 C-5.01576689 3.67979753 -5.01576689 3.67979753 -9.4375 5.8125 Z " fill="#000000" transform="translate(999,245)"/>
<path d="M0 0 C2.8740001 1.81160263 3.62926692 4.03531275 4.828125 7.15234375 C4.828125 9.13234375 4.828125 11.11234375 4.828125 13.15234375 C-1.111875 13.15234375 -7.051875 13.15234375 -13.171875 13.15234375 C-10.99041702 19.23772117 -10.99041702 19.23772117 -7.234375 20.21484375 C-3.6540289 20.14177546 -2.90858067 19.27108363 -0.171875 17.15234375 C2.578125 17.46484375 2.578125 17.46484375 4.828125 18.15234375 C3.48848178 20.69766588 2.40041629 22.72312528 0.078125 24.46484375 C-4.21187102 25.77567587 -7.82921574 25.76264342 -11.921875 23.90234375 C-15.71654721 20.95093203 -16.93440776 19.17006051 -18.046875 14.40234375 C-18.54475086 8.96635218 -16.97365326 4.36991699 -13.546875 0.15234375 C-9.24299098 -1.65981794 -4.35702384 -1.70049312 0 0 Z M-11.546875 5.58984375 C-13.261132 7.78737701 -13.261132 7.78737701 -13.171875 9.15234375 C-8.881875 9.15234375 -4.591875 9.15234375 -0.171875 9.15234375 C-1.62476486 4.56814745 -1.62476486 4.56814745 -3.171875 3.15234375 C-7.27411861 2.60537794 -8.58887352 2.55400013 -11.546875 5.58984375 Z " fill="#000000" transform="translate(1274.171875,245.84765625)"/>
<path d="M0 0 C3.49890004 2.11391877 4.70578686 3.11736059 6 7 C6 9.31 6 11.62 6 14 C0.39 14 -5.22 14 -11 14 C-10.67 15.98 -10.34 17.96 -10 20 C-4.94990405 20.93786082 -4.94990405 20.93786082 0 20 C0.33 19.34 0.66 18.68 1 18 C2.65 18.33 4.3 18.66 6 19 C4.60042311 22.38231081 3.26935579 24.27928642 0 26 C-4.86232692 26.54897239 -7.01373745 26.5113954 -11.375 24.25 C-14.50890645 21.56379447 -15.78658933 19.70451381 -16.30078125 15.59765625 C-16.32979152 9.3217674 -15.63914283 5.94365931 -11.375 1.1875 C-7.64846542 -0.67576729 -4.07782217 -0.66873376 0 0 Z M-11 7 C-11 7.99 -11 8.98 -11 10 C-7.04 10 -3.08 10 1 10 C0.37158027 6.0285831 0.37158027 6.0285831 -2 4 C-6.00238192 3.4733708 -8.1365206 4.1365206 -11 7 Z " fill="#000000" transform="translate(1053,245)"/>
<path d="M0 0 C2.75569447 2.18159145 4.43588747 3.87177494 6 7 C6 9.31 6 11.62 6 14 C0.06 14 -5.88 14 -12 14 C-9.81854202 20.08537742 -9.81854202 20.08537742 -6.0625 21.0625 C-2.4821539 20.98943171 -1.73670567 20.11873988 1 18 C3.75 18.3125 3.75 18.3125 6 19 C4.66035678 21.54532213 3.57229129 23.57078153 1.25 25.3125 C-3.03999602 26.62333212 -6.65734074 26.61029967 -10.75 24.75 C-13.99674043 22.22475744 -15.7771472 20.33340261 -16.46875 16.1953125 C-16.56350481 6.8856523 -16.56350481 6.8856523 -13.625 3.3125 C-9.33533617 -0.46648957 -5.59679401 -0.8893006 0 0 Z M-11 7 C-11 7.99 -11 8.98 -11 10 C-7.04 10 -3.08 10 1 10 C0.37158027 6.0285831 0.37158027 6.0285831 -2 4 C-6.00238192 3.4733708 -8.1365206 4.1365206 -11 7 Z " fill="#000000" transform="translate(1299,245)"/>
<path d="M0 0 C1.65 0 3.3 0 5 0 C8.26320477 7.91190431 11.16204613 15.92811482 14 24 C15.77520936 21.33718596 16.6804012 19.35099314 17.69140625 16.3671875 C18.14870117 15.03494141 18.14870117 15.03494141 18.61523438 13.67578125 C18.92783203 12.75152344 19.24042969 11.82726562 19.5625 10.875 C20.18620617 9.03817899 20.81237627 7.20219216 21.44140625 5.3671875 C21.71670166 4.55362793 21.99199707 3.74006836 22.27563477 2.90185547 C23 1 23 1 24 0 C25.66617115 -0.04063832 27.33388095 -0.042721 29 0 C26.90541559 7.29703594 24.4851001 14.43491897 21.875 21.5625 C21.51535156 22.55830078 21.15570312 23.55410156 20.78515625 24.58007812 C20.44097656 25.52431641 20.09679687 26.46855469 19.7421875 27.44140625 C19.4313623 28.29420166 19.12053711 29.14699707 18.80029297 30.02563477 C18 32 18 32 17 33 C15.33382885 33.04063832 13.66611905 33.042721 12 33 C8.83993951 25.70419214 5.94977263 18.32912055 3.1875 10.875 C2.87353271 10.03348389 2.55956543 9.19196777 2.23608398 8.32495117 C1.94548096 7.53451416 1.65487793 6.74407715 1.35546875 5.9296875 C1.09403076 5.22054199 0.83259277 4.51139648 0.56323242 3.78076172 C0 2 0 2 0 0 Z " fill="#000000" transform="translate(838,237)"/>
<path d="M0 0 C0.845625 -0.01933594 1.69125 -0.03867188 2.5625 -0.05859375 C5 0.4375 5 0.4375 7.296875 1.79296875 C10.01902557 6.01979429 9.41984077 10.28171463 9.25 15.1875 C9.23195313 16.17105469 9.21390625 17.15460938 9.1953125 18.16796875 C9.14824126 20.59213783 9.08250742 23.01432059 9 25.4375 C8.236875 25.23125 7.47375 25.025 6.6875 24.8125 C3.78114056 24.10358797 3.78114056 24.10358797 1 26.4375 C-3.04240704 26.88665634 -5.32350465 26.79733795 -8.9375 24.875 C-11 22.4375 -11 22.4375 -11.5625 18.9375 C-11 15.4375 -11 15.4375 -9.6875 13.125 C-5.47790773 10.48176764 -0.87210005 10.07591311 4 9.4375 C3.67 8.1175 3.34 6.7975 3 5.4375 C0.08347826 5.27068891 0.08347826 5.27068891 -3 5.4375 C-3.66 6.0975 -4.32 6.7575 -5 7.4375 C-7.625 7.5625 -7.625 7.5625 -10 7.4375 C-9.63633388 4.80092061 -9.24457548 3.66444842 -7.265625 1.828125 C-4.62712628 0.20863268 -3.07422426 0.00468632 0 0 Z M-6 16.4375 C-6 18.0875 -6 19.7375 -6 21.4375 C-3.25038489 22.38357807 -3.25038489 22.38357807 0 22.4375 C2.95910144 20.3119845 2.95910144 20.3119845 5 17.4375 C5 16.4475 5 15.4575 5 14.4375 C0.78121808 14.24127759 -2.17010894 14.63519832 -6 16.4375 Z " fill="#000000" transform="translate(656,244.5625)"/>
<path d="M0 0 C3.57339883 1.92356873 5.69607513 4.0882254 7 8 C7.53029448 13.05083759 7.54762715 16.90474571 5.25 21.5 C2.01033566 25.09962705 0.4311641 25.84098177 -4.375 26.375 C-8.7179218 25.92573223 -10.70673134 24.8337428 -14 22 C-16.63150339 17.81351734 -16.70186005 12.80309044 -16 8 C-12.19661006 0.78667426 -7.88498471 -1.34326826 0 0 Z M-9.3125 5.4375 C-11.45578641 8.69212011 -11.63099466 10.95752617 -11.453125 14.80078125 C-10.70366997 18.43822248 -9.01973 19.98684667 -6 22 C-3.07554491 22 -1.68017722 21.52611298 0.62109375 19.74609375 C2.91969299 16.83540293 2.46643299 13.96336797 2.3515625 10.38671875 C2.14163394 7.8236685 2.14163394 7.8236685 0.3125 5.375 C-3.4269973 3.15151512 -5.61094103 3.13653091 -9.3125 5.4375 Z " fill="#000000" transform="translate(951,245)"/>
<path d="M0 0 C1.65 0 3.3 0 5 0 C5.02505615 0.57032959 5.0501123 1.14065918 5.07592773 1.72827148 C5.19156549 4.29826157 5.31443624 6.86785527 5.4375 9.4375 C5.47681641 10.33533203 5.51613281 11.23316406 5.55664062 12.15820312 C5.59853516 13.01220703 5.64042969 13.86621094 5.68359375 14.74609375 C5.72025146 15.53685303 5.75690918 16.3276123 5.79467773 17.14233398 C5.80563257 19.01401441 5.80563257 19.01401441 7 20 C9.45809998 20.2500773 9.45809998 20.2500773 12 20 C14.35358251 17.64641749 14.27871904 17.07031606 14.4140625 13.8671875 C14.45273437 13.06152344 14.49140625 12.25585938 14.53125 11.42578125 C14.57765625 10.16314453 14.57765625 10.16314453 14.625 8.875 C14.68300781 7.60076172 14.68300781 7.60076172 14.7421875 6.30078125 C14.83656494 4.20088316 14.91937586 2.10047109 15 0 C16.65 0 18.3 0 20 0 C20 8.25 20 16.5 20 25 C17.66666667 25 15.33333333 25 13 25 C11.906875 25.226875 10.81375 25.45375 9.6875 25.6875 C5.5469888 26.03839078 4.19804766 25.53962608 1 23 C-0.2263757 20.54724859 -0.11415314 18.9494219 -0.09765625 16.2109375 C-0.09443359 15.26992188 -0.09121094 14.32890625 -0.08789062 13.359375 C-0.07951172 12.37453125 -0.07113281 11.3896875 -0.0625 10.375 C-0.05798828 9.38242188 -0.05347656 8.38984375 -0.04882812 7.3671875 C-0.03702145 4.9113984 -0.020554 2.45572896 0 0 Z " fill="#000000" transform="translate(738,245)"/>
<path d="M0 0 C2.66666667 0 5.33333333 0 8 0 C9.9490625 -0.12375 9.9490625 -0.12375 11.9375 -0.25 C15.13639685 -0.26176065 15.78254463 -0.16727336 18.4375 1.875 C20.69907689 4.95074457 21.12273278 6.59008274 21.09765625 10.3515625 C21.09443359 11.20234375 21.09121094 12.053125 21.08789062 12.9296875 C21.07951172 13.81914062 21.07113281 14.70859375 21.0625 15.625 C21.05798828 16.5221875 21.05347656 17.419375 21.04882812 18.34375 C21.03702591 20.56256648 21.02056155 22.78125018 21 25 C19.35 25 17.7 25 16 25 C15.67 18.4 15.34 11.8 15 5 C12.69 5 10.38 5 8 5 C6.0243438 7.96348429 5.73623141 8.68020373 5.5859375 12.01171875 C5.54726562 12.76904297 5.50859375 13.52636719 5.46875 14.30664062 C5.4378125 15.09232422 5.406875 15.87800781 5.375 16.6875 C5.33632812 17.48478516 5.29765625 18.28207031 5.2578125 19.10351562 C5.16367506 21.06863475 5.08075368 23.0342854 5 25 C3.35 25 1.7 25 0 25 C0 16.75 0 8.5 0 0 Z " fill="#000000" transform="translate(1337,245)"/>
<path d="M0 0 C2.66666667 0 5.33333333 0 8 0 C9.9490625 -0.12375 9.9490625 -0.12375 11.9375 -0.25 C15.09510994 -0.25580443 15.79112175 -0.15531972 18.4375 1.8125 C20.69045732 4.96664025 21.12440713 7.45859407 21.09765625 11.23046875 C21.09443359 12.03291016 21.09121094 12.83535156 21.08789062 13.66210938 C21.07951172 14.49548828 21.07113281 15.32886719 21.0625 16.1875 C21.05798828 17.03248047 21.05347656 17.87746094 21.04882812 18.74804688 C21.03705403 20.83206155 21.0191189 22.91603977 21 25 C19.35 25 17.7 25 16 25 C15.95101563 23.72382813 15.90203125 22.44765625 15.8515625 21.1328125 C15.77653809 19.46351928 15.70099012 17.79424954 15.625 16.125 C15.5940625 15.28324219 15.563125 14.44148438 15.53125 13.57421875 C15.49257812 12.76855469 15.45390625 11.96289062 15.4140625 11.1328125 C15.3826416 10.38918457 15.3512207 9.64555664 15.31884766 8.87939453 C15.14580449 6.75989026 15.14580449 6.75989026 13 5 C10.5 4.66666667 10.5 4.66666667 8 5 C5.64641749 7.35358251 5.72128096 7.92968394 5.5859375 11.1328125 C5.54726562 11.93847656 5.50859375 12.74414062 5.46875 13.57421875 C5.4378125 14.41597656 5.406875 15.25773437 5.375 16.125 C5.33632812 16.97449219 5.29765625 17.82398438 5.2578125 18.69921875 C5.16343506 20.79911684 5.08062414 22.89952891 5 25 C3.35 25 1.7 25 0 25 C0 16.75 0 8.5 0 0 Z " fill="#000000" transform="translate(1231,245)"/>
<path d="M0 0 C2.66666667 0 5.33333333 0 8 0 C9.9490625 -0.12375 9.9490625 -0.12375 11.9375 -0.25 C15.09510994 -0.25580443 15.79112175 -0.15531972 18.4375 1.8125 C20.69045732 4.96664025 21.12440713 7.45859407 21.09765625 11.23046875 C21.09443359 12.03291016 21.09121094 12.83535156 21.08789062 13.66210938 C21.07951172 14.49548828 21.07113281 15.32886719 21.0625 16.1875 C21.05798828 17.03248047 21.05347656 17.87746094 21.04882812 18.74804688 C21.03705403 20.83206155 21.0191189 22.91603977 21 25 C19.35 25 17.7 25 16 25 C15.95101562 23.72382813 15.90203125 22.44765625 15.8515625 21.1328125 C15.77653809 19.46351928 15.70099012 17.79424954 15.625 16.125 C15.5940625 15.28324219 15.563125 14.44148438 15.53125 13.57421875 C15.49257813 12.76855469 15.45390625 11.96289062 15.4140625 11.1328125 C15.3826416 10.38918457 15.3512207 9.64555664 15.31884766 8.87939453 C15.14580449 6.75989026 15.14580449 6.75989026 13 5 C10.5 4.66666667 10.5 4.66666667 8 5 C5.64641749 7.35358251 5.72128096 7.92968394 5.5859375 11.1328125 C5.54726563 11.93847656 5.50859375 12.74414062 5.46875 13.57421875 C5.4378125 14.41597656 5.406875 15.25773437 5.375 16.125 C5.33632813 16.97449219 5.29765625 17.82398438 5.2578125 18.69921875 C5.16343506 20.79911684 5.08062414 22.89952891 5 25 C3.35 25 1.7 25 0 25 C0 16.75 0 8.5 0 0 Z " fill="#000000" transform="translate(574,245)"/>
<path d="M0 0 C2.625 1.8125 2.625 1.8125 4 4 C4 4.99 4 5.98 4 7 C-0.875 6.125 -0.875 6.125 -2 5 C-3.99958364 4.95919217 -6.00045254 4.95745644 -8 5 C-8 6.32 -8 7.64 -8 9 C-7.31292969 9.17015625 -6.62585938 9.3403125 -5.91796875 9.515625 C-5.01691406 9.75796875 -4.11585938 10.0003125 -3.1875 10.25 C-1.84751953 10.59804687 -1.84751953 10.59804687 -0.48046875 10.953125 C2.42478918 12.1792811 3.45879314 13.27600648 5 16 C5 19.82870078 4.45587335 21.47505493 1.9375 24.375 C-1.87339703 26.48315581 -4.73733106 26.71475055 -9 26 C-11.9375 24.75 -11.9375 24.75 -14 23 C-14.8125 20.8125 -14.8125 20.8125 -15 19 C-12.6875 18.3125 -12.6875 18.3125 -10 18 C-9.525625 18.495 -9.05125 18.99 -8.5625 19.5 C-8.046875 19.995 -7.53125 20.49 -7 21 C-3.85078091 20.76716851 -3.85078091 20.76716851 -1 20 C-1 19.01 -1 18.02 -1 17 C-1.77085937 16.73445313 -2.54171875 16.46890625 -3.3359375 16.1953125 C-4.84027344 15.66550781 -4.84027344 15.66550781 -6.375 15.125 C-7.37273438 14.77695312 -8.37046875 14.42890625 -9.3984375 14.0703125 C-12 13 -12 13 -14 11 C-14.41652031 7.25131724 -14.4979164 4.88266999 -12.625 1.5625 C-8.55775312 -0.85848028 -4.61012128 -0.77345889 0 0 Z " fill="#000000" transform="translate(778,245)"/>
<path d="M0 0 C1.32 0 2.64 0 4 0 C4.33 0.66 4.66 1.32 5 2 C5.66 1.34 6.32 0.68 7 0 C9.0234375 -0.37109375 9.0234375 -0.37109375 11.375 -0.4375 C12.53128906 -0.49744141 12.53128906 -0.49744141 13.7109375 -0.55859375 C16 0 16 0 18.2734375 1.8828125 C20.75991363 6.37197076 20.43511858 10.27513859 20.25 15.3125 C20.23195313 16.24384766 20.21390625 17.17519531 20.1953125 18.13476562 C20.14834888 20.42424197 20.08269475 22.71158184 20 25 C18.68 25 17.36 25 16 25 C15.95101563 23.97519531 15.90203125 22.95039063 15.8515625 21.89453125 C15.77648929 20.5338294 15.70094345 19.17315356 15.625 17.8125 C15.5940625 17.13896484 15.563125 16.46542969 15.53125 15.77148438 C15.29896078 11.80321025 14.71612524 8.59270121 13 5 C10.69 5 8.38 5 6 5 C5.01857619 9.24733832 4.69079621 13.47324533 4.4375 17.8125 C4.39431641 18.50537109 4.35113281 19.19824219 4.30664062 19.91210938 C4.20138547 21.60788686 4.10027137 23.30392052 4 25 C2.68 25 1.36 25 0 25 C0 16.75 0 8.5 0 0 Z " fill="#000000" transform="translate(1167,245)"/>
<path d="M0 0 C1.65 0 3.3 0 5 0 C5.11625936 4.56228541 5.18727408 9.12418928 5.25 13.6875 C5.30027344 15.62786133 5.30027344 15.62786133 5.3515625 17.60742188 C5.36445312 18.85458984 5.37734375 20.10175781 5.390625 21.38671875 C5.41157227 22.53358154 5.43251953 23.68044434 5.45410156 24.86206055 C4.90384899 28.66442415 3.65728809 30.28125209 1 33 C-2.06429776 34.53214888 -4.6165642 34.22938548 -8 34 C-10.875 32.875 -10.875 32.875 -13 31 C-13.8125 27.8125 -13.8125 27.8125 -14 25 C-12.35 25 -10.7 25 -9 25 C-8.67 25.99 -8.34 26.98 -8 28 C-6.00045254 28.04254356 -3.99958364 28.04080783 -2 28 C-0.19605125 26.19605125 -0.76294211 23.43322201 -0.68359375 20.99609375 C-0.62075195 19.17368164 -0.62075195 19.17368164 -0.55664062 17.31445312 C-0.51732422 16.03505859 -0.47800781 14.75566406 -0.4375 13.4375 C-0.39431641 12.15423828 -0.35113281 10.87097656 -0.30664062 9.54882812 C-0.200152 6.36600147 -0.09814038 3.18309326 0 0 Z " fill="#000000" transform="translate(879,237)"/>
<path d="M0 0 C-0.33 1.32 -0.66 2.64 -1 4 C-2.65 4 -4.3 4 -6 4 C-6.33 5.65 -6.66 7.3 -7 9 C-5.02 9 -3.04 9 -1 9 C-1 10.32 -1 11.64 -1 13 C-2.98 13 -4.96 13 -7 13 C-7 19.93 -7 26.86 -7 34 C-8.32 34 -9.64 34 -11 34 C-11 27.07 -11 20.14 -11 13 C-12.32 13 -13.64 13 -15 13 C-15 11.68 -15 10.36 -15 9 C-13.68 9 -12.36 9 -11 9 C-11.061875 8.071875 -11.12375 7.14375 -11.1875 6.1875 C-11 3 -11 3 -9.625 1.1875 C-6.12403246 -1.37089936 -4.17919164 -0.81766793 0 0 Z " fill="#000000" transform="translate(1124,236)"/>
<path d="M0 0 C1.65 0 3.3 0 5 0 C5 10.89 5 21.78 5 33 C3.35 33 1.7 33 0 33 C0 22.11 0 11.22 0 0 Z " fill="#000000" transform="translate(963,237)"/>
<path d="M0 0 C2.475 0.495 2.475 0.495 5 1 C5.66 0.67 6.32 0.34 7 0 C8.99960012 -0.039992 11.00047242 -0.04346799 13 0 C13 1.32 13 2.64 13 4 C12.030625 4.309375 11.06125 4.61875 10.0625 4.9375 C7.15934208 5.69523342 7.15934208 5.69523342 6 7 C5.84417697 8.34015221 5.74955858 9.68758903 5.68359375 11.03515625 C5.64169922 11.84404297 5.59980469 12.65292969 5.55664062 13.48632812 C5.51732422 14.33646484 5.47800781 15.18660156 5.4375 16.0625 C5.39431641 16.91650391 5.35113281 17.77050781 5.30664062 18.65039062 C5.20023298 20.76672037 5.09958269 22.88333813 5 25 C3.35 25 1.7 25 0 25 C0 16.75 0 8.5 0 0 Z " fill="#000000" transform="translate(1310,245)"/>
<path d="M0 0 C1.32 0 2.64 0 4 0 C4 10.89 4 21.78 4 33 C2.68 33 1.36 33 0 33 C0 22.11 0 11.22 0 0 Z " fill="#000000" transform="translate(974,237)"/>
<path d="M0 0 C1.32 0 2.64 0 4 0 C4 8.25 4 16.5 4 25 C2.68 25 1.36 25 0 25 C0 16.75 0 8.5 0 0 Z " fill="#000000" transform="translate(1327,245)"/>
<path d="M0 0 C1.32 0 2.64 0 4 0 C4 8.25 4 16.5 4 25 C2.68 25 1.36 25 0 25 C0 16.75 0 8.5 0 0 Z " fill="#000000" transform="translate(1221,245)"/>
<path d="M0 0 C1.65 0.33 3.3 0.66 5 1 C4.67 2.65 4.34 4.3 4 6 C2.35 5.67 0.7 5.34 -1 5 C-0.67 3.35 -0.34 1.7 0 0 Z " fill="#000000" transform="translate(1221,236)"/>
<path d="M0 0 C1.65 0.33 3.3 0.66 5 1 C4.67 2.65 4.34 4.3 4 6 C2.35 5.67 0.7 5.34 -1 5 C-0.67 3.35 -0.34 1.7 0 0 Z " fill="#000000" transform="translate(1327,236)"/>
</svg>
